STARTFONT 2.1
COMMENT
COMMENT Converted from OpenType font "BeVietnam-Regular.ttf" by "otf2bdf 3.0".
COMMENT
FONT -FreeType-Be Vietnam-Medium-R-Normal--50-360-100-100-P-231-ISO10646-1
SIZE 36 100 100
FONTBOUNDINGBOX 77 68 -19 -13
STARTPROPERTIES 19
FOUNDRY "FreeType"
FAMILY_NAME "Be Vietnam"
WEIGHT_NAME "Medium"
SLANT "R"
SETWIDTH_NAME "Normal"
ADD_STYLE_NAME ""
PIXEL_SIZE 50
POINT_SIZE 360
RESOLUTION_X 100
RESOLUTION_Y 100
SPACING "P"
AVERAGE_WIDTH 231
CHARSET_REGISTRY "ISO10646"
CHARSET_ENCODING "1"
FONT_ASCENT 59
FONT_DESCENT 13
COPYRIGHT "Copyright 2019 The Bevietnam Project Authors (https://github.com/bettergui/beVietnam)"
_OTF_FONTFILE "BeVietnam-Regular.ttf"
_OTF_PSNAME "BeVietnam-Regular"
ENDPROPERTIES
CHARS 445
STARTCHAR 000D
ENCODING 13
SWIDTH 600 0
DWIDTH 30 0
BBX 0 0 0 0
BITMAP
ENDCHAR
STARTCHAR 0020
ENCODING 32
SWIDTH 220 0
DWIDTH 11 0
BBX 0 0 0 0
BITMAP
ENDCHAR
STARTCHAR 0021
ENCODING 33
SWIDTH 240 0
DWIDTH 12 0
BBX 6 38 3 0
BITMAP
78
78
78
78
78
78
78
78
78
78
78
78
78
78
78
78
78
78
78
78
78
78
78
78
78
38
38
38
38
00
00
00
00
78
7C
FC
FC
78
ENDCHAR
STARTCHAR 0022
ENCODING 34
SWIDTH 500 0
DWIDTH 25 0
BBX 18 13 4 25
BITMAP
0C0180
1C0380
300600
600C00
600C00
E01C00
E01C00
F81F00
FC1FC0
FE1FC0
FE0FC0
7C0F80
180300
ENDCHAR
STARTCHAR 0023
ENCODING 35
SWIDTH 860 0
DWIDTH 43 0
BBX 36 35 4 0
BITMAP
0007803C00
0007803C00
0007803C00
0007803800
0007003800
000F007800
000F007800
000F007800
000E007000
001E00F000
1FFFFFFFF0
3FFFFFFFE0
3FFFFFFFE0
001C00E000
003C01E000
003C01E000
003C01E000
003C01C000
003803C000
007803C000
007803C000
007803C000
7FFFFFFFC0
7FFFFFFF80
FFFFFFFF80
FFFFFFFF80
00F0078000
00E0070000
01E00F0000
01E00F0000
01E00F0000
01E00E0000
03C01E0000
03C01E0000
03C01E0000
ENDCHAR
STARTCHAR 0024
ENCODING 36
SWIDTH 560 0
DWIDTH 28 0
BBX 25 42 2 -4
BITMAP
00180000
00180000
00180000
003E0000
03FFC000
07FFF000
0FFFF800
1F98FC00
3E187C00
3C183E00
7C181E00
78181F00
78181F00
78180F00
7C180000
7C180000
3E180000
3F180000
1FF80000
0FFF8000
07FFE000
00FFF800
001FFC00
00187E00
00183F00
00181F00
00180F00
F8180F00
F8180F80
78180F00
7C180F00
7C181F00
3E181F00
1F987E00
1FFBFC00
0FFFF800
03FFF000
00FFC000
00180000
00180000
00180000
00180000
ENDCHAR
STARTCHAR 0025
ENCODING 37
SWIDTH 820 0
DWIDTH 41 0
BBX 38 37 2 -1
BITMAP
0200000000
3FC0003800
7FE0007800
70F0007000
F07000F000
E03801E000
E03801E000
E03803C000
E03803C000
E038078000
E078078000
F0700F0000
7FF00F0000
3FE01E0000
0F801E0000
00003C0000
00003C0000
0000780000
0000780000
0000F00000
0000F00000
0001E00000
0001E00FC0
0003C01FE0
0003803FF0
0007807878
0007007038
000F00F03C
000E00F01C
001E00F01C
001C00F03C
003C007038
0038007038
0078007878
0070003FF0
00F0001FE0
0000000300
ENDCHAR
STARTCHAR 0026
ENCODING 38
SWIDTH 620 0
DWIDTH 31 0
BBX 30 36 3 0
BITMAP
000E0000
007FE000
01FFF800
03FFFC00
03F0FC00
07C03E00
07801E00
07801F00
07801F00
07801F00
07801F00
07800000
07C00000
03C00000
03E00000
01F00000
00F80000
00FC0000
03FE03C0
0FFF07C0
1F9F0780
3E0F8F80
7C07CF00
F803FE00
F001FE00
F000FC00
F0007C00
F0007E00
F000FE00
F000FF00
F801EF80
7C03E7C0
7FFFC3E0
3FFF81F0
1FFE00F8
07FC007C
ENDCHAR
STARTCHAR 0027
ENCODING 39
SWIDTH 300 0
DWIDTH 15 0
BBX 7 13 4 27
BITMAP
38
FC
FC
FE
FE
3E
0E
0C
0C
0C
18
70
60
ENDCHAR
STARTCHAR 0028
ENCODING 40
SWIDTH 460 0
DWIDTH 23 0
BBX 13 49 6 -10
BITMAP
0038
0070
00E0
01E0
03C0
0780
0780
0F00
1F00
1E00
3E00
3C00
3C00
7C00
7800
7800
F800
F800
F000
F000
F000
F000
F000
F000
F000
F000
F000
F000
F000
F000
F000
F800
F800
7800
7800
7C00
3C00
3C00
3E00
1E00
1F00
0F00
0780
0780
03C0
01E0
00E0
0070
0038
ENDCHAR
STARTCHAR 0029
ENCODING 41
SWIDTH 480 0
DWIDTH 24 0
BBX 13 49 6 -10
BITMAP
C000
F000
7800
3C00
1C00
1E00
0F00
0F80
0780
07C0
03C0
03C0
03E0
01E0
01F0
01F0
00F0
00F0
00F0
00F8
00F8
00F8
00F8
00F8
00F8
00F8
00F8
00F8
00F8
00F8
00F8
00F0
00F0
01F0
01F0
01E0
01E0
03E0
03C0
07C0
0780
0F00
0F00
1E00
1C00
3800
7800
F000
C000
ENDCHAR
STARTCHAR 002A
ENCODING 42
SWIDTH 500 0
DWIDTH 25 0
BBX 17 18 4 20
BITMAP
01C000
01C000
01C000
61C100
71C780
FCCF80
3EFE00
0FF800
03E000
07F800
3FFE00
FCDF80
79C780
61C300
01C000
01C000
01C000
01C000
ENDCHAR
STARTCHAR 002B
ENCODING 43
SWIDTH 560 0
DWIDTH 28 0
BBX 19 19 5 6
BITMAP
00E000
00E000
00E000
00E000
00E000
00E000
00E000
FFFFE0
FFFFE0
FFFFE0
FFFFE0
00E000
00E000
00E000
00E000
00E000
00E000
00E000
00E000
ENDCHAR
STARTCHAR 002C
ENCODING 44
SWIDTH 280 0
DWIDTH 14 0
BBX 6 13 4 -8
BITMAP
78
FC
FC
FC
FC
1C
0C
0C
0C
1C
38
70
40
ENDCHAR
STARTCHAR 002D
ENCODING 45
SWIDTH 600 0
DWIDTH 30 0
BBX 18 3 6 14
BITMAP
FFFFC0
FFFFC0
FFFFC0
ENDCHAR
STARTCHAR 002E
ENCODING 46
SWIDTH 260 0
DWIDTH 13 0
BBX 6 5 4 0
BITMAP
78
FC
FC
FC
78
ENDCHAR
STARTCHAR 002F
ENCODING 47
SWIDTH 500 0
DWIDTH 25 0
BBX 21 48 3 -8
BITMAP
000078
0000F8
0000F0
0000F0
0001F0
0001E0
0001E0
0003C0
0003C0
0003C0
000780
000780
000F80
000F00
000F00
001F00
001E00
001E00
003C00
003C00
003C00
007800
007800
00F800
00F000
00F000
01F000
01E000
01E000
03E000
03C000
03C000
078000
078000
0F8000
0F0000
0F0000
1F0000
1E0000
1E0000
3E0000
3C0000
3C0000
780000
780000
780000
F00000
F00000
ENDCHAR
STARTCHAR 0030
ENCODING 48
SWIDTH 600 0
DWIDTH 30 0
BBX 25 37 3 -1
BITMAP
003C0000
03FFC000
07FFE000
0FFFF800
1FC1F800
3F00FC00
7E003E00
7C003E00
78001E00
F8001F00
F8001F00
F8000F00
F0000F00
F0000F00
F0000F80
F0000F80
F0000F80
F0000F80
F0000F80
F0000F80
F0000F80
F0000F80
F0000F80
F0000F00
F0000F00
F8000F00
F8001F00
F8001F00
7C001E00
7C003E00
3E007C00
3F00FC00
1FC3F800
0FFFF000
07FFE000
01FF8000
00100000
ENDCHAR
STARTCHAR 0031
ENCODING 49
SWIDTH 480 0
DWIDTH 24 0
BBX 18 35 5 0
BITMAP
03E000
07E000
0FE000
1FE000
3FE000
7DE000
F9E000
F1E000
E1E000
C1E000
81E000
01E000
01E000
01E000
01E000
01E000
01E000
01E000
01E000
01E000
01E000
01E000
01E000
01E000
01E000
01E000
01E000
01E000
01E000
01E000
01E000
FFFFC0
FFFFC0
FFFFC0
FFFFC0
ENDCHAR
STARTCHAR 0032
ENCODING 50
SWIDTH 580 0
DWIDTH 29 0
BBX 23 36 4 0
BITMAP
00FC00
07FF80
0FFFE0
1FFFF0
3F03F0
7C00F8
78007C
F8007C
F8003C
F0003C
F0003C
F0003C
00003C
00003C
00007C
000078
0000F8
0001F0
0001F0
0003E0
0007C0
000F80
003F00
007E00
00FC00
01F800
03F000
07C000
0F8000
1F0000
7E0000
FC0000
FFFFFE
FFFFFE
FFFFFE
FFFFFE
ENDCHAR
STARTCHAR 0033
ENCODING 51
SWIDTH 580 0
DWIDTH 29 0
BBX 24 36 3 0
BITMAP
007E00
03FFC0
0FFFF0
1FFFF8
1F81FC
3E007C
3C003E
7C001E
78001E
00001E
00001E
00001E
00001E
00003E
00007C
0000F8
007FF0
007FE0
007FE0
007FF8
0000FC
00003C
00001E
00001E
00001F
00000F
00000F
F0001F
F8001F
78001E
7C003E
3F007C
3FFFFC
1FFFF8
07FFF0
01FFC0
ENDCHAR
STARTCHAR 0034
ENCODING 52
SWIDTH 600 0
DWIDTH 30 0
BBX 26 35 2 0
BITMAP
0001F800
0003F800
0003F800
0007F800
000FF800
000FF800
001FF800
003EF800
003CF800
0078F800
00F8F800
00F0F800
01E0F800
03E0F800
03C0F800
0780F800
0F80F800
0F00F800
1E00F800
3E00F800
3C00F800
7800F800
F800F800
FFFFFFC0
FFFFFFC0
FFFFFFC0
0000F800
0000F800
0000F800
0000F800
0000F800
0000F800
0000F800
0000F800
0000F800
ENDCHAR
STARTCHAR 0035
ENCODING 53
SWIDTH 600 0
DWIDTH 30 0
BBX 23 35 4 0
BITMAP
7FFFF8
7FFFF8
7FFFF8
7FFFF8
780000
780000
780000
780000
780000
780000
700000
701800
71FFC0
73FFE0
F7FFF0
FF01F8
FC007C
FC003C
F8003E
00001E
00001E
00001E
00001E
00001E
00001E
00001E
F0001E
F8003E
F8003C
7C007C
3F01F8
3FFFF8
0FFFE0
07FFC0
01FF00
ENDCHAR
STARTCHAR 0036
ENCODING 54
SWIDTH 580 0
DWIDTH 29 0
BBX 24 35 3 0
BITMAP
001E00
003E00
003C00
007800
00F800
00F000
01E000
03E000
07C000
078000
0F8000
0F0000
1E0000
3EFF80
3DFFE0
7BFFF0
7F81F8
7E00FC
FC003E
F8003E
F8001E
F0001E
F0001F
F0000F
F0000F
F0001F
F0001E
F8001E
78003E
7C007C
3E00FC
1F83F8
0FFFF0
07FFE0
01FF80
ENDCHAR
STARTCHAR 0037
ENCODING 55
SWIDTH 500 0
DWIDTH 25 0
BBX 23 35 1 0
BITMAP
FFFFFE
FFFFFE
FFFFFE
FFFFFE
00003C
00003C
00007C
000078
0000F8
0000F0
0001F0
0001E0
0001E0
0003E0
0003C0
0007C0
000780
000F80
000F00
001F00
001F00
001E00
003E00
003C00
007C00
007800
00F800
00F800
01F000
01F000
01E000
03E000
03C000
07C000
078000
ENDCHAR
STARTCHAR 0038
ENCODING 56
SWIDTH 600 0
DWIDTH 30 0
BBX 25 37 3 -1
BITMAP
003C0000
01FFC000
07FFF000
0FFFF800
1F80FC00
3E007C00
3E003E00
3C001E00
7C001E00
78001F00
78001F00
78001E00
3C001E00
3C001E00
3E003C00
1F80FC00
0FFFF800
03FFE000
0FFFF000
1F80FC00
3E003E00
7C001E00
78000F00
F8000F00
F0000F80
F0000780
F0000780
F0000F80
F8000F80
F8000F00
7C001F00
7E003F00
3F81FE00
1FFFFC00
0FFFF800
03FFE000
00080000
ENDCHAR
STARTCHAR 0039
ENCODING 57
SWIDTH 580 0
DWIDTH 29 0
BBX 24 36 3 0
BITMAP
003C00
03FF80
0FFFE0
1FFFF0
3F81F8
7E007C
7C003C
78003E
F8001E
F0001E
F0001F
F0001F
F0001F
F0001F
F0001F
F8001E
78003E
7C007E
3E00FE
3F83FC
1FFFFC
07FFF8
03FE78
0000F0
0001F0
0001E0
0003E0
0007C0
000780
000F80
001F00
001E00
003E00
007C00
007800
00F800
ENDCHAR
STARTCHAR 003A
ENCODING 58
SWIDTH 280 0
DWIDTH 14 0
BBX 5 26 4 0
BITMAP
70
F8
F8
F8
F8
20
00
00
00
00
00
00
00
00
00
00
00
00
00
00
00
F8
F8
F8
F8
F8
ENDCHAR
STARTCHAR 003B
ENCODING 59
SWIDTH 300 0
DWIDTH 15 0
BBX 7 34 4 -8
BITMAP
38
7C
FC
7C
7C
30
00
00
00
00
00
00
00
00
00
00
00
00
00
00
00
7C
7E
FE
FE
7E
0E
0E
06
0E
0C
18
70
60
ENDCHAR
STARTCHAR 003C
ENCODING 60
SWIDTH 560 0
DWIDTH 28 0
BBX 18 22 5 5
BITMAP
0000C0
0003C0
000FC0
003FC0
007F00
01FC00
07F000
1FC000
7F0000
FC0000
F80000
FC0000
7F0000
1FC000
0FF000
03FC00
00FF00
003FC0
000FC0
0003C0
0000C0
000040
ENDCHAR
STARTCHAR 003D
ENCODING 61
SWIDTH 700 0
DWIDTH 35 0
BBX 24 15 6 8
BITMAP
FFFFFF
FFFFFF
FFFFFF
FFFFFF
000000
000000
000000
000000
000000
000000
000000
FFFFFF
FFFFFF
FFFFFF
FFFFFF
ENDCHAR
STARTCHAR 003E
ENCODING 62
SWIDTH 560 0
DWIDTH 28 0
BBX 18 22 5 5
BITMAP
C00000
F00000
FC0000
FF0000
3FC000
0FF000
03F800
00FE00
003F80
000FC0
0003C0
000FC0
003FC0
00FF00
01FC00
07F000
1FC000
7F0000
FC0000
F80000
E00000
800000
ENDCHAR
STARTCHAR 003F
ENCODING 63
SWIDTH 560 0
DWIDTH 28 0
BBX 23 36 3 0
BITMAP
007E00
03FFC0
0FFFE0
1FFFF0
3FC7F8
7E00FC
7C007C
78003E
F8003E
F8001E
F0001E
F0001E
00003E
00003C
00007C
000078
0000F8
0001F0
0003E0
0007C0
000F80
001F00
003E00
003C00
007C00
007800
007800
000000
000000
000000
000000
007800
007C00
00FC00
00FC00
007800
ENDCHAR
STARTCHAR 0040
ENCODING 64
SWIDTH 1000 0
DWIDTH 50 0
BBX 44 44 3 -8
BITMAP
000002000000
0001FFFC0000
000FFFFF0000
001FFFFFC000
007F800FF000
00FC0001F800
01F000007C00
03C000003E00
078000001F00
0F0000000F80
1F0000000780
1E00000003C0
3C007E3C01C0
3C01FFBC01E0
3803FFFC00E0
7807C1FC00E0
7807807C00F0
700F007C00F0
700F003C0070
700F003C0070
700E003C0070
F00E003C0070
F00E003C0070
700E003C0070
700E003C00F0
700F003C00E0
700F007C00E0
7807807E01E0
7807C0EE03C0
7803F7CF8F80
3C01FF87FF00
3C00FF03FC00
1E0018006000
1E0000000000
0F0000000000
0F8000000000
07C000000000
03E000000000
01F800000000
00FE00000000
007FE0000000
001FFFFFF000
0007FFFFF000
0000FFFFF000
ENDCHAR
STARTCHAR 0041
ENCODING 65
SWIDTH 680 0
DWIDTH 34 0
BBX 30 35 2 0
BITMAP
00078000
000FC000
000FC000
000FC000
001FE000
001FE000
003FF000
003CF000
003CF000
00787800
00787800
00787800
00F03C00
00F03C00
01F03E00
01E01E00
01E01E00
03E01F00
03C00F00
03C00F00
07800780
07FFFF80
0FFFFFC0
0FFFFFC0
0FFFFFC0
1F0003E0
1E0001E0
1E0001E0
3E0000F0
3C0000F0
7C0000F8
78000078
78000078
F800007C
F000003C
ENDCHAR
STARTCHAR 0042
ENCODING 66
SWIDTH 620 0
DWIDTH 31 0
BBX 25 35 4 0
BITMAP
FFFF8000
FFFFF000
FFFFF800
FFFFFC00
F0007E00
F0003E00
F0001E00
F0001E00
F0001F00
F0001F00
F0001E00
F0001E00
F0001E00
F0003C00
F000F800
FFFFF000
FFFFC000
FFFFF000
FFFFFC00
F0003E00
F0001F00
F0000F80
F0000780
F0000780
F0000780
F0000780
F0000780
F0000780
F0000F80
F0001F00
F0003F00
FFFFFE00
FFFFFC00
FFFFF800
FFFFC000
ENDCHAR
STARTCHAR 0043
ENCODING 67
SWIDTH 700 0
DWIDTH 35 0
BBX 30 36 3 0
BITMAP
0007E000
007FFC00
01FFFF00
03FFFF80
07F83FC0
0FC007E0
1F8003F0
3F0001F0
3E0000F8
7C000078
7C00007C
7800003C
F800003C
F8000000
F8000000
F0000000
F0000000
F0000000
F0000000
F0000000
F0000000
F0000000
F8000000
F8000000
F8000000
7800003C
7C00007C
3C000078
3E0000F8
1F0001F0
1F8003F0
0FE00FE0
07FFFFC0
03FFFF80
00FFFE00
003FF800
ENDCHAR
STARTCHAR 0044
ENCODING 68
SWIDTH 680 0
DWIDTH 34 0
BBX 28 35 4 0
BITMAP
FFFF8000
FFFFF000
FFFFF800
FFFFFE00
F000FF00
F0003F80
F0001F80
F00007C0
F00007C0
F00003E0
F00003E0
F00001E0
F00001F0
F00001F0
F00001F0
F00000F0
F00000F0
F00000F0
F00000F0
F00001F0
F00001F0
F00001F0
F00001F0
F00001E0
F00003E0
F00003E0
F00007C0
F0000FC0
F0001F80
F0003F80
F000FF00
FFFFFE00
FFFFF800
FFFFF000
FFFF8000
ENDCHAR
STARTCHAR 0045
ENCODING 69
SWIDTH 560 0
DWIDTH 28 0
BBX 21 35 4 0
BITMAP
FFFFF8
FFFFF8
FFFFF8
FFFFF8
F00000
F00000
F00000
F00000
F00000
F00000
F00000
F00000
F00000
F00000
F00000
FFFFE0
FFFFE0
FFFFE0
FFFFE0
F00000
F00000
F00000
F00000
F00000
F00000
F00000
F00000
F00000
F00000
F00000
F00000
FFFFF8
FFFFF8
FFFFF8
FFFFF8
ENDCHAR
STARTCHAR 0046
ENCODING 70
SWIDTH 500 0
DWIDTH 25 0
BBX 21 35 4 0
BITMAP
FFFFF8
FFFFF8
FFFFF8
FFFFF8
F00000
F00000
F00000
F00000
F00000
F00000
F00000
F00000
F00000
F00000
F00000
FFFFE0
FFFFE0
FFFFE0
FFFFE0
F00000
F00000
F00000
F00000
F00000
F00000
F00000
F00000
F00000
F00000
F00000
F00000
F00000
F00000
F00000
F00000
ENDCHAR
STARTCHAR 0047
ENCODING 71
SWIDTH 700 0
DWIDTH 35 0
BBX 30 36 3 0
BITMAP
000FC000
007FFC00
01FFFE00
03FFFF80
07F07FC0
0FC007E0
1F0003E0
3E0001F0
3E0000F8
7C0000F8
78000078
78000000
F8000000
F8000000
F0000000
F0000000
F0000000
F0000000
F000FFFC
F000FFFC
F000FFFC
F000003C
F000003C
F800003C
F800007C
7800007C
7C00007C
7C0000FC
3E0000FC
3F0001FC
1F8003FC
0FC007BC
07F87F3C
03FFFE3C
01FFFC3C
003FF03C
ENDCHAR
STARTCHAR 0048
ENCODING 72
SWIDTH 660 0
DWIDTH 33 0
BBX 26 35 4 0
BITMAP
F00003C0
F00003C0
F00003C0
F00003C0
F00003C0
F00003C0
F00003C0
F00003C0
F00003C0
F00003C0
F00003C0
F00003C0
F00003C0
F00003C0
F00003C0
F00003C0
FFFFFFC0
FFFFFFC0
FFFFFFC0
F00003C0
F00003C0
F00003C0
F00003C0
F00003C0
F00003C0
F00003C0
F00003C0
F00003C0
F00003C0
F00003C0
F00003C0
F00003C0
F00003C0
F00003C0
F00003C0
ENDCHAR
STARTCHAR 0049
ENCODING 73
SWIDTH 240 0
DWIDTH 12 0
BBX 4 35 4 0
BITMAP
F0
F0
F0
F0
F0
F0
F0
F0
F0
F0
F0
F0
F0
F0
F0
F0
F0
F0
F0
F0
F0
F0
F0
F0
F0
F0
F0
F0
F0
F0
F0
F0
F0
F0
F0
ENDCHAR
STARTCHAR 004A
ENCODING 74
SWIDTH 340 0
DWIDTH 17 0
BBX 11 35 2 0
BITMAP
01E0
01E0
01E0
01E0
01E0
01E0
01E0
01E0
01E0
01E0
01E0
01E0
01E0
01E0
01E0
01E0
01E0
01E0
01E0
01E0
01E0
01E0
01E0
01E0
01E0
01E0
01E0
01E0
01E0
01E0
03E0
07C0
FFC0
FF80
FF00
ENDCHAR
STARTCHAR 004B
ENCODING 75
SWIDTH 620 0
DWIDTH 31 0
BBX 24 35 4 0
BITMAP
F0003E
F0007C
F000F8
F001F0
F003E0
F007C0
F00F80
F01F00
F03F00
F03E00
F07C00
F0F800
F1F000
F3E000
F7C000
FFC000
FFE000
FFE000
FFF000
FCF800
F87C00
F07C00
F03E00
F01F00
F00F80
F00F80
F007C0
F003E0
F001F0
F001F0
F000F8
F0007C
F0007E
F0003E
F0001F
ENDCHAR
STARTCHAR 004C
ENCODING 76
SWIDTH 520 0
DWIDTH 26 0
BBX 20 35 4 0
BITMAP
F00000
F00000
F00000
F00000
F00000
F00000
F00000
F00000
F00000
F00000
F00000
F00000
F00000
F00000
F00000
F00000
F00000
F00000
F00000
F00000
F00000
F00000
F00000
F00000
F00000
F00000
F00000
F00000
F00000
F00000
F00000
FFFFF0
FFFFF0
FFFFF0
FFFFF0
ENDCHAR
STARTCHAR 004D
ENCODING 77
SWIDTH 820 0
DWIDTH 41 0
BBX 33 35 4 0
BITMAP
FC00001F80
FE00003F80
FE00003F80
FE00003F80
FF00007F80
FF00007F80
FF80007F80
F78000FF80
F78000F780
F7C001F780
F3C001E780
F3E001E780
F3E003E780
F1E003C780
F1F007C780
F0F007C780
F0F0078780
F0F80F8780
F0780F0780
F07C1F0780
F07C1F0780
F03C1E0780
F03E3E0780
F01E3E0780
F01F3C0780
F01F7C0780
F00F780780
F00FF80780
F007F80780
F007F00780
F007F00780
F003E00780
F003E00780
F003E00780
F001C00780
ENDCHAR
STARTCHAR 004E
ENCODING 78
SWIDTH 700 0
DWIDTH 35 0
BBX 28 35 4 0
BITMAP
F80000F0
FC0000F0
FC0000F0
FE0000F0
FF0000F0
FF0000F0
FF8000F0
FFC000F0
F7C000F0
F3E000F0
F3F000F0
F1F000F0
F0F800F0
F0FC00F0
F07C00F0
F03E00F0
F03F00F0
F01F00F0
F00F80F0
F00FC0F0
F007C0F0
F003E0F0
F003F0F0
F001F0F0
F000F8F0
F000FCF0
F0007CF0
F0003EF0
F0001FF0
F0001FF0
F0000FF0
F00007F0
F00007F0
F00003F0
F00001F0
ENDCHAR
STARTCHAR 004F
ENCODING 79
SWIDTH 720 0
DWIDTH 36 0
BBX 31 36 3 0
BITMAP
000FC000
007FFC00
01FFFF00
03FFFF80
07F87FC0
0FC007E0
1F8003F0
3F0001F0
3E0000F8
7C0000F8
7C00007C
F800007C
F800003C
F800003E
F000003E
F000003E
F000001E
F000001E
F000001E
F000001E
F000003E
F000003E
F000003E
F800003E
F800003C
7800007C
7C00007C
7C0000F8
3E0000F8
3F0001F0
1F8007F0
0FE00FE0
07FFFFC0
03FFFF80
00FFFE00
003FF800
ENDCHAR
STARTCHAR 0050
ENCODING 80
SWIDTH 580 0
DWIDTH 29 0
BBX 24 35 4 0
BITMAP
FFFF00
FFFFC0
FFFFF0
FFFFF8
F001FC
F0007C
F0003E
F0001E
F0001E
F0001F
F0001F
F0000F
F0001F
F0001F
F0001E
F0001E
F0003E
F0007C
F001FC
FFFFF8
FFFFF0
FFFFC0
FFFE00
F00000
F00000
F00000
F00000
F00000
F00000
F00000
F00000
F00000
F00000
F00000
F00000
ENDCHAR
STARTCHAR 0051
ENCODING 81
SWIDTH 720 0
DWIDTH 36 0
BBX 31 39 3 -3
BITMAP
000FC000
007FFC00
01FFFF00
03FFFF80
07F87FC0
0FC007E0
1F8003F0
3F0001F0
3E0000F8
7C0000F8
7C00007C
F800007C
F800003C
F800003E
F000003E
F000003E
F000001E
F000001E
F000001E
F000001E
F000003E
F000003E
F000003E
F803C03E
F801E03C
7800F07C
7C00F07C
7C0078F8
3E003CF8
3F001FF0
1F801FF0
0FE00FE0
07FFFFC0
03FFFFC0
00FFFFE0
003FF9F0
000000F0
00000078
0000003C
ENDCHAR
STARTCHAR 0052
ENCODING 82
SWIDTH 600 0
DWIDTH 30 0
BBX 24 35 4 0
BITMAP
FFFF00
FFFFE0
FFFFF0
FFFFF8
F001FC
F0007E
F0003E
F0001E
F0001F
F0001F
F0000F
F0001F
F0001F
F0001E
F0003E
F0007E
F000FC
FFFFF8
FFFFF0
FFFFE0
FFFF00
F01E00
F01F00
F00F80
F00780
F007C0
F003E0
F003E0
F001F0
F000F0
F000F8
F0007C
F0003C
F0003E
F0001F
ENDCHAR
STARTCHAR 0053
ENCODING 83
SWIDTH 580 0
DWIDTH 29 0
BBX 25 36 3 0
BITMAP
007C0000
03FFC000
0FFFF000
1FFFF800
3F81FC00
3E007C00
7C003E00
78003E00
78001F00
F8001F00
F8001F00
78000000
78000000
7C000000
7E000000
3FC00000
1FFE0000
0FFFC000
03FFF000
007FFC00
0001FE00
00007E00
00001F00
00001F00
00000F00
F0000F80
F8000F80
F8000F00
F8000F00
7C001F00
7E003F00
3F007E00
1FFFFC00
0FFFF800
07FFF000
01FFC000
ENDCHAR
STARTCHAR 0054
ENCODING 84
SWIDTH 580 0
DWIDTH 29 0
BBX 25 35 2 0
BITMAP
FFFFFF80
FFFFFF80
FFFFFF80
FFFFFF80
001E0000
001E0000
001E0000
001E0000
001E0000
001E0000
001E0000
001E0000
001E0000
001E0000
001E0000
001E0000
001E0000
001E0000
001E0000
001E0000
001E0000
001E0000
001E0000
001E0000
001E0000
001E0000
001E0000
001E0000
001E0000
001E0000
001E0000
001E0000
001E0000
001E0000
001E0000
ENDCHAR
STARTCHAR 0055
ENCODING 85
SWIDTH 680 0
DWIDTH 34 0
BBX 28 35 3 0
BITMAP
F80000F0
F80000F0
F80000F0
F80000F0
F80000F0
F80000F0
F80000F0
F80000F0
F80000F0
F80000F0
F80000F0
F80000F0
F80000F0
F80000F0
F80000F0
F80000F0
F80000F0
F80000F0
F80000F0
F80000F0
F80000F0
F80000F0
F80001F0
780001F0
780001E0
7C0001E0
7C0003E0
3C0003E0
3E0007C0
1F000FC0
1FC01F80
0FFFFF00
07FFFE00
03FFFC00
00FFF000
ENDCHAR
STARTCHAR 0056
ENCODING 86
SWIDTH 620 0
DWIDTH 31 0
BBX 30 35 1 0
BITMAP
F000007C
F8000078
78000078
780000F8
7C0000F0
3C0000F0
3C0001F0
3E0001E0
1E0001E0
1E0003E0
1F0003C0
0F0003C0
0F0007C0
0F800780
07800780
07800F80
07C00F00
03C00F00
03E01F00
03E01E00
01E03E00
01F03E00
00F03C00
00F07C00
00F87800
00787800
0078F800
007CF000
003CF000
003DF000
003FE000
001FE000
001FE000
001FC000
000FC000
ENDCHAR
STARTCHAR 0057
ENCODING 87
SWIDTH 980 0
DWIDTH 49 0
BBX 48 35 1 0
BITMAP
F00003C0001F
F00007C0001F
F80007E0001E
780007E0001E
78000FE0003E
78000FF0003C
7C000FF0003C
3C001FF0003C
3C001EF8007C
3E001E780078
1E003E780078
1E003C7C0078
1E003C3C00F8
1F007C3C00F0
0F00783C00F0
0F00781E00F0
0F00F81E01E0
0F80F01E01E0
0780F01F01E0
0781F00F03E0
0781E00F03C0
07C1E00F83C0
03C1E00783C0
03C3E00787C0
03C3C007C780
01E3C003C780
01E7C003C780
01E78003EF80
01E78001EF00
00FF8001EF00
00FF0001FF00
00FF0000FE00
00FF0000FE00
007E0000FE00
007E00007E00
ENDCHAR
STARTCHAR 0058
ENCODING 88
SWIDTH 640 0
DWIDTH 32 0
BBX 29 35 2 0
BITMAP
F80000F8
7C0001F0
3C0001E0
3E0003E0
1F0007C0
0F000780
0F800F80
07C01F00
03C01E00
03E03E00
01F07C00
00F07800
00F8F800
007DF000
003FE000
003FE000
001FC000
000F8000
001FC000
003FE000
003FE000
007DF000
00F8F800
00F07800
01F07C00
03E03E00
03C01E00
07C01F00
0F800F80
0F800780
1F0007C0
3E0003E0
3E0001E0
7C0001F0
F80000F8
ENDCHAR
STARTCHAR 0059
ENCODING 89
SWIDTH 600 0
DWIDTH 30 0
BBX 27 35 2 0
BITMAP
F80003E0
F80007C0
7C0007C0
7C000F80
3E000F80
3E001F00
1F001F00
0F003E00
0F803E00
07807C00
07C07800
03C0F800
03E0F000
01E1F000
01F1E000
00F3E000
00FBC000
007FC000
007F8000
003F8000
003F0000
001F0000
001E0000
001E0000
001E0000
001E0000
001E0000
001E0000
001E0000
001E0000
001E0000
001E0000
001E0000
001E0000
001E0000
ENDCHAR
STARTCHAR 005A
ENCODING 90
SWIDTH 600 0
DWIDTH 30 0
BBX 24 35 3 0
BITMAP
FFFFFF
FFFFFF
FFFFFF
FFFFFF
00001F
00003E
00007E
00007C
0000F8
0001F0
0003F0
0003E0
0007C0
000F80
000F80
001F00
003E00
007E00
007C00
00F800
01F000
03F000
03E000
07C000
0FC000
0F8000
1F0000
3E0000
7E0000
7C0000
F80000
FFFFFF
FFFFFF
FFFFFF
FFFFFF
ENDCHAR
STARTCHAR 005B
ENCODING 91
SWIDTH 440 0
DWIDTH 22 0
BBX 14 50 4 -9
BITMAP
FFFC
FFFC
FFFC
FFFC
F000
F000
F000
F000
F000
F000
F000
F000
F000
F000
F000
F000
F000
F000
F000
F000
F000
F000
F000
F000
F000
F000
F000
F000
F000
F000
F000
F000
F000
F000
F000
F000
F000
F000
F000
F000
F000
F000
F000
F000
F000
F000
F000
FFFC
FFFC
FFFC
ENDCHAR
STARTCHAR 005C
ENCODING 92
SWIDTH 500 0
DWIDTH 25 0
BBX 21 48 2 -8
BITMAP
F00000
F00000
F00000
780000
780000
7C0000
3C0000
3C0000
3E0000
1E0000
1E0000
0F0000
0F0000
0F0000
078000
078000
07C000
03C000
03C000
03E000
01E000
01E000
01F000
00F000
00F000
007800
007800
007800
003C00
003C00
003E00
001E00
001E00
001F00
000F00
000F00
000780
000780
000780
0003C0
0003C0
0003E0
0001E0
0001E0
0001F0
0000F0
0000F0
000078
ENDCHAR
STARTCHAR 005D
ENCODING 93
SWIDTH 420 0
DWIDTH 21 0
BBX 14 50 4 -9
BITMAP
FFFC
FFFC
FFFC
FFFC
003C
003C
003C
003C
003C
003C
003C
003C
003C
003C
003C
003C
003C
003C
003C
003C
003C
003C
003C
003C
003C
003C
003C
003C
003C
003C
003C
003C
003C
003C
003C
003C
003C
003C
003C
003C
003C
003C
003C
003C
003C
003C
003C
FFFC
FFFC
FFFC
ENDCHAR
STARTCHAR 005E
ENCODING 94
SWIDTH 400 0
DWIDTH 20 0
BBX 17 10 2 28
BITMAP
03E000
07F000
0FF000
0F7800
1E3C00
3C3E00
7C1E00
780F00
F00780
E00780
ENDCHAR
STARTCHAR 005F
ENCODING 95
SWIDTH 700 0
DWIDTH 35 0
BBX 24 4 6 0
BITMAP
FFFFFF
FFFFFF
FFFFFF
FFFFFF
ENDCHAR
STARTCHAR 0060
ENCODING 96
SWIDTH 240 0
DWIDTH 12 0
BBX 9 9 2 31
BITMAP
F000
7800
7800
3C00
1E00
1E00
0F00
0700
0780
ENDCHAR
STARTCHAR 0061
ENCODING 97
SWIDTH 620 0
DWIDTH 31 0
BBX 25 27 2 0
BITMAP
00FE0000
03FF8780
07FFC780
0FFFE780
1F80F780
3F003780
3E001F80
7C001F80
7C000F80
78000F80
78000F80
F8000780
F8000780
F8000780
F8000780
F8000780
78000F80
78000F80
7C000F80
7C001F80
3E001F80
3E003F80
1F807780
1FE3E780
0FFFC780
07FF8780
01FF0780
ENDCHAR
STARTCHAR 0062
ENCODING 98
SWIDTH 600 0
DWIDTH 30 0
BBX 24 38 4 0
BITMAP
F00000
F00000
F00000
F00000
F00000
F00000
F00000
F00000
F00000
F00000
F00000
F03F80
F0FFE0
F1FFF0
F3FFF8
F700FC
FE007E
FC003E
FC001F
F8001F
F8001F
F0000F
F0000F
F0000F
F0000F
F0000F
F0000F
F0000F
F8000F
F8001F
F8001F
FC003E
FE007E
F700FC
F3E3FC
F3FFF8
F0FFE0
F07FC0
ENDCHAR
STARTCHAR 0063
ENCODING 99
SWIDTH 560 0
DWIDTH 28 0
BBX 23 27 3 0
BITMAP
00FF00
03FFC0
0FFFF0
1FFFF8
3F00F8
3E007C
7C003C
78001E
F8001E
F0001E
F00000
F00000
F00000
F00000
F00000
F00000
F00000
F0001E
F8001E
78001E
7C003E
7E007C
3F00FC
1FC7F8
0FFFF0
07FFE0
01FF80
ENDCHAR
STARTCHAR 0064
ENCODING 100
SWIDTH 600 0
DWIDTH 30 0
BBX 25 38 2 0
BITMAP
00000780
00000780
00000780
00000780
00000780
00000780
00000780
00000780
00000780
00000780
00000780
00FE0780
03FF8780
07FFC780
0FFFE780
1F80F780
3F003780
3E001F80
7C001F80
7C000F80
78000F80
78000F80
78000780
F8000780
F8000780
F8000780
78000780
78000780
78000F80
7C000F80
7C001F80
3E001F80
3E003F80
1F807780
1FE3E780
0FFFC780
07FF8780
01FF0780
ENDCHAR
STARTCHAR 0065
ENCODING 101
SWIDTH 580 0
DWIDTH 29 0
BBX 24 27 3 0
BITMAP
00FF00
03FFC0
0FFFE0
1FC7F0
3F00F8
3C007C
7C003C
78003E
F8001E
F0001E
F0001E
F0001E
FFFFFF
FFFFFF
FFFFFF
F00000
F00000
F00000
F00000
78001E
7C003E
7C007C
3F00FC
1FC3F8
0FFFF0
07FFE0
01FF80
ENDCHAR
STARTCHAR 0066
ENCODING 102
SWIDTH 360 0
DWIDTH 18 0
BBX 15 37 2 0
BITMAP
00FE
03FE
07FE
07C2
0F80
0F00
0F00
0F00
0F00
0F00
0F00
FFFE
FFFE
FFFE
0F00
0F00
0F00
0F00
0F00
0F00
0F00
0F00
0F00
0F00
0F00
0F00
0F00
0F00
0F00
0F00
0F00
0F00
0F00
0F00
0F00
0F00
0F00
ENDCHAR
STARTCHAR 0067
ENCODING 103
SWIDTH 620 0
DWIDTH 31 0
BBX 24 38 3 -11
BITMAP
01FC00
07FF0F
0FFF8F
1FFFCF
3F00EF
7E007F
7C003F
F8001F
F8001F
F8001F
F0000F
F0000F
F0000F
F0000F
F0000F
F0000F
F8001F
F8001F
F8001F
7C003F
7E007F
3F00EF
3FC3EF
1FFFCF
0FFF8F
03FE0F
00200F
00000F
00000F
00001F
00001E
00003E
00007E
00C3FC
00FFF8
00FFF0
00FFC0
000800
ENDCHAR
STARTCHAR 0068
ENCODING 104
SWIDTH 600 0
DWIDTH 30 0
BBX 23 37 4 0
BITMAP
F00000
F00000
F00000
F00000
F00000
F00000
F00000
F00000
F00000
F00000
F03F80
F0FFE0
F3FFF0
F3FFF8
F701FC
FE00FC
FC007C
F8003E
F8003E
F0001E
F0001E
F0001E
F0001E
F0001E
F0001E
F0001E
F0001E
F0001E
F0001E
F0001E
F0001E
F0001E
F0001E
F0001E
F0001E
F0001E
F0001E
ENDCHAR
STARTCHAR 0069
ENCODING 105
SWIDTH 240 0
DWIDTH 12 0
BBX 6 37 3 0
BITMAP
38
7C
FC
FC
7C
30
00
00
00
00
00
78
78
78
78
78
78
78
78
78
78
78
78
78
78
78
78
78
78
78
78
78
78
78
78
78
78
ENDCHAR
STARTCHAR 006A
ENCODING 106
SWIDTH 240 0
DWIDTH 12 0
BBX 11 48 -2 -11
BITMAP
01C0
03E0
03E0
03E0
03E0
01C0
0000
0000
0000
0000
03E0
03E0
03E0
03E0
03E0
03E0
03E0
03E0
03E0
03E0
03E0
03E0
03E0
03E0
03E0
03E0
03E0
03E0
03E0
03E0
03E0
03E0
03E0
03E0
03E0
03E0
03E0
03E0
03E0
03E0
03E0
03E0
03E0
03C0
8FC0
FFC0
FF80
FE00
ENDCHAR
STARTCHAR 006B
ENCODING 107
SWIDTH 500 0
DWIDTH 25 0
BBX 19 37 4 0
BITMAP
F00000
F00000
F00000
F00000
F00000
F00000
F00000
F00000
F00000
F00000
F00000
F003E0
F007C0
F00F80
F01F00
F03E00
F07C00
F0F800
F1F000
F3E000
F7C000
FF8000
FF0000
FF8000
F78000
F3C000
F3E000
F1F000
F0F800
F07C00
F03C00
F03E00
F01F00
F00F80
F007C0
F003E0
F003E0
ENDCHAR
STARTCHAR 006C
ENCODING 108
SWIDTH 300 0
DWIDTH 15 0
BBX 10 38 4 0
BITMAP
F000
F000
F000
F000
F000
F000
F000
F000
F000
F000
F000
F000
F000
F000
F000
F000
F000
F000
F000
F000
F000
F000
F000
F000
F000
F000
F000
F000
F000
F000
F000
F000
F000
F800
F800
7FC0
7FC0
1FC0
ENDCHAR
STARTCHAR 006D
ENCODING 109
SWIDTH 940 0
DWIDTH 47 0
BBX 41 27 4 0
BITMAP
007F001FC000
F0FFC07FF000
F3FFE0FFF800
F3FFF1FFFC00
F703F9C0FE00
FE00FB803E00
FC007F001F00
F8007E001F00
F0003E000F00
F0003C000F00
F0003C000F00
F0003C000F80
F0003C000F80
F0003C000F80
F0003C000F80
F0003C000F80
F0003C000F80
F0003C000F80
F0003C000F80
F0003C000F80
F0003C000F80
F0003C000F80
F0003C000F80
F0003C000F80
F0003C000F80
F0003C000F80
F0003C000F80
ENDCHAR
STARTCHAR 006E
ENCODING 110
SWIDTH 600 0
DWIDTH 30 0
BBX 23 27 4 0
BITMAP
003F80
F0FFE0
F3FFF0
F3FFF8
F701FC
FE00FC
FC007C
F8003E
F8003E
F0001E
F0001E
F0001E
F0001E
F0001E
F0001E
F0001E
F0001E
F0001E
F0001E
F0001E
F0001E
F0001E
F0001E
F0001E
F0001E
F0001E
F0001E
ENDCHAR
STARTCHAR 006F
ENCODING 111
SWIDTH 580 0
DWIDTH 29 0
BBX 24 27 3 0
BITMAP
00FF00
03FFC0
0FFFE0
1FFFF8
3F00F8
3E007C
7C003E
78003E
F8001E
F0001F
F0000F
F0000F
F0000F
F0000F
F0000F
F0000F
F0000F
F0001F
F8001E
78001E
7C003E
7E007C
3F00FC
1FC7F8
0FFFF0
07FFE0
01FF80
ENDCHAR
STARTCHAR 0070
ENCODING 112
SWIDTH 620 0
DWIDTH 31 0
BBX 24 37 4 -10
BITMAP
003F80
F0FFE0
F1FFF0
F3FFF8
F700FC
FE007E
FC003E
FC001F
F8001F
F8001F
F0000F
F0000F
F0000F
F0000F
F0000F
F0000F
F0000F
F8000F
F8001F
F8001F
FC003E
FE007E
F700FC
F3E3FC
F3FFF8
F0FFE0
F07FC0
F00000
F00000
F00000
F00000
F00000
F00000
F00000
F00000
F00000
F00000
ENDCHAR
STARTCHAR 0071
ENCODING 113
SWIDTH 620 0
DWIDTH 31 0
BBX 24 37 3 -10
BITMAP
01FC00
07FF0F
0FFF8F
1FFFCF
3F00EF
7E007F
7C003F
78003F
F8001F
F8001F
F0000F
F0000F
F0000F
F0000F
F0000F
F0000F
F0000F
F8001F
F8001F
F8001F
7C003F
7E007F
3F00EF
1FC3EF
1FFFCF
07FF8F
03FE0F
00000F
00000F
00000F
00000F
00000F
00000F
00000F
00000F
00000F
00000F
ENDCHAR
STARTCHAR 0072
ENCODING 114
SWIDTH 340 0
DWIDTH 17 0
BBX 13 26 4 0
BITMAP
F1F8
F3F8
F7F8
FFF8
FE00
FC00
F800
F000
F000
F000
F000
F000
F000
F000
F000
F000
F000
F000
F000
F000
F000
F000
F000
F000
F000
F000
ENDCHAR
STARTCHAR 0073
ENCODING 115
SWIDTH 480 0
DWIDTH 24 0
BBX 21 27 2 0
BITMAP
01FC00
0FFF00
1FFFC0
3F8FE0
3C03E0
7C01F0
7801F0
7800F0
780000
7C0000
3E0000
3FC000
1FFE00
0FFF80
01FFE0
000FF0
0001F0
0000F0
F800F8
F800F8
7800F8
7C00F0
7E01F0
3F87E0
1FFFE0
0FFF80
03FE00
ENDCHAR
STARTCHAR 0074
ENCODING 116
SWIDTH 380 0
DWIDTH 19 0
BBX 15 35 2 0
BITMAP
0F80
0F80
0F80
0F80
0F80
0F80
0F80
0F80
0F80
FFFE
FFFE
FFFE
0F80
0F80
0F80
0F80
0F80
0F80
0F80
0F80
0F80
0F80
0F80
0F80
0F80
0F80
0F80
0F80
0F80
0780
0780
07C0
07FE
03FE
01FE
ENDCHAR
STARTCHAR 0075
ENCODING 117
SWIDTH 600 0
DWIDTH 30 0
BBX 23 26 4 0
BITMAP
F0003E
F0003E
F0003E
F0003E
F0003E
F0003E
F0003E
F0003E
F0003E
F0003E
F0003E
F0003E
F0003E
F0003E
F0003E
F0003E
F0003E
F0003E
F8003E
F8007E
7C00FE
7E01FE
3FCFBE
3FFF3E
0FFE3E
07FC3E
ENDCHAR
STARTCHAR 0076
ENCODING 118
SWIDTH 540 0
DWIDTH 27 0
BBX 24 26 2 0
BITMAP
F0000F
F0001E
78001E
78003E
7C003C
3C003C
3C007C
3E0078
1E0078
1E00F0
0F00F0
0F00F0
0F01E0
0781E0
0783E0
07C3C0
03C3C0
03C7C0
03E780
01E780
01EF00
00FF00
00FF00
00FE00
007E00
007E00
ENDCHAR
STARTCHAR 0077
ENCODING 119
SWIDTH 800 0
DWIDTH 40 0
BBX 37 26 2 0
BITMAP
F000F80078
F000F80078
F800F800F0
7801FC00F0
7801FC00F0
7801FC00F0
3C03FE01E0
3C03DE01E0
3C03DE01E0
3C079E01E0
1E078F03C0
1E078F03C0
1E078F03C0
1E0F078780
0F0F078780
0F0F078780
0F1E03C780
079E03CF00
079E03CF00
07BC01EF00
07BC01EF00
03FC01FE00
03FC01FE00
03F800FE00
01F800FC00
01F800FC00
ENDCHAR
STARTCHAR 0078
ENCODING 120
SWIDTH 540 0
DWIDTH 27 0
BBX 23 26 2 0
BITMAP
F8003E
7C007C
3C00F8
3E00F0
1F01F0
0F03E0
0F83C0
07C7C0
03C780
03EF00
01FF00
00FE00
00FE00
00FE00
01FE00
01EF00
03EF80
07C780
0787C0
0F83E0
1F01E0
1E01F0
3E00F8
7C0078
7C007C
F8003E
ENDCHAR
STARTCHAR 0079
ENCODING 121
SWIDTH 520 0
DWIDTH 26 0
BBX 23 36 2 -10
BITMAP
F0001E
F8001E
78003E
78003C
7C007C
3C0078
3C0078
1E00F8
1E00F0
1F00F0
0F01E0
0F01E0
0F83E0
0783C0
0783C0
03C780
03C780
03C780
01EF00
01EF00
00FE00
00FE00
00FC00
007C00
007C00
007800
00F800
00F000
00F000
01F000
01E000
03E000
0FC000
FF8000
FF0000
FE0000
ENDCHAR
STARTCHAR 007A
ENCODING 122
SWIDTH 480 0
DWIDTH 24 0
BBX 20 26 3 0
BITMAP
FFFFF0
FFFFF0
FFFFF0
0001E0
0003E0
0007C0
000F80
000F00
001E00
003E00
007C00
00F800
00F000
01E000
03E000
07C000
0F8000
0F0000
1E0000
3E0000
7C0000
F80000
FFFFF0
FFFFF0
FFFFF0
FFFFF0
ENDCHAR
STARTCHAR 007B
ENCODING 123
SWIDTH 440 0
DWIDTH 22 0
BBX 15 53 5 -11
BITMAP
003E
01FE
07FE
07E0
0780
0F00
0F00
0F00
0F00
0F00
0F00
0F00
0F00
0F00
0F00
0F00
0F00
0F00
0F00
0F00
0F00
0F00
0F00
0F00
0E00
FE00
F800
FE00
0E00
0F00
0F00
0F00
0F00
0F00
0F00
0F00
0F00
0F00
0F00
0F00
0F00
0F00
0F00
0F00
0F00
0F00
0F00
0F00
0700
07C0
07FE
03FE
00FE
ENDCHAR
STARTCHAR 007C
ENCODING 124
SWIDTH 280 0
DWIDTH 14 0
BBX 4 60 5 -12
BITMAP
F0
F0
F0
F0
F0
F0
F0
F0
F0
F0
F0
F0
F0
F0
F0
F0
F0
F0
F0
F0
F0
F0
F0
F0
F0
F0
F0
F0
F0
F0
F0
F0
F0
F0
F0
F0
F0
F0
F0
F0
F0
F0
F0
F0
F0
F0
F0
F0
F0
F0
F0
F0
F0
F0
F0
F0
F0
F0
F0
F0
ENDCHAR
STARTCHAR 007D
ENCODING 125
SWIDTH 460 0
DWIDTH 23 0
BBX 15 53 6 -11
BITMAP
F800
FF80
FFC0
0FC0
01E0
01E0
01E0
01E0
01E0
01E0
01E0
01E0
01E0
01E0
01E0
01E0
01E0
01E0
01E0
01E0
01E0
01E0
01E0
01E0
00E0
00FE
003E
00FE
00E0
01E0
01E0
01E0
01E0
01E0
01E0
01E0
01E0
01E0
01E0
01E0
01E0
01E0
01E0
01E0
01E0
01E0
01E0
01E0
01E0
07C0
FFC0
FF80
FC00
ENDCHAR
STARTCHAR 007E
ENCODING 126
SWIDTH 560 0
DWIDTH 28 0
BBX 18 6 5 16
BITMAP
1F01C0
3FC1C0
7FFFC0
F1FF80
E07F00
E00800
ENDCHAR
STARTCHAR 00A0
ENCODING 160
SWIDTH 220 0
DWIDTH 11 0
BBX 0 0 0 0
BITMAP
ENDCHAR
STARTCHAR 00A1
ENCODING 161
SWIDTH 220 0
DWIDTH 11 0
BBX 6 39 3 -13
BITMAP
10
78
FC
FC
7C
38
00
00
00
00
38
38
38
38
78
78
78
78
78
78
78
78
78
78
78
78
78
78
78
78
78
78
78
78
78
78
78
78
78
ENDCHAR
STARTCHAR 00A2
ENCODING 162
SWIDTH 600 0
DWIDTH 30 0
BBX 23 33 3 -3
BITMAP
001800
001800
001800
00FF00
03FFC0
0FFFF0
1FFFF8
3F18F8
3E187C
7C183C
78181E
F8181E
F0181E
F01800
F01800
F01800
F01800
F01800
F01800
F01800
F0181E
F8181E
78181E
7C183E
7E187C
3F18FC
1FDBF8
0FFFF0
07FFE0
01FF80
001800
001800
001800
ENDCHAR
STARTCHAR 00A3
ENCODING 163
SWIDTH 580 0
DWIDTH 29 0
BBX 25 36 2 0
BITMAP
003F0000
01FFE000
07FFF000
0FFFFC00
1FC0FC00
1F007E00
3E003E00
3E001F00
3E001F00
3C001F00
3C000F00
3E000000
3E000000
3E000000
1F000000
1F800000
0F800000
07C00000
07E00000
03E00000
7FFFE000
7FFFE000
7FFFE000
00F00000
00F00000
00F00000
00F00000
01E00000
01E00000
03C00000
07800000
0F000000
FFFFFF80
FFFFFF80
FFFFFF80
FFFFFF80
ENDCHAR
STARTCHAR 00A4
ENCODING 164
SWIDTH 580 0
DWIDTH 29 0
BBX 22 24 4 6
BITMAP
400010
E02038
F3FE7C
7FFFF8
7FFFF0
3F07E0
3C01F0
7800F0
700078
F00038
E00038
E00038
E00038
E00038
F00038
F00078
780078
7C00F0
3E03E0
7FDFF0
FFFFF8
F7FF7C
E1FC3C
400010
ENDCHAR
STARTCHAR 00A5
ENCODING 165
SWIDTH 620 0
DWIDTH 31 0
BBX 27 35 2 0
BITMAP
F80003E0
F80007C0
7C0007C0
7C000F80
3E000F80
3E001F00
1F001F00
0F003E00
0F803C00
07807C00
07C07800
03C0F800
03E0F000
01E1F000
01F1E000
00F3E000
00FBC000
007FC000
007F8000
003F8000
0FFFFE00
0FFFFE00
0FFFFE00
001E0000
001E0000
001E0000
0FFFFE00
0FFFFE00
0FFFFE00
001E0000
001E0000
001E0000
001E0000
001E0000
001E0000
ENDCHAR
STARTCHAR 00A6
ENCODING 166
SWIDTH 280 0
DWIDTH 14 0
BBX 4 60 5 -12
BITMAP
F0
F0
F0
F0
F0
F0
F0
F0
F0
F0
F0
F0
F0
F0
F0
F0
F0
F0
F0
F0
F0
F0
F0
F0
F0
F0
F0
00
00
00
00
00
00
00
00
F0
F0
F0
F0
F0
F0
F0
F0
F0
F0
F0
F0
F0
F0
F0
F0
F0
F0
F0
F0
F0
F0
F0
F0
F0
ENDCHAR
STARTCHAR 00A7
ENCODING 167
SWIDTH 540 0
DWIDTH 27 0
BBX 22 36 3 0
BITMAP
007800
07FF00
1FFFC0
3FFFE0
3E03E0
7C01F0
7800F0
7800F8
780000
7C0000
3F0000
1FFC00
1FFF80
7FFFE0
FC1FF0
F001F8
F0007C
F0007C
F0003C
F8003C
FC007C
7FC07C
3FFFF8
0FFFF0
01FFC0
000FF0
0001F0
0000F8
F800F8
F800F8
7C00F8
7E01F0
3F07F0
1FFFE0
0FFFC0
03FF00
ENDCHAR
STARTCHAR 00A8
ENCODING 168
SWIDTH 360 0
DWIDTH 18 0
BBX 15 6 2 31
BITMAP
701C
F83E
F87E
F87E
F83E
7018
ENDCHAR
STARTCHAR 00A9
ENCODING 169
SWIDTH 800 0
DWIDTH 40 0
BBX 36 37 2 -1
BITMAP
0000F80000
001FFFC000
007FFFF000
00FF07F800
03F0007C00
07C0001E00
0F80000F00
1E00000780
1E03FC03C0
3C07FF01C0
381FFFC1E0
783E03C0E0
703800E0E0
707800F070
7070007070
E070006070
E0E0000070
E0E0000070
E0E0000070
E0E0000070
E0E0000070
E070007070
7070007070
707800F0F0
703C01E0E0
381E03C0E0
380FFF81E0
3C07FF01C0
1E01FC03C0
0F00000780
0F80000F00
07C0003E00
03F000FC00
00FFFFF800
007FFFE000
000FFF8000
0000600000
ENDCHAR
STARTCHAR 00AA
ENCODING 170
SWIDTH 140 0
DWIDTH 7 0
BBX 7 8 0 19
BITMAP
20
7E
E6
C6
C6
E6
7E
36
ENDCHAR
STARTCHAR 00AB
ENCODING 171
SWIDTH 620 0
DWIDTH 31 0
BBX 28 21 2 5
BITMAP
007C01E0
00F803C0
01F00780
03E00F00
07C01E00
0F803C00
1F007C00
3E00F800
3C01F000
7803E000
F803C000
7C01E000
3E00F000
1F007800
0F803C00
07C03E00
03E01F00
01E00F80
00F007C0
007803E0
003C01F0
ENDCHAR
STARTCHAR 00AC
ENCODING 172
SWIDTH 640 0
DWIDTH 32 0
BBX 25 13 4 14
BITMAP
FFFFFF80
FFFFFF80
FFFFFF80
FFFFFF80
00000780
00000780
00000780
00000780
00000780
00000780
00000780
00000780
00000780
ENDCHAR
STARTCHAR 00AD
ENCODING 173
SWIDTH 600 0
DWIDTH 30 0
BBX 18 3 6 14
BITMAP
FFFFC0
FFFFC0
FFFFC0
ENDCHAR
STARTCHAR 00AE
ENCODING 174
SWIDTH 340 0
DWIDTH 17 0
BBX 13 13 2 22
BITMAP
0F80
3DE0
6030
6F10
CC98
CC98
CF98
CD18
4D90
6030
3060
1FC0
0200
ENDCHAR
STARTCHAR 00AF
ENCODING 175
SWIDTH 360 0
DWIDTH 18 0
BBX 16 2 1 32
BITMAP
FFFF
FFFF
ENDCHAR
STARTCHAR 00B0
ENCODING 176
SWIDTH 300 0
DWIDTH 15 0
BBX 9 9 3 34
BITMAP
3E00
7F00
E380
C180
C180
C180
E380
7F00
3E00
ENDCHAR
STARTCHAR 00B1
ENCODING 177
SWIDTH 600 0
DWIDTH 30 0
BBX 20 27 5 0
BITMAP
00F000
00F000
00F000
00F000
00F000
00F000
00F000
00F000
FFFFF0
FFFFF0
FFFFF0
00F000
00F000
00F000
00F000
00F000
00F000
00F000
00F000
000000
000000
000000
000000
000000
FFFFF0
FFFFF0
FFFFF0
ENDCHAR
STARTCHAR 00B2
ENCODING 178
SWIDTH 300 0
DWIDTH 15 0
BBX 13 19 1 19
BITMAP
0F80
3FE0
3DF0
7070
7038
E038
0038
0070
0070
00E0
01C0
0380
0700
1E00
3C00
7800
FFF8
FFF8
FFF8
ENDCHAR
STARTCHAR 00B3
ENCODING 179
SWIDTH 300 0
DWIDTH 15 0
BBX 13 19 1 19
BITMAP
0FC0
3FF0
3CF0
7038
7038
0038
0038
0078
07F0
07C0
07F0
0038
0038
0018
E038
7038
7CF8
3FF0
1FE0
ENDCHAR
STARTCHAR 00B4
ENCODING 180
SWIDTH 240 0
DWIDTH 12 0
BBX 9 9 2 31
BITMAP
0F80
0F00
1E00
3E00
3C00
7800
7800
F000
E000
ENDCHAR
STARTCHAR 00B5
ENCODING 181
SWIDTH 640 0
DWIDTH 32 0
BBX 27 36 3 -10
BITMAP
F8007C00
F8007C00
F8007C00
F8007C00
F8007C00
F8007C00
F8007C00
F8007C00
F8007C00
F8007C00
F8007C00
F8007C00
F8007C00
F8007C00
F8007C00
F8007C00
F8007C00
F8007C00
F8007C00
F800FC00
FC01FC00
FC03BC00
FF0F3E00
FFFF3FE0
F7FE1FE0
FBF80FE0
F8000000
F8000000
F8000000
F8000000
F8000000
F8000000
F8000000
F8000000
F8000000
F8000000
ENDCHAR
STARTCHAR 00B6
ENCODING 182
SWIDTH 520 0
DWIDTH 26 0
BBX 22 35 1 0
BITMAP
03FFFC
0FFFFC
1FFFFC
3FFFFC
7FFF1C
7FFF1C
7FFF1C
FFFF1C
FFFF1C
FFFF1C
FFFF1C
FFFF1C
7FFF1C
7FFF1C
3FFF1C
1FFF1C
0FFF1C
03FF1C
00071C
00071C
00071C
00071C
00071C
00071C
00071C
00071C
00071C
00071C
00071C
00071C
00071C
00071C
00071C
00071C
00071C
ENDCHAR
STARTCHAR 00B7
ENCODING 183
SWIDTH 280 0
DWIDTH 14 0
BBX 6 6 4 15
BITMAP
78
FC
FC
FC
78
10
ENDCHAR
STARTCHAR 00B8
ENCODING 184
SWIDTH 240 0
DWIDTH 12 0
BBX 9 12 2 -12
BITMAP
6000
6000
E000
FE00
FF00
0700
0380
0380
0380
0700
FF00
FE00
ENDCHAR
STARTCHAR 00B9
ENCODING 185
SWIDTH 240 0
DWIDTH 12 0
BBX 11 19 1 19
BITMAP
0E00
1E00
7E00
FE00
EE00
CE00
8E00
0E00
0E00
0E00
0E00
0E00
0E00
0E00
0E00
0E00
FFE0
FFE0
FFE0
ENDCHAR
STARTCHAR 00BA
ENCODING 186
SWIDTH 160 0
DWIDTH 8 0
BBX 6 8 1 19
BITMAP
30
FC
CC
84
84
CC
FC
30
ENDCHAR
STARTCHAR 00BB
ENCODING 187
SWIDTH 620 0
DWIDTH 31 0
BBX 28 21 2 5
BITMAP
F803E000
3C01F000
1E00F800
0F007C00
0F803E00
07C01E00
03E00F00
01F00780
00F803C0
007C01E0
007C01F0
007803E0
00F007C0
01E00F80
03C01F00
07803E00
0F007C00
1E00F800
3C01F000
7C01E000
F803C000
ENDCHAR
STARTCHAR 00BC
ENCODING 188
SWIDTH 800 0
DWIDTH 40 0
BBX 37 35 2 0
BITMAP
1E00001E00
3E00003C00
7E00003C00
FE00007800
EE0000F800
CE0000F000
8E0001E000
0E0001E000
0E0003C000
0E0007C000
0E00078000
0E000F0000
0E000F0000
0E001E0000
0E003E0000
FFC03C0000
FFC0780000
FFC07803C0
0000F003C0
0001F007C0
0001E00FC0
0003C00DC0
0003C01DC0
00078019C0
00078031C0
000F0071C0
001E0061C0
001E00C1C0
003C01FFF8
003C01FFF8
007801FFF8
00F00001C0
00F00001C0
01E00001C0
01E00001C0
ENDCHAR
STARTCHAR 00BD
ENCODING 189
SWIDTH 840 0
DWIDTH 42 0
BBX 38 35 2 0
BITMAP
1E00000F00
3E00001E00
7E00001E00
FE00003C00
EE00007C00
CE00007800
8E0000F000
0E0000F000
0E0001E000
0E0003E000
0E0003C000
0E00078000
0E00078000
0E000F0000
0E001F0000
FFC01E0000
FFC03C0000
FFC03C03E0
0000780FF0
0000F81FF8
0000F01C3C
0001E03C1C
0001E0381C
0003C0001C
0003C00038
0007800038
000F000070
000F0000E0
001E0003C0
001E000780
003C000F00
0078001E00
0078003FFC
00F0003FFC
00F0003FFC
ENDCHAR
STARTCHAR 00BE
ENCODING 190
SWIDTH 840 0
DWIDTH 42 0
BBX 38 35 2 0
BITMAP
1FC0000F00
3FE0000F00
7DF0001E00
7070003E00
E070003C00
0070007800
0070007800
01E000F000
07C000F000
07E001E000
00F003C000
007003C000
0078078000
E078078000
F0700F0000
7FF01E0000
3FE01E0000
1FC03C00F0
00003C01F0
00007801F0
0000F003F0
0000F00770
0001E00670
0001E00E70
0003C00C70
0007801870
0007803870
000F003070
000F007FFC
001E007FFC
003C007FFC
003C000070
0078000070
0078000070
00F0000070
ENDCHAR
STARTCHAR 00BF
ENCODING 191
SWIDTH 560 0
DWIDTH 28 0
BBX 23 36 3 -12
BITMAP
001800
003C00
007E00
007E00
003C00
001800
000000
000000
000000
000000
003C00
003C00
007C00
007800
00F800
01F000
03E000
07C000
0F8000
1F0000
3E0000
7C0000
780000
F80000
F80000
F0001E
F0001E
F0003E
F8003E
F8007C
7C007C
7E01F8
3FFFF8
1FFFF0
0FFFC0
03FF80
ENDCHAR
STARTCHAR 00C0
ENCODING 192
SWIDTH 680 0
DWIDTH 34 0
BBX 30 48 2 0
BITMAP
01F00000
00F00000
00F80000
00780000
003C0000
003C0000
001E0000
000F0000
000F0000
00000000
00000000
00000000
00000000
00078000
000FC000
000FC000
000FC000
001FE000
001FE000
003FF000
003CF000
003CF000
00787800
00787800
00787800
00F03C00
00F03C00
01F03E00
01E01E00
01E01E00
03E01F00
03C00F00
03C00F00
07800780
07FFFF80
0FFFFFC0
0FFFFFC0
0FFFFFC0
1F0003E0
1E0001E0
1E0001E0
3E0000F0
3C0000F0
7C0000F8
78000078
78000078
F800007C
F000003C
ENDCHAR
STARTCHAR 00C1
ENCODING 193
SWIDTH 680 0
DWIDTH 34 0
BBX 30 48 2 0
BITMAP
00003E00
00003C00
00007C00
00007800
0000F000
0000F000
0001E000
0003C000
0003C000
00000000
00000000
00000000
00000000
00078000
000FC000
000FC000
000FC000
001FE000
001FE000
003FF000
003CF000
003CF000
00787800
00787800
00787800
00F03C00
00F03C00
01F03E00
01E01E00
01E01E00
03E01F00
03C00F00
03C00F00
07800780
07FFFF80
0FFFFFC0
0FFFFFC0
0FFFFFC0
1F0003E0
1E0001E0
1E0001E0
3E0000F0
3C0000F0
7C0000F8
78000078
78000078
F800007C
F000003C
ENDCHAR
STARTCHAR 00C2
ENCODING 194
SWIDTH 680 0
DWIDTH 34 0
BBX 30 46 2 0
BITMAP
00078000
000FC000
001FE000
003FF000
007CF800
00F87800
00F03C00
01E01E00
00000000
00000000
00000000
00078000
000FC000
000FC000
000FC000
001FE000
001FE000
003FF000
003CF000
003CF000
00787800
00787800
00787800
00F03C00
00F03C00
01F03E00
01E01E00
01E01E00
03E01F00
03C00F00
03C00F00
07800780
07FFFF80
0FFFFFC0
0FFFFFC0
0FFFFFC0
1F0003E0
1E0001E0
1E0001E0
3E0000F0
3C0000F0
7C0000F8
78000078
78000078
F800007C
F000003C
ENDCHAR
STARTCHAR 00C3
ENCODING 195
SWIDTH 680 0
DWIDTH 34 0
BBX 30 45 2 0
BITMAP
003C1C00
007F1C00
00FFFC00
00E3F800
00C1F000
00000000
00000000
00000000
00000000
00000000
00078000
000FC000
000FC000
000FC000
001FE000
001FE000
003FF000
003CF000
003CF000
00787800
00787800
00787800
00F03C00
00F03C00
01F03E00
01E01E00
01E01E00
03E01F00
03C00F00
03C00F00
07800780
07FFFF80
0FFFFFC0
0FFFFFC0
0FFFFFC0
1F0003E0
1E0001E0
1E0001E0
3E0000F0
3C0000F0
7C0000F8
78000078
78000078
F800007C
F000003C
ENDCHAR
STARTCHAR 00C4
ENCODING 196
SWIDTH 680 0
DWIDTH 34 0
BBX 30 45 2 1
BITMAP
00F03C00
01F87E00
01F87E00
00F87E00
00F03C00
00000000
00000000
00000000
00000000
00000000
00078000
000FC000
000FC000
000FC000
001FE000
001FE000
003FF000
003CF000
003CF000
00787800
00787800
00787800
00F03C00
00F03C00
01F03E00
01E01E00
01E01E00
03E01F00
03C00F00
03C00F00
07800780
07FFFF80
0FFFFFC0
0FFFFFC0
0FFFFFC0
1F0003E0
1E0001E0
1E0001E0
3E0000F0
3C0000F0
7C0000F8
78000078
78000078
F800007C
F000003C
ENDCHAR
STARTCHAR 00C5
ENCODING 197
SWIDTH 680 0
DWIDTH 34 0
BBX 30 48 2 0
BITMAP
00078000
000FC000
0018E000
00186000
00186000
00186000
001CE000
000FC000
00030000
00000000
00000000
00000000
00000000
00078000
000FC000
000FC000
000FC000
001FE000
001FE000
003FF000
003CF000
003CF000
00787800
00787800
00787800
00F03C00
00F03C00
01F03E00
01E01E00
01E01E00
03E01F00
03C00F00
03C00F00
07800780
07FFFF80
0FFFFFC0
0FFFFFC0
0FFFFFC0
1F0003E0
1E0001E0
1E0001E0
3E0000F0
3C0000F0
7C0000F8
78000078
78000078
F800007C
F000003C
ENDCHAR
STARTCHAR 00C6
ENCODING 198
SWIDTH 940 0
DWIDTH 47 0
BBX 44 35 1 0
BITMAP
00003FFFFFF0
00003FFFFFF0
00007FFFFFF0
00007FFFFFF0
0000FBC00000
0000FBC00000
0001F3C00000
0001F3C00000
0003E3C00000
0003E3C00000
0007C3C00000
0007C3C00000
000F83C00000
000F03C00000
001F03C00000
003E03FFFFC0
003E03FFFFC0
007C03FFFFC0
007C03FFFFC0
00F803C00000
00F803C00000
01FFFFC00000
01FFFFC00000
03FFFFC00000
03FFFFC00000
07C003C00000
078003C00000
0F8003C00000
1F0003C00000
1F0003C00000
3E0003C00000
3E0003FFFFF0
7C0003FFFFF0
7C0003FFFFF0
F80003FFFFF0
ENDCHAR
STARTCHAR 00C7
ENCODING 199
SWIDTH 700 0
DWIDTH 35 0
BBX 30 48 3 -12
BITMAP
0007E000
007FFC00
01FFFF00
03FFFF80
07F83FC0
0FC007E0
1F8003F0
3F0001F0
3E0000F8
7C000078
7C00007C
7800003C
F800003C
F8000000
F8000000
F0000000
F0000000
F0000000
F0000000
F0000000
F0000000
F0000000
F8000000
F8000000
F8000000
7800003C
7C00007C
3C000078
3E0000F8
1F0001F0
1F8003F0
0FE00FE0
07FFFFC0
03FFFF80
00FFFE00
003FF800
00038000
00038000
00030000
0007F000
0007F800
00001C00
00000C00
00000C00
00001C00
00063C00
0007F800
0007F000
ENDCHAR
STARTCHAR 00C8
ENCODING 200
SWIDTH 560 0
DWIDTH 28 0
BBX 21 48 4 0
BITMAP
1E0000
1F0000
0F0000
078000
078000
03C000
01C000
01E000
00F000
000000
000000
000000
000000
FFFFF8
FFFFF8
FFFFF8
FFFFF8
F00000
F00000
F00000
F00000
F00000
F00000
F00000
F00000
F00000
F00000
F00000
FFFFE0
FFFFE0
FFFFE0
FFFFE0
F00000
F00000
F00000
F00000
F00000
F00000
F00000
F00000
F00000
F00000
F00000
F00000
FFFFF8
FFFFF8
FFFFF8
FFFFF8
ENDCHAR
STARTCHAR 00C9
ENCODING 201
SWIDTH 560 0
DWIDTH 28 0
BBX 21 48 4 0
BITMAP
0003C0
0007C0
000780
000F00
000F00
001E00
003C00
003C00
007800
000000
000000
000000
000000
FFFFF8
FFFFF8
FFFFF8
FFFFF8
F00000
F00000
F00000
F00000
F00000
F00000
F00000
F00000
F00000
F00000
F00000
FFFFE0
FFFFE0
FFFFE0
FFFFE0
F00000
F00000
F00000
F00000
F00000
F00000
F00000
F00000
F00000
F00000
F00000
F00000
FFFFF8
FFFFF8
FFFFF8
FFFFF8
ENDCHAR
STARTCHAR 00CA
ENCODING 202
SWIDTH 560 0
DWIDTH 28 0
BBX 21 46 4 0
BITMAP
007000
00F800
01FC00
03DE00
078F00
0F0780
1E03C0
3E03E0
000000
000000
000000
FFFFF8
FFFFF8
FFFFF8
FFFFF8
F00000
F00000
F00000
F00000
F00000
F00000
F00000
F00000
F00000
F00000
F00000
FFFFE0
FFFFE0
FFFFE0
FFFFE0
F00000
F00000
F00000
F00000
F00000
F00000
F00000
F00000
F00000
F00000
F00000
F00000
FFFFF8
FFFFF8
FFFFF8
FFFFF8
ENDCHAR
STARTCHAR 00CB
ENCODING 203
SWIDTH 560 0
DWIDTH 28 0
BBX 21 46 4 0
BITMAP
000100
1F07C0
1F07C0
1F07C0
1F07C0
0E0380
000000
000000
000000
000000
000000
FFFFF8
FFFFF8
FFFFF8
FFFFF8
F00000
F00000
F00000
F00000
F00000
F00000
F00000
F00000
F00000
F00000
F00000
FFFFE0
FFFFE0
FFFFE0
FFFFE0
F00000
F00000
F00000
F00000
F00000
F00000
F00000
F00000
F00000
F00000
F00000
F00000
FFFFF8
FFFFF8
FFFFF8
FFFFF8
ENDCHAR
STARTCHAR 00CC
ENCODING 204
SWIDTH 240 0
DWIDTH 12 0
BBX 10 48 -2 0
BITMAP
F800
7800
3C00
3C00
1E00
0F00
0F00
0780
0380
0000
0000
0000
0000
03C0
03C0
03C0
03C0
03C0
03C0
03C0
03C0
03C0
03C0
03C0
03C0
03C0
03C0
03C0
03C0
03C0
03C0
03C0
03C0
03C0
03C0
03C0
03C0
03C0
03C0
03C0
03C0
03C0
03C0
03C0
03C0
03C0
03C0
03C0
ENDCHAR
STARTCHAR 00CD
ENCODING 205
SWIDTH 240 0
DWIDTH 12 0
BBX 10 48 4 0
BITMAP
07C0
0780
0F80
0F00
1E00
1E00
3C00
3800
7800
0000
0000
0000
0000
F000
F000
F000
F000
F000
F000
F000
F000
F000
F000
F000
F000
F000
F000
F000
F000
F000
F000
F000
F000
F000
F000
F000
F000
F000
F000
F000
F000
F000
F000
F000
F000
F000
F000
F000
ENDCHAR
STARTCHAR 00CE
ENCODING 206
SWIDTH 240 0
DWIDTH 12 0
BBX 16 46 -2 0
BITMAP
03C0
07E0
0FF0
1FF8
1E7C
3C3E
781E
F00F
0000
0000
0000
03C0
03C0
03C0
03C0
03C0
03C0
03C0
03C0
03C0
03C0
03C0
03C0
03C0
03C0
03C0
03C0
03C0
03C0
03C0
03C0
03C0
03C0
03C0
03C0
03C0
03C0
03C0
03C0
03C0
03C0
03C0
03C0
03C0
03C0
03C0
ENDCHAR
STARTCHAR 00CF
ENCODING 207
SWIDTH 240 0
DWIDTH 12 0
BBX 16 46 -2 0
BITMAP
1000
781E
7C3F
FC3F
7C1F
381E
0000
0000
0000
0000
0000
03C0
03C0
03C0
03C0
03C0
03C0
03C0
03C0
03C0
03C0
03C0
03C0
03C0
03C0
03C0
03C0
03C0
03C0
03C0
03C0
03C0
03C0
03C0
03C0
03C0
03C0
03C0
03C0
03C0
03C0
03C0
03C0
03C0
03C0
03C0
ENDCHAR
STARTCHAR 00D0
ENCODING 208
SWIDTH 700 0
DWIDTH 35 0
BBX 32 35 2 0
BITMAP
1FFFE000
1FFFFC00
1FFFFF00
1FFFFFC0
1E001FE0
1E0007F0
1E0001F8
1E0000F8
1E00007C
1E00007C
1E00003E
1E00003E
1E00001E
1E00001E
1E00001E
1E00001E
FFFC001F
FFFC001F
FFFC001F
1E00001E
1E00001E
1E00001E
1E00001E
1E00003E
1E00003E
1E00007C
1E00007C
1E0000F8
1E0001F8
1E0007F0
1E001FE0
1FFFFFC0
1FFFFF00
1FFFFC00
1FFFE000
ENDCHAR
STARTCHAR 00D1
ENCODING 209
SWIDTH 700 0
DWIDTH 35 0
BBX 28 45 4 0
BITMAP
00F83800
00FE3800
01FFF800
01C7F000
0183E000
00000000
00000000
00000000
00000000
00000000
F80000F0
FC0000F0
FC0000F0
FE0000F0
FF0000F0
FF0000F0
FF8000F0
FFC000F0
F7C000F0
F3E000F0
F3F000F0
F1F000F0
F0F800F0
F0FC00F0
F07C00F0
F03E00F0
F03F00F0
F01F00F0
F00F80F0
F00FC0F0
F007C0F0
F003E0F0
F003F0F0
F001F0F0
F000F8F0
F000FCF0
F0007CF0
F0003EF0
F0001FF0
F0001FF0
F0000FF0
F00007F0
F00007F0
F00003F0
F00001F0
ENDCHAR
STARTCHAR 00D2
ENCODING 210
SWIDTH 720 0
DWIDTH 36 0
BBX 31 48 3 0
BITMAP
01F00000
00F80000
00780000
003C0000
003C0000
001E0000
000E0000
000F0000
00070000
00008000
00000000
00000000
000FC000
007FFC00
01FFFF00
03FFFF80
07F87FC0
0FC007E0
1F8003F0
3F0001F0
3E0000F8
7C0000F8
7C00007C
F800007C
F800003C
F800003E
F000003E
F000003E
F000001E
F000001E
F000001E
F000001E
F000003E
F000003E
F000003E
F800003E
F800003C
7800007C
7C00007C
7C0000F8
3E0000F8
3F0001F0
1F8007F0
0FE00FE0
07FFFFC0
03FFFF80
00FFFE00
003FF800
ENDCHAR
STARTCHAR 00D3
ENCODING 211
SWIDTH 720 0
DWIDTH 36 0
BBX 31 48 3 0
BITMAP
00001E00
00003E00
00003C00
00007800
0000F800
0000F000
0001E000
0001E000
0003C000
00000000
00000000
00000000
000FC000
007FFC00
01FFFF00
03FFFF80
07F87FC0
0FC007E0
1F8003F0
3F0001F0
3E0000F8
7C0000F8
7C00007C
F800007C
F800003C
F800003E
F000003E
F000003E
F000001E
F000001E
F000001E
F000001E
F000003E
F000003E
F000003E
F800003E
F800003C
7800007C
7C00007C
7C0000F8
3E0000F8
3F0001F0
1F8007F0
0FE00FE0
07FFFFC0
03FFFF80
00FFFE00
003FF800
ENDCHAR
STARTCHAR 00D4
ENCODING 212
SWIDTH 720 0
DWIDTH 36 0
BBX 31 46 3 0
BITMAP
00078000
0007C000
000FE000
001EF000
003C7800
00783C00
00F03E00
01E01F00
00000000
00000000
000FC000
007FFC00
01FFFF00
03FFFF80
07F87FC0
0FC007E0
1F8003F0
3F0001F0
3E0000F8
7C0000F8
7C00007C
F800007C
F800003C
F800003E
F000003E
F000003E
F000001E
F000001E
F000001E
F000001E
F000003E
F000003E
F000003E
F800003E
F800003C
7800007C
7C00007C
7C0000F8
3E0000F8
3F0001F0
1F8007F0
0FE00FE0
07FFFFC0
03FFFF80
00FFFE00
003FF800
ENDCHAR
STARTCHAR 00D5
ENCODING 213
SWIDTH 720 0
DWIDTH 36 0
BBX 31 45 3 0
BITMAP
003E0E00
007F0C00
007FFC00
00E3FC00
00E0F800
00000000
00000000
00000000
00000000
000FC000
007FFC00
01FFFF00
03FFFF80
07F87FC0
0FC007E0
1F8003F0
3F0001F0
3E0000F8
7C0000F8
7C00007C
F800007C
F800003C
F800003E
F000003E
F000003E
F000001E
F000001E
F000001E
F000001E
F000003E
F000003E
F000003E
F800003E
F800003C
7800007C
7C00007C
7C0000F8
3E0000F8
3F0001F0
1F8007F0
0FE00FE0
07FFFFC0
03FFFF80
00FFFE00
003FF800
ENDCHAR
STARTCHAR 00D6
ENCODING 214
SWIDTH 720 0
DWIDTH 36 0
BBX 31 46 3 0
BITMAP
00000800
00F83E00
00F83E00
00F83E00
00F83E00
00701C00
00000000
00000000
00000000
00000000
000FC000
007FFC00
01FFFF00
03FFFF80
07F87FC0
0FC007E0
1F8003F0
3F0001F0
3E0000F8
7C0000F8
7C00007C
F800007C
F800003C
F800003E
F000003E
F000003E
F000001E
F000001E
F000001E
F000001E
F000003E
F000003E
F000003E
F800003E
F800003C
7800007C
7C00007C
7C0000F8
3E0000F8
3F0001F0
1F8007F0
0FE00FE0
07FFFFC0
03FFFF80
00FFFE00
003FF800
ENDCHAR
STARTCHAR 00D7
ENCODING 215
SWIDTH 540 0
DWIDTH 27 0
BBX 16 17 6 7
BITMAP
2004
700E
F81F
FC3E
7E7C
3FF8
1FF0
0FE0
07E0
0FF0
1FF8
3EFC
7C7E
F83F
F01F
600E
0004
ENDCHAR
STARTCHAR 00D8
ENCODING 216
SWIDTH 740 0
DWIDTH 37 0
BBX 31 39 3 -2
BITMAP
0000003C
0007E078
007FFCF8
01FFFFF0
03FFFFE0
07F83FE0
0FC007E0
1F8007F0
3F0007F8
3E000FF8
7C001E7C
7C001E7C
78003C3C
F800783E
F800783E
F800F03E
F001F01E
F001E01E
F003C01E
F007C01E
F007801E
F00F001E
F80F003E
F81E003E
F83C003E
F83C003E
7C78007C
7CF0007C
7EF000FC
3FE000F8
1FE001F0
1FC003F0
0FE00FE0
07FFFFC0
0FFFFF80
1EFFFE00
1E3FF800
3C000000
78000000
ENDCHAR
STARTCHAR 00D9
ENCODING 217
SWIDTH 680 0
DWIDTH 34 0
BBX 28 48 3 0
BITMAP
03E00000
01E00000
00F00000
00F00000
00780000
003C0000
003C0000
001E0000
000E0000
00000000
00000000
00000000
00000000
F80000F0
F80000F0
F80000F0
F80000F0
F80000F0
F80000F0
F80000F0
F80000F0
F80000F0
F80000F0
F80000F0
F80000F0
F80000F0
F80000F0
F80000F0
F80000F0
F80000F0
F80000F0
F80000F0
F80000F0
F80000F0
F80000F0
F80001F0
780001F0
780001E0
7C0001E0
7C0003E0
3C0003E0
3E0007C0
1F000FC0
1FC01F80
0FFFFF00
07FFFE00
03FFFC00
00FFF000
ENDCHAR
STARTCHAR 00DA
ENCODING 218
SWIDTH 680 0
DWIDTH 34 0
BBX 28 48 3 0
BITMAP
00007C00
00007800
0000F800
0000F000
0001E000
0001E000
0003C000
00038000
00078000
00000000
00000000
00000000
00000000
F80000F0
F80000F0
F80000F0
F80000F0
F80000F0
F80000F0
F80000F0
F80000F0
F80000F0
F80000F0
F80000F0
F80000F0
F80000F0
F80000F0
F80000F0
F80000F0
F80000F0
F80000F0
F80000F0
F80000F0
F80000F0
F80000F0
F80001F0
780001F0
780001E0
7C0001E0
7C0003E0
3C0003E0
3E0007C0
1F000FC0
1FC01F80
0FFFFF00
07FFFE00
03FFFC00
00FFF000
ENDCHAR
STARTCHAR 00DB
ENCODING 219
SWIDTH 680 0
DWIDTH 34 0
BBX 28 46 3 0
BITMAP
000F0000
001F8000
003FC000
007DE000
0079F000
00F0F800
01E07C00
03C03C00
00000000
00000000
00000000
F80000F0
F80000F0
F80000F0
F80000F0
F80000F0
F80000F0
F80000F0
F80000F0
F80000F0
F80000F0
F80000F0
F80000F0
F80000F0
F80000F0
F80000F0
F80000F0
F80000F0
F80000F0
F80000F0
F80000F0
F80000F0
F80000F0
F80001F0
780001F0
780001E0
7C0001E0
7C0003E0
3C0003E0
3E0007C0
1F000FC0
1FC01F80
0FFFFF00
07FFFE00
03FFFC00
00FFF000
ENDCHAR
STARTCHAR 00DC
ENCODING 220
SWIDTH 680 0
DWIDTH 34 0
BBX 28 46 3 0
BITMAP
00400000
01E07800
01F0FC00
03F0FC00
01F07C00
00E07800
00000000
00000000
00000000
00000000
00000000
F80000F0
F80000F0
F80000F0
F80000F0
F80000F0
F80000F0
F80000F0
F80000F0
F80000F0
F80000F0
F80000F0
F80000F0
F80000F0
F80000F0
F80000F0
F80000F0
F80000F0
F80000F0
F80000F0
F80000F0
F80000F0
F80000F0
F80001F0
780001F0
780001E0
7C0001E0
7C0003E0
3C0003E0
3E0007C0
1F000FC0
1FC01F80
0FFFFF00
07FFFE00
03FFFC00
00FFF000
ENDCHAR
STARTCHAR 00DD
ENCODING 221
SWIDTH 600 0
DWIDTH 30 0
BBX 27 48 2 0
BITMAP
00007800
0000F000
0001F000
0001E000
0003C000
0003C000
00078000
00070000
000F0000
00000000
00000000
00000000
00000000
F80003E0
F80007C0
7C0007C0
7C000F80
3E000F80
3E001F00
1F001F00
0F003E00
0F803E00
07807C00
07C07800
03C0F800
03E0F000
01E1F000
01F1E000
00F3E000
00FBC000
007FC000
007F8000
003F8000
003F0000
001F0000
001E0000
001E0000
001E0000
001E0000
001E0000
001E0000
001E0000
001E0000
001E0000
001E0000
001E0000
001E0000
001E0000
ENDCHAR
STARTCHAR 00DE
ENCODING 222
SWIDTH 580 0
DWIDTH 29 0
BBX 24 35 4 0
BITMAP
F00000
F00000
F00000
F00000
F00000
F00000
FFFF00
FFFFC0
FFFFF0
FFFFF8
F001FC
F0007C
F0003E
F0001E
F0001E
F0001F
F0001F
F0000F
F0001F
F0001F
F0001E
F0001E
F0003E
F0007C
F001FC
FFFFF8
FFFFF0
FFFFC0
FFFF00
F00000
F00000
F00000
F00000
F00000
F00000
ENDCHAR
STARTCHAR 00DF
ENCODING 223
SWIDTH 560 0
DWIDTH 28 0
BBX 22 36 4 0
BITMAP
01F800
0FFF00
1FFFC0
3FFFE0
7E03F0
7C01F0
7800F0
F800F8
F00078
F00078
F00078
F00078
F000F0
F000F0
F001E0
F00FC0
F1FF80
F1FE00
F1FFC0
F007E0
F001F0
F000F8
F00078
F00078
F0003C
F0003C
F0003C
F0003C
F0007C
F00078
F000F8
F001F0
F01FF0
F0FFE0
F0FFC0
F0FF00
ENDCHAR
STARTCHAR 00E0
ENCODING 224
SWIDTH 620 0
DWIDTH 31 0
BBX 25 39 2 0
BITMAP
03C00000
03E00000
01E00000
00F00000
00F00000
00780000
00380000
003C0000
001E0000
00000000
00000000
00000000
00FE0000
03FF8780
07FFC780
0FFFE780
1F80F780
3F003780
3E001F80
7C001F80
7C000F80
78000F80
78000F80
F8000780
F8000780
F8000780
F8000780
F8000780
78000F80
78000F80
7C000F80
7C001F80
3E001F80
3E003F80
1F807780
1FE3E780
0FFFC780
07FF8780
01FF0780
ENDCHAR
STARTCHAR 00E1
ENCODING 225
SWIDTH 620 0
DWIDTH 31 0
BBX 25 39 2 0
BITMAP
0000F800
0000F000
0001F000
0001E000
0003C000
0003C000
00078000
00070000
000F0000
00000000
00000000
00000000
00FE0000
03FF8780
07FFC780
0FFFE780
1F80F780
3F003780
3E001F80
7C001F80
7C000F80
78000F80
78000F80
F8000780
F8000780
F8000780
F8000780
F8000780
78000F80
78000F80
7C000F80
7C001F80
3E001F80
3E003F80
1F807780
1FE3E780
0FFFC780
07FF8780
01FF0780
ENDCHAR
STARTCHAR 00E2
ENCODING 226
SWIDTH 620 0
DWIDTH 31 0
BBX 25 37 2 0
BITMAP
001F0000
003F8000
007F8000
00FBC000
01F1E000
01E0F000
03C07800
04000000
00000000
00000000
00FE0000
03FF8780
07FFC780
0FFFE780
1F80F780
3F003780
3E001F80
7C001F80
7C000F80
78000F80
78000F80
F8000780
F8000780
F8000780
F8000780
F8000780
78000F80
78000F80
7C000F80
7C001F80
3E001F80
3E003F80
1F807780
1FE3E780
0FFFC780
07FF8780
01FF0780
ENDCHAR
STARTCHAR 00E3
ENCODING 227
SWIDTH 620 0
DWIDTH 31 0
BBX 25 37 2 0
BITMAP
00203000
00F83000
01FE7000
03DFF000
0387E000
0383C000
00000000
00000000
00000000
00000000
00FE0000
03FF8780
07FFC780
0FFFE780
1F80F780
3F003780
3E001F80
7C001F80
7C000F80
78000F80
78000F80
F8000780
F8000780
F8000780
F8000780
F8000780
78000F80
78000F80
7C000F80
7C001F80
3E001F80
3E003F80
1F807780
1FE3E780
0FFFC780
07FF8780
01FF0780
ENDCHAR
STARTCHAR 00E4
ENCODING 228
SWIDTH 620 0
DWIDTH 31 0
BBX 25 37 2 0
BITMAP
01C07000
03E0F800
03E1F800
03E1F800
03E0F800
01C06000
00000000
00000000
00000000
00000000
00FE0000
03FF8780
07FFC780
0FFFE780
1F80F780
3F003780
3E001F80
7C001F80
7C000F80
78000F80
78000F80
F8000780
F8000780
F8000780
F8000780
F8000780
78000F80
78000F80
7C000F80
7C001F80
3E001F80
3E003F80
1F807780
1FE3E780
0FFFC780
07FF8780
01FF0780
ENDCHAR
STARTCHAR 00E5
ENCODING 229
SWIDTH 620 0
DWIDTH 31 0
BBX 25 39 2 0
BITMAP
001F0000
003F8000
00618000
0060C000
0060C000
00618000
003F8000
001F0000
00000000
00000000
00000000
00000000
00FE0000
03FF8780
07FFC780
0FFFE780
1F80F780
3F003780
3E001F80
7C001F80
7C000F80
78000F80
78000F80
F8000780
F8000780
F8000780
F8000780
F8000780
78000F80
78000F80
7C000F80
7C001F80
3E001F80
3E003F80
1F807780
1FE3E780
0FFFC780
07FF8780
01FF0780
ENDCHAR
STARTCHAR 00E6
ENCODING 230
SWIDTH 940 0
DWIDTH 47 0
BBX 42 27 3 0
BITMAP
01FC003FC000
07FF00FFF000
1FFFC1FFF800
3FFFC3FFFC00
3E01E7C03E00
7C00FF001F00
7800FF000F00
F8007E000F00
00007C000780
00007C000780
00007C000780
00007C000780
03FFFFFFFF80
1FFFFFFFFF80
3FFFFFFFFFC0
7E007C000000
F8007C000000
F0007C000000
F0007C000000
F0007E000780
F000FE000F80
F000EF001F00
F803CF803F00
7E07C7F0FE00
7FFF83FFFC00
3FFE01FFF800
0FF8007FE000
ENDCHAR
STARTCHAR 00E7
ENCODING 231
SWIDTH 560 0
DWIDTH 28 0
BBX 23 39 3 -12
BITMAP
00FF00
03FFC0
0FFFF0
1FFFF8
3F00F8
3E007C
7C003C
78001E
F8001E
F0001E
F00000
F00000
F00000
F00000
F00000
F00000
F00000
F0001E
F8001E
78001E
7C003E
7E007C
3F00FC
1FC7F8
0FFFF0
07FFE0
01FF80
001800
003800
003800
003F80
007FC0
0001C0
0000E0
0000E0
0000C0
0023C0
003F80
003F00
ENDCHAR
STARTCHAR 00E8
ENCODING 232
SWIDTH 580 0
DWIDTH 29 0
BBX 24 39 3 0
BITMAP
0F8000
078000
03C000
03C000
01E000
00F000
00F000
007800
003800
000000
000000
000000
00FF00
03FFC0
0FFFE0
1FC7F0
3F00F8
3C007C
7C003C
78003E
F8001E
F0001E
F0001E
F0001E
FFFFFF
FFFFFF
FFFFFF
F00000
F00000
F00000
F00000
78001E
7C003E
7C007C
3F00FC
1FC3F8
0FFFF0
07FFE0
01FF80
ENDCHAR
STARTCHAR 00E9
ENCODING 233
SWIDTH 580 0
DWIDTH 29 0
BBX 24 39 3 0
BITMAP
0001F0
0003E0
0003C0
0007C0
000780
000F00
000F00
001E00
001C00
000000
000000
000000
00FF00
03FFC0
0FFFE0
1FC7F0
3F00F8
3C007C
7C003C
78003E
F8001E
F0001E
F0001E
F0001E
FFFFFF
FFFFFF
FFFFFF
F00000
F00000
F00000
F00000
78001E
7C003E
7C007C
3F00FC
1FC3F8
0FFFF0
07FFE0
01FF80
ENDCHAR
STARTCHAR 00EA
ENCODING 234
SWIDTH 580 0
DWIDTH 29 0
BBX 24 37 3 0
BITMAP
003C00
007E00
00FF00
01E780
03C7C0
0783E0
0F81F0
000000
000000
000000
00FF00
03FFC0
0FFFE0
1FC7F0
3F00F8
3C007C
7C003C
78003E
F8001E
F0001E
F0001E
F0001E
FFFFFF
FFFFFF
FFFFFF
F00000
F00000
F00000
F00000
78001E
7C003E
7C007C
3F00FC
1FC3F8
0FFFF0
07FFE0
01FF80
ENDCHAR
STARTCHAR 00EB
ENCODING 235
SWIDTH 580 0
DWIDTH 29 0
BBX 24 37 3 0
BITMAP
0301C0
0783E0
0FC3F0
0FC3F0
0783E0
0300C0
000000
000000
000000
000000
00FF00
03FFC0
0FFFE0
1FC7F0
3F00F8
3C007C
7C003C
78003E
F8001E
F0001E
F0001E
F0001E
FFFFFF
FFFFFF
FFFFFF
F00000
F00000
F00000
F00000
78001E
7C003E
7C007C
3F00FC
1FC3F8
0FFFF0
07FFE0
01FF80
ENDCHAR
STARTCHAR 00EC
ENCODING 236
SWIDTH 240 0
DWIDTH 12 0
BBX 9 39 -1 0
BITMAP
F000
F800
7800
3C00
3C00
1E00
0E00
0F00
0780
0000
0000
0000
0000
0780
0780
0780
0780
0780
0780
0780
0780
0780
0780
0780
0780
0780
0780
0780
0780
0780
0780
0780
0780
0780
0780
0780
0780
0780
0780
ENDCHAR
STARTCHAR 00ED
ENCODING 237
SWIDTH 240 0
DWIDTH 12 0
BBX 10 39 4 0
BITMAP
07C0
0780
0F80
0F00
1E00
1E00
3C00
3800
7800
0000
0000
0000
0000
F000
F000
F000
F000
F000
F000
F000
F000
F000
F000
F000
F000
F000
F000
F000
F000
F000
F000
F000
F000
F000
F000
F000
F000
F000
F000
ENDCHAR
STARTCHAR 00EE
ENCODING 238
SWIDTH 240 0
DWIDTH 12 0
BBX 16 37 -2 0
BITMAP
03E0
07E0
0FF0
1F78
3E3C
7C1E
780F
8000
0000
0000
0000
03C0
03C0
03C0
03C0
03C0
03C0
03C0
03C0
03C0
03C0
03C0
03C0
03C0
03C0
03C0
03C0
03C0
03C0
03C0
03C0
03C0
03C0
03C0
03C0
03C0
03C0
ENDCHAR
STARTCHAR 00EF
ENCODING 239
SWIDTH 240 0
DWIDTH 12 0
BBX 15 37 -1 0
BITMAP
701C
F83E
F87E
F87E
F83E
7018
0000
0000
0000
0000
0000
0780
0780
0780
0780
0780
0780
0780
0780
0780
0780
0780
0780
0780
0780
0780
0780
0780
0780
0780
0780
0780
0780
0780
0780
0780
0780
ENDCHAR
STARTCHAR 00F0
ENCODING 240
SWIDTH 600 0
DWIDTH 30 0
BBX 25 39 2 1
BITMAP
007E0200
007F8F00
007FFF00
0007FC00
0001F800
0007F800
001FFC00
001E3E00
00081E00
00001F00
00000F00
00000F00
00FE0F00
03FF8F80
0FFFCF80
1FFFEF80
1F80FF80
3E007F80
7C003F80
7C001F80
78001F80
F8000F80
F8000F80
F8000F80
F8000F80
F0000F80
F0000F80
F8000F80
F8000F00
78000F00
78000F00
7C001F00
3C003E00
3E003E00
1F007C00
1FE3F800
0FFFF000
03FFE000
00FF8000
ENDCHAR
STARTCHAR 00F1
ENCODING 241
SWIDTH 600 0
DWIDTH 30 0
BBX 23 37 4 0
BITMAP
0080C0
03E0C0
07F9C0
0F7FC0
0E1F80
0E0F00
000000
000000
000000
000000
003F80
F0FFE0
F3FFF0
F3FFF8
F701FC
FE00FC
FC007C
F8003E
F8003E
F0001E
F0001E
F0001E
F0001E
F0001E
F0001E
F0001E
F0001E
F0001E
F0001E
F0001E
F0001E
F0001E
F0001E
F0001E
F0001E
F0001E
F0001E
ENDCHAR
STARTCHAR 00F2
ENCODING 242
SWIDTH 580 0
DWIDTH 29 0
BBX 24 39 3 0
BITMAP
0F8000
078000
03C000
03C000
01E000
00F000
00F000
007800
003800
000000
000000
000000
00FF00
03FFC0
0FFFE0
1FFFF8
3F00F8
3E007C
7C003E
78003E
F8001E
F0001F
F0000F
F0000F
F0000F
F0000F
F0000F
F0000F
F0000F
F0001F
F8001E
78001E
7C003E
7E007C
3F00FC
1FC7F8
0FFFF0
07FFE0
01FF80
ENDCHAR
STARTCHAR 00F3
ENCODING 243
SWIDTH 580 0
DWIDTH 29 0
BBX 24 39 3 0
BITMAP
0001F0
0003E0
0003C0
0007C0
000780
000F00
000F00
001E00
001C00
000000
000000
000000
00FF00
03FFC0
0FFFE0
1FFFF8
3F00F8
3E007C
7C003E
78003E
F8001E
F0001F
F0000F
F0000F
F0000F
F0000F
F0000F
F0000F
F0000F
F0001F
F8001E
78001E
7C003E
7E007C
3F00FC
1FC7F8
0FFFF0
07FFE0
01FF80
ENDCHAR
STARTCHAR 00F4
ENCODING 244
SWIDTH 580 0
DWIDTH 29 0
BBX 24 37 3 0
BITMAP
003C00
007E00
00FF00
01E780
03C7C0
0783E0
0F81F0
000000
000000
000000
00FF00
03FFC0
0FFFE0
1FFFF8
3F00F8
3E007C
7C003E
78003E
F8001E
F0001F
F0000F
F0000F
F0000F
F0000F
F0000F
F0000F
F0000F
F0001F
F8001E
78001E
7C003E
7E007C
3F00FC
1FC7F8
0FFFF0
07FFE0
01FF80
ENDCHAR
STARTCHAR 00F5
ENCODING 245
SWIDTH 580 0
DWIDTH 29 0
BBX 24 37 3 0
BITMAP
0000E0
03F0E0
07F8E0
07FFE0
071FC0
060780
000000
000000
000000
000000
00FF00
03FFC0
0FFFE0
1FFFF8
3F00F8
3E007C
7C003E
78003E
F8001E
F0001F
F0000F
F0000F
F0000F
F0000F
F0000F
F0000F
F0000F
F0001F
F8001E
78001E
7C003E
7E007C
3F00FC
1FC7F8
0FFFF0
07FFE0
01FF80
ENDCHAR
STARTCHAR 00F6
ENCODING 246
SWIDTH 580 0
DWIDTH 29 0
BBX 24 37 3 0
BITMAP
0301C0
0783E0
0FC3F0
0FC3F0
0783E0
0300C0
000000
000000
000000
000000
00FF00
03FFC0
0FFFE0
1FFFF8
3F00F8
3E007C
7C003E
78003E
F8001E
F0001F
F0000F
F0000F
F0000F
F0000F
F0000F
F0000F
F0000F
F0001F
F8001E
78001E
7C003E
7E007C
3F00FC
1FC7F8
0FFFF0
07FFE0
01FF80
ENDCHAR
STARTCHAR 00F7
ENCODING 247
SWIDTH 600 0
DWIDTH 30 0
BBX 20 24 4 4
BITMAP
004000
01F000
01F000
01F800
01F000
00F000
000000
000000
000000
000000
000000
FFFFF0
FFFFF0
FFFFF0
000000
000000
000000
000000
00E000
01F000
01F000
01F800
01F000
00E000
ENDCHAR
STARTCHAR 00F8
ENCODING 248
SWIDTH 580 0
DWIDTH 29 0
BBX 24 31 3 -2
BITMAP
00003C
000038
00FF78
03FFF0
0FFFF0
1FFFF8
3F01F8
3E01FC
7C03BE
7807BE
F8071E
F00F1F
F00E0F
F01E0F
F01C0F
F0380F
F0380F
F0700F
F0F00F
F0E01F
F9E01E
79C01E
7FC03E
7F807C
3F00FC
1FE7F8
0FFFF0
1FFFC0
1DFF00
3C0000
380000
ENDCHAR
STARTCHAR 00F9
ENCODING 249
SWIDTH 600 0
DWIDTH 30 0
BBX 23 39 4 0
BITMAP
1E0000
1F0000
0F0000
078000
07C000
03C000
01E000
01E000
00F000
000000
000000
000000
000000
F0003E
F0003E
F0003E
F0003E
F0003E
F0003E
F0003E
F0003E
F0003E
F0003E
F0003E
F0003E
F0003E
F0003E
F0003E
F0003E
F0003E
F0003E
F8003E
F8007E
7C00FE
7E01FE
3FCFBE
3FFF3E
0FFE3E
07FC3E
ENDCHAR
STARTCHAR 00FA
ENCODING 250
SWIDTH 600 0
DWIDTH 30 0
BBX 23 39 4 0
BITMAP
0003C0
000780
000F80
000F00
001E00
001E00
003C00
003800
007800
000000
000000
000000
000000
F0003E
F0003E
F0003E
F0003E
F0003E
F0003E
F0003E
F0003E
F0003E
F0003E
F0003E
F0003E
F0003E
F0003E
F0003E
F0003E
F0003E
F0003E
F8003E
F8007E
7C00FE
7E01FE
3FCFBE
3FFF3E
0FFE3E
07FC3E
ENDCHAR
STARTCHAR 00FB
ENCODING 251
SWIDTH 600 0
DWIDTH 30 0
BBX 23 37 4 0
BITMAP
00F800
01FC00
03FE00
07DE00
078F00
0F0780
1E03C0
000000
000000
000000
000000
F0003E
F0003E
F0003E
F0003E
F0003E
F0003E
F0003E
F0003E
F0003E
F0003E
F0003E
F0003E
F0003E
F0003E
F0003E
F0003E
F0003E
F0003E
F8003E
F8007E
7C00FE
7E01FE
3FCFBE
3FFF3E
0FFE3E
07FC3E
ENDCHAR
STARTCHAR 00FC
ENCODING 252
SWIDTH 600 0
DWIDTH 30 0
BBX 23 37 4 0
BITMAP
0E0380
1F07C0
1F07C0
1F07C0
1F07C0
0E0380
000000
000000
000000
000000
000000
F0003E
F0003E
F0003E
F0003E
F0003E
F0003E
F0003E
F0003E
F0003E
F0003E
F0003E
F0003E
F0003E
F0003E
F0003E
F0003E
F0003E
F0003E
F8003E
F8007E
7C00FE
7E01FE
3FCFBE
3FFF3E
0FFE3E
07FC3E
ENDCHAR
STARTCHAR 00FD
ENCODING 253
SWIDTH 520 0
DWIDTH 26 0
BBX 23 49 2 -10
BITMAP
0001E0
0003C0
0007C0
000780
000F00
000F00
001E00
001C00
003C00
000000
000000
000000
000000
F0001E
F8001E
78003E
78003C
7C007C
3C0078
3C0078
1E00F8
1E00F0
1F00F0
0F01E0
0F01E0
0F83E0
0783C0
0783C0
03C780
03C780
03C780
01EF00
01EF00
00FE00
00FE00
00FC00
007C00
007C00
007800
00F800
00F000
00F000
01F000
01E000
03E000
0FC000
FF8000
FF0000
FE0000
ENDCHAR
STARTCHAR 00FE
ENCODING 254
SWIDTH 620 0
DWIDTH 31 0
BBX 24 50 4 -12
BITMAP
F00000
F00000
F00000
F00000
F00000
F00000
F00000
F00000
F00000
F00000
F00000
F03F80
F0FFE0
F1FFF0
F3FFF8
F700FC
FE007E
FC003E
FC001F
F8001F
F8001F
F0000F
F0000F
F0000F
F0000F
F0000F
F0000F
F0000F
F8000F
F8001F
F8001F
FC003E
FE007E
F700FC
F7E3FC
F3FFF8
F1FFE0
F07FC0
F00000
F00000
F00000
F00000
F00000
F00000
F00000
F00000
F00000
F00000
F00000
F00000
ENDCHAR
STARTCHAR 00FF
ENCODING 255
SWIDTH 520 0
DWIDTH 26 0
BBX 23 47 2 -10
BITMAP
0701C0
0F83E0
0F83E0
0F83E0
0F83E0
0701C0
000000
000000
000000
000000
000000
F0001E
F8001E
78003E
78003C
7C007C
3C0078
3C0078
1E00F8
1E00F0
1F00F0
0F01E0
0F01E0
0F83E0
0783C0
0783C0
03C780
03C780
03C780
01EF00
01EF00
00FE00
00FE00
00FC00
007C00
007C00
007800
00F800
00F000
00F000
01F000
01E000
03E000
0FC000
FF8000
FF0000
FE0000
ENDCHAR
STARTCHAR 0100
ENCODING 256
SWIDTH 680 0
DWIDTH 34 0
BBX 30 42 2 0
BITMAP
01FFFC00
01FFFC00
00000000
00000000
00000000
00000000
00000000
00078000
000FC000
000FC000
000FC000
001FE000
001FE000
003FF000
003CF000
003CF000
00787800
00787800
00787800
00F03C00
00F03C00
01F03E00
01E01E00
01E01E00
03E01F00
03C00F00
03C00F00
07800780
07FFFF80
0FFFFFC0
0FFFFFC0
0FFFFFC0
1F0003E0
1E0001E0
1E0001E0
3E0000F0
3C0000F0
7C0000F8
78000078
78000078
F800007C
F000003C
ENDCHAR
STARTCHAR 0101
ENCODING 257
SWIDTH 620 0
DWIDTH 31 0
BBX 25 34 2 0
BITMAP
03FFF800
03FFF800
03FFF800
00000000
00000000
00000000
00000000
00FE0000
03FF8780
07FFC780
0FFFE780
1F80F780
3F003780
3E001F80
7C001F80
7C000F80
78000F80
78000F80
F8000780
F8000780
F8000780
F8000780
F8000780
78000F80
78000F80
7C000F80
7C001F80
3E001F80
3E003F80
1F807780
1FE3E780
0FFFC780
07FF8780
01FF0780
ENDCHAR
STARTCHAR 0102
ENCODING 258
SWIDTH 680 0
DWIDTH 34 0
BBX 30 44 2 0
BITMAP
01E01E00
00F03C00
007FF800
003FF000
000FC000
00000000
00000000
00000000
00000000
00078000
000FC000
000FC000
000FC000
001FE000
001FE000
003FF000
003CF000
003CF000
00787800
00787800
00787800
00F03C00
00F03C00
01F03E00
01E01E00
01E01E00
03E01F00
03C00F00
03C00F00
07800780
07FFFF80
0FFFFFC0
0FFFFFC0
0FFFFFC0
1F0003E0
1E0001E0
1E0001E0
3E0000F0
3C0000F0
7C0000F8
78000078
78000078
F800007C
F000003C
ENDCHAR
STARTCHAR 0103
ENCODING 259
SWIDTH 620 0
DWIDTH 31 0
BBX 25 36 2 0
BITMAP
07803C00
07807800
03E0F000
01FFE000
007FC000
000C0000
00000000
00000000
00000000
00FE0000
03FF8780
07FFC780
0FFFE780
1F80F780
3F003780
3E001F80
7C001F80
7C000F80
78000F80
78000F80
F8000780
F8000780
F8000780
F8000780
F8000780
78000F80
78000F80
7C000F80
7C001F80
3E001F80
3E003F80
1F807780
1FE3E780
0FFFC780
07FF8780
01FF0780
ENDCHAR
STARTCHAR 0104
ENCODING 260
SWIDTH 680 0
DWIDTH 34 0
BBX 31 43 2 -8
BITMAP
00078000
000FC000
000FC000
000FC000
001FE000
001FE000
003FF000
003CF000
003CF000
00787800
00787800
00787800
00F03C00
00F03C00
01F03E00
01E01E00
01E01E00
03E01F00
03C00F00
03C00F00
07800780
07FFFF80
0FFFFFC0
0FFFFFC0
0FFFFFC0
1F0003E0
1E0001E0
1E0001E0
3E0000F0
3C0000F0
7C0000F8
78000078
78000078
F800007C
F000003C
00000078
000000E0
000000E0
000000E0
000000E0
000000FA
0000007E
0000003E
ENDCHAR
STARTCHAR 0105
ENCODING 261
SWIDTH 620 0
DWIDTH 31 0
BBX 27 35 2 -8
BITMAP
00FE0000
03FF8780
07FFC780
0FFFE780
1F80F780
3F003780
3E001F80
7C001F80
7C000F80
78000F80
78000F80
F8000780
F8000780
F8000780
F8000780
F8000780
78000F80
78000F80
7C000F80
7C001F80
3E001F80
3E003F80
1F807780
1FE3E780
0FFFC780
07FF8780
01FF0780
00000700
00000E00
00001E00
00001C00
00001E00
00000FE0
00000FE0
000003E0
ENDCHAR
STARTCHAR 0106
ENCODING 262
SWIDTH 700 0
DWIDTH 35 0
BBX 30 48 3 0
BITMAP
00003E00
00003C00
00007C00
00007800
0000F000
0001E000
0001E000
0003C000
00038000
00000000
00000000
00000000
0007E000
007FFC00
01FFFF00
03FFFF80
07F83FC0
0FC007E0
1F8003F0
3F0001F0
3E0000F8
7C000078
7C00007C
7800003C
F800003C
F8000000
F8000000
F0000000
F0000000
F0000000
F0000000
F0000000
F0000000
F0000000
F8000000
F8000000
F8000000
7800003C
7C00007C
3C000078
3E0000F8
1F0001F0
1F8003F0
0FE00FE0
07FFFFC0
03FFFF80
00FFFE00
003FF800
ENDCHAR
STARTCHAR 0107
ENCODING 263
SWIDTH 560 0
DWIDTH 28 0
BBX 23 39 3 0
BITMAP
0001F0
0001E0
0003C0
0007C0
000780
000F00
000F00
001E00
001C00
000000
000000
000000
00FF00
03FFC0
0FFFF0
1FFFF8
3F00F8
3E007C
7C003C
78001E
F8001E
F0001E
F00000
F00000
F00000
F00000
F00000
F00000
F00000
F0001E
F8001E
78001E
7C003E
7E007C
3F00FC
1FC7F8
0FFFF0
07FFE0
01FF80
ENDCHAR
STARTCHAR 010A
ENCODING 266
SWIDTH 700 0
DWIDTH 35 0
BBX 30 45 3 1
BITMAP
00078000
000FC000
000FC000
000F8000
00078000
00000000
00000000
00000000
00000000
0007E000
007FFC00
01FFFF00
03FFFF80
07F83FC0
0FC007E0
1F8003F0
3F0001F0
3E0000F8
7C000078
7C00007C
7800003C
F800003C
F8000000
F8000000
F0000000
F0000000
F0000000
F0000000
F0000000
F0000000
F0000000
F8000000
F8000000
F8000000
7800003C
7C00007C
3C000078
3E0000F8
1F0001F0
1F8003F0
0FE00FE0
07FFFFC0
03FFFF80
00FFFE00
003FF800
ENDCHAR
STARTCHAR 010B
ENCODING 267
SWIDTH 560 0
DWIDTH 28 0
BBX 23 37 3 0
BITMAP
001800
003C00
007E00
007E00
003C00
001800
000000
000000
000000
000000
00FF00
03FFC0
0FFFF0
1FFFF8
3F00F8
3E007C
7C003C
78001E
F8001E
F0001E
F00000
F00000
F00000
F00000
F00000
F00000
F00000
F0001E
F8001E
78001E
7C003E
7E007C
3F00FC
1FC7F8
0FFFF0
07FFE0
01FF80
ENDCHAR
STARTCHAR 010C
ENCODING 268
SWIDTH 700 0
DWIDTH 35 0
BBX 30 46 3 0
BITMAP
01E01E00
01F03C00
00F87C00
007CF800
003FF000
001FE000
000FC000
00078000
00000000
00000000
0007E000
007FFC00
01FFFF00
03FFFF80
07F83FC0
0FC007E0
1F8003F0
3F0001F0
3E0000F8
7C000078
7C00007C
7800003C
F800003C
F8000000
F8000000
F0000000
F0000000
F0000000
F0000000
F0000000
F0000000
F0000000
F8000000
F8000000
F8000000
7800003C
7C00007C
3C000078
3E0000F8
1F0001F0
1F8003F0
0FE00FE0
07FFFFC0
03FFFF80
00FFFE00
003FF800
ENDCHAR
STARTCHAR 010D
ENCODING 269
SWIDTH 560 0
DWIDTH 28 0
BBX 23 37 3 0
BITMAP
0F00F0
0781E0
03C3C0
01E780
00FF00
00FF00
007E00
000000
000000
000000
00FF00
03FFC0
0FFFF0
1FFFF8
3F00F8
3E007C
7C003C
78001E
F8001E
F0001E
F00000
F00000
F00000
F00000
F00000
F00000
F00000
F0001E
F8001E
78001E
7C003E
7E007C
3F00FC
1FC7F8
0FFFF0
07FFE0
01FF80
ENDCHAR
STARTCHAR 010E
ENCODING 270
SWIDTH 680 0
DWIDTH 34 0
BBX 28 46 4 0
BITMAP
0F807800
07C0F000
03C1E000
01E3C000
00F78000
007F0000
003F0000
001E0000
00000000
00000000
00000000
FFFF8000
FFFFF000
FFFFF800
FFFFFE00
F000FF00
F0003F80
F0001F80
F00007C0
F00007C0
F00003E0
F00003E0
F00001E0
F00001F0
F00001F0
F00001F0
F00000F0
F00000F0
F00000F0
F00000F0
F00001F0
F00001F0
F00001F0
F00001F0
F00001E0
F00003E0
F00003E0
F00007C0
F0000FC0
F0001F80
F0003F80
F000FF00
FFFFFE00
FFFFF800
FFFFF000
FFFF8000
ENDCHAR
STARTCHAR 010F
ENCODING 271
SWIDTH 720 0
DWIDTH 36 0
BBX 34 39 2 0
BITMAP
0000000F80
0000078FC0
0000079FC0
0000079FC0
0000078FC0
00000781C0
00000780C0
00000780C0
00000781C0
0000078180
0000078380
0000078700
00FE078400
03FF878000
07FFC78000
0FFFE78000
1F80F78000
3F00378000
3E001F8000
7C001F8000
7C000F8000
78000F8000
78000F8000
7800078000
F800078000
F800078000
F800078000
7800078000
7800078000
78000F8000
7C000F8000
7C001F8000
3E001F8000
3E003F8000
1F80778000
1FE3E78000
0FFFC78000
07FF878000
01FF078000
ENDCHAR
STARTCHAR 0110
ENCODING 272
SWIDTH 700 0
DWIDTH 35 0
BBX 32 35 2 0
BITMAP
1FFFE000
1FFFFC00
1FFFFF00
1FFFFFC0
1E001FE0
1E0007F0
1E0001F8
1E0000F8
1E00007C
1E00007C
1E00003E
1E00003E
1E00001E
1E00001E
1E00001E
1E00001E
FFFC001F
FFFC001F
FFFC001F
1E00001E
1E00001E
1E00001E
1E00001E
1E00003E
1E00003E
1E00007C
1E00007C
1E0000F8
1E0001F8
1E0007F0
1E001FE0
1FFFFFC0
1FFFFF00
1FFFFC00
1FFFE000
ENDCHAR
STARTCHAR 0111
ENCODING 273
SWIDTH 620 0
DWIDTH 31 0
BBX 29 38 2 0
BITMAP
00000780
00000780
00000780
00000780
00000780
0007FFF8
0007FFF8
0007FFF8
00000780
00000780
00000780
00FE0780
03FF8780
07FFC780
0FFFE780
1F80F780
3F003780
3E001F80
7C001F80
7C000F80
78000F80
78000F80
78000780
F8000780
F8000780
F8000780
78000780
78000780
78000F80
7C000F80
7C001F80
3E001F80
3E003F80
1F807780
1FE3E780
0FFFC780
07FF8780
01FF0780
ENDCHAR
STARTCHAR 0112
ENCODING 274
SWIDTH 560 0
DWIDTH 28 0
BBX 21 42 4 0
BITMAP
1FFFC0
1FFFC0
000000
000000
000000
000000
000000
FFFFF8
FFFFF8
FFFFF8
FFFFF8
F00000
F00000
F00000
F00000
F00000
F00000
F00000
F00000
F00000
F00000
F00000
FFFFE0
FFFFE0
FFFFE0
FFFFE0
F00000
F00000
F00000
F00000
F00000
F00000
F00000
F00000
F00000
F00000
F00000
F00000
FFFFF8
FFFFF8
FFFFF8
FFFFF8
ENDCHAR
STARTCHAR 0113
ENCODING 275
SWIDTH 580 0
DWIDTH 29 0
BBX 24 34 3 0
BITMAP
0FFFE0
0FFFE0
0FFFE0
000000
000000
000000
000000
00FF00
03FFC0
0FFFE0
1FC7F0
3F00F8
3C007C
7C003C
78003E
F8001E
F0001E
F0001E
F0001E
FFFFFF
FFFFFF
FFFFFF
F00000
F00000
F00000
F00000
78001E
7C003E
7C007C
3F00FC
1FC3F8
0FFFF0
07FFE0
01FF80
ENDCHAR
STARTCHAR 0116
ENCODING 278
SWIDTH 560 0
DWIDTH 28 0
BBX 21 46 4 0
BITMAP
002000
00F800
00F800
00F800
00F800
007000
000000
000000
000000
000000
000000
FFFFF8
FFFFF8
FFFFF8
FFFFF8
F00000
F00000
F00000
F00000
F00000
F00000
F00000
F00000
F00000
F00000
F00000
FFFFE0
FFFFE0
FFFFE0
FFFFE0
F00000
F00000
F00000
F00000
F00000
F00000
F00000
F00000
F00000
F00000
F00000
F00000
FFFFF8
FFFFF8
FFFFF8
FFFFF8
ENDCHAR
STARTCHAR 0117
ENCODING 279
SWIDTH 580 0
DWIDTH 29 0
BBX 24 37 3 0
BITMAP
003800
007C00
007E00
007E00
007C00
001800
000000
000000
000000
000000
00FF00
03FFC0
0FFFE0
1FC7F0
3F00F8
3C007C
7C003C
78003E
F8001E
F0001E
F0001E
F0001E
FFFFFF
FFFFFF
FFFFFF
F00000
F00000
F00000
F00000
78001E
7C003E
7C007C
3F00FC
1FC3F8
0FFFF0
07FFE0
01FF80
ENDCHAR
STARTCHAR 0118
ENCODING 280
SWIDTH 560 0
DWIDTH 28 0
BBX 23 43 4 -8
BITMAP
FFFFF8
FFFFF8
FFFFF8
FFFFF8
F00000
F00000
F00000
F00000
F00000
F00000
F00000
F00000
F00000
F00000
F00000
FFFFE0
FFFFE0
FFFFE0
FFFFE0
F00000
F00000
F00000
F00000
F00000
F00000
F00000
F00000
F00000
F00000
F00000
F00000
FFFFF8
FFFFF8
FFFFF8
FFFFF8
000078
0000E0
0000E0
0001E0
0001E0
0000FA
0000FE
00003E
ENDCHAR
STARTCHAR 0119
ENCODING 281
SWIDTH 580 0
DWIDTH 29 0
BBX 24 35 3 -8
BITMAP
00FF00
03FFC0
0FFFE0
1FC7F0
3F00F8
3C007C
7C003C
78003E
F8001E
F0001E
F0001E
F0001E
FFFFFF
FFFFFF
FFFFFF
F00000
F00000
F00000
F00000
78001E
7C003E
7C007C
3F00FC
1FC3F8
0FFFF0
07FFE0
01FF80
007800
007000
00E000
00E000
00E000
00F000
007F00
003F00
ENDCHAR
STARTCHAR 011A
ENCODING 282
SWIDTH 560 0
DWIDTH 28 0
BBX 21 46 4 0
BITMAP
3C01E0
1E03C0
0F0780
078F00
03DE00
01FC00
00F800
00F800
000000
000000
000000
FFFFF8
FFFFF8
FFFFF8
FFFFF8
F00000
F00000
F00000
F00000
F00000
F00000
F00000
F00000
F00000
F00000
F00000
FFFFE0
FFFFE0
FFFFE0
FFFFE0
F00000
F00000
F00000
F00000
F00000
F00000
F00000
F00000
F00000
F00000
F00000
F00000
FFFFF8
FFFFF8
FFFFF8
FFFFF8
ENDCHAR
STARTCHAR 011B
ENCODING 283
SWIDTH 580 0
DWIDTH 29 0
BBX 24 37 3 0
BITMAP
0F00F0
0781E0
03C3C0
01E780
01FF00
00FE00
007E00
000000
000000
000000
00FF00
03FFC0
0FFFE0
1FC7F0
3F00F8
3C007C
7C003C
78003E
F8001E
F0001E
F0001E
F0001E
FFFFFF
FFFFFF
FFFFFF
F00000
F00000
F00000
F00000
78001E
7C003E
7C007C
3F00FC
1FC3F8
0FFFF0
07FFE0
01FF80
ENDCHAR
STARTCHAR 011E
ENCODING 286
SWIDTH 700 0
DWIDTH 35 0
BBX 30 44 3 0
BITMAP
01E01E00
00F03C00
007FFC00
003FF000
000FC000
00000000
00000000
00000000
000FC000
007FFC00
01FFFE00
03FFFF80
07F07FC0
0FC007E0
1F0003E0
3E0001F0
3E0000F8
7C0000F8
78000078
78000000
F8000000
F8000000
F0000000
F0000000
F0000000
F0000000
F000FFFC
F000FFFC
F000FFFC
F000003C
F000003C
F800003C
F800007C
7800007C
7C00007C
7C0000FC
3E0000FC
3F0001FC
1F8003FC
0FC007BC
07F87F3C
03FFFE3C
01FFFC3C
003FF03C
ENDCHAR
STARTCHAR 011F
ENCODING 287
SWIDTH 620 0
DWIDTH 31 0
BBX 24 47 3 -11
BITMAP
0F0078
0F00F0
07C1E0
03FFC0
00FF80
001800
000000
000000
000000
01FC00
07FF0F
0FFF8F
1FFFCF
3F00EF
7E007F
7C003F
F8001F
F8001F
F8001F
F0000F
F0000F
F0000F
F0000F
F0000F
F0000F
F8001F
F8001F
F8001F
7C003F
7E007F
3F00EF
3FC3EF
1FFFCF
0FFF8F
03FE0F
00200F
00000F
00000F
00001F
00001E
00003E
00007E
00C3FC
00FFF8
00FFF0
00FFC0
000800
ENDCHAR
STARTCHAR 0120
ENCODING 288
SWIDTH 700 0
DWIDTH 35 0
BBX 30 45 3 1
BITMAP
00078000
000FC000
000FC000
0007C000
00078000
00000000
00000000
00000000
00000000
000FC000
007FFC00
01FFFE00
03FFFF80
07F07FC0
0FC007E0
1F0003E0
3E0001F0
3E0000F8
7C0000F8
78000078
78000000
F8000000
F8000000
F0000000
F0000000
F0000000
F0000000
F000FFFC
F000FFFC
F000FFFC
F000003C
F000003C
F800003C
F800007C
7800007C
7C00007C
7C0000FC
3E0000FC
3F0001FC
1F8003FC
0FC007BC
07F87F3C
03FFFE3C
01FFFC3C
003FF03C
ENDCHAR
STARTCHAR 0121
ENCODING 289
SWIDTH 620 0
DWIDTH 31 0
BBX 24 48 3 -11
BITMAP
001C00
003E00
007E00
007E00
003E00
001800
000000
000000
000000
000000
01FC00
07FF0F
0FFF8F
1FFFCF
3F00EF
7E007F
7C003F
F8001F
F8001F
F8001F
F0000F
F0000F
F0000F
F0000F
F0000F
F0000F
F8001F
F8001F
F8001F
7C003F
7E007F
3F00EF
3FC3EF
1FFFCF
0FFF8F
03FE0F
00200F
00000F
00000F
00001F
00001E
00003E
00007E
00C3FC
00FFF8
00FFF0
00FFC0
000800
ENDCHAR
STARTCHAR 0126
ENCODING 294
SWIDTH 680 0
DWIDTH 34 0
BBX 32 35 1 0
BITMAP
1E00007C
1E00007C
1E00007C
1E00007C
1E00007C
1E00007C
FFFFFFFF
FFFFFFFF
FFFFFFFF
1E00007C
1E00007C
1E00007C
1E00007C
1E00007C
1E00007C
1E00007C
1FFFFFFC
1FFFFFFC
1FFFFFFC
1E00007C
1E00007C
1E00007C
1E00007C
1E00007C
1E00007C
1E00007C
1E00007C
1E00007C
1E00007C
1E00007C
1E00007C
1E00007C
1E00007C
1E00007C
1E00007C
ENDCHAR
STARTCHAR 0127
ENCODING 295
SWIDTH 600 0
DWIDTH 30 0
BBX 28 38 0 0
BITMAP
0F000000
0F000000
0F000000
0F000000
0F000000
FFFF0000
FFFF0000
FFFF0000
0F000000
0F000000
0F000000
0F01FC00
0F07FF00
0F1FFF80
0F3FFFC0
0F380FC0
0F6003E0
0FE003E0
0FC001E0
0F8001E0
0F8001F0
0F8001F0
0F8001F0
0F8001F0
0F8001F0
0F8001F0
0F8001F0
0F8001F0
0F8001F0
0F8001F0
0F8001F0
0F8001F0
0F8001F0
0F8001F0
0F8001F0
0F8001F0
0F8001F0
0F8001F0
ENDCHAR
STARTCHAR 0128
ENCODING 296
SWIDTH 240 0
DWIDTH 12 0
BBX 14 45 -1 0
BITMAP
3E0C
7F1C
FFFC
E3F8
E1F8
0000
0000
0000
0000
0000
0780
0780
0780
0780
0780
0780
0780
0780
0780
0780
0780
0780
0780
0780
0780
0780
0780
0780
0780
0780
0780
0780
0780
0780
0780
0780
0780
0780
0780
0780
0780
0780
0780
0780
0780
ENDCHAR
STARTCHAR 0129
ENCODING 297
SWIDTH 240 0
DWIDTH 12 0
BBX 14 37 -1 0
BITMAP
080C
7E0C
7F9C
F7FC
E1F8
E0F0
0000
0000
0000
0000
0000
0780
0780
0780
0780
0780
0780
0780
0780
0780
0780
0780
0780
0780
0780
0780
0780
0780
0780
0780
0780
0780
0780
0780
0780
0780
0780
ENDCHAR
STARTCHAR 012A
ENCODING 298
SWIDTH 240 0
DWIDTH 12 0
BBX 15 42 -1 0
BITMAP
FFFE
FFFE
0000
0000
0000
0000
0000
0780
0780
0780
0780
0780
0780
0780
0780
0780
0780
0780
0780
0780
0780
0780
0780
0780
0780
0780
0780
0780
0780
0780
0780
0780
0780
0780
0780
0780
0780
0780
0780
0780
0780
0780
ENDCHAR
STARTCHAR 012B
ENCODING 299
SWIDTH 240 0
DWIDTH 12 0
BBX 15 34 -1 0
BITMAP
FFFE
FFFE
FFFE
0000
0000
0000
0000
0000
0780
0780
0780
0780
0780
0780
0780
0780
0780
0780
0780
0780
0780
0780
0780
0780
0780
0780
0780
0780
0780
0780
0780
0780
0780
0780
ENDCHAR
STARTCHAR 012E
ENCODING 302
SWIDTH 240 0
DWIDTH 12 0
BBX 8 43 2 -8
BITMAP
3C
3C
3C
3C
3C
3C
3C
3C
3C
3C
3C
3C
3C
3C
3C
3C
3C
3C
3C
3C
3C
3C
3C
3C
3C
3C
3C
3C
3C
3C
3C
3C
3C
3C
3C
3C
70
70
F0
F0
7D
7F
1F
ENDCHAR
STARTCHAR 012F
ENCODING 303
SWIDTH 240 0
DWIDTH 12 0
BBX 7 45 3 -8
BITMAP
38
7C
FC
FC
7C
30
00
00
00
00
00
78
78
78
78
78
78
78
78
78
78
78
78
78
78
78
78
78
78
78
78
78
78
78
78
78
78
78
E0
E0
E0
E0
FA
FE
3E
ENDCHAR
STARTCHAR 0130
ENCODING 304
SWIDTH 240 0
DWIDTH 12 0
BBX 6 45 3 1
BITMAP
78
FC
FC
7C
78
00
00
00
00
00
78
78
78
78
78
78
78
78
78
78
78
78
78
78
78
78
78
78
78
78
78
78
78
78
78
78
78
78
78
78
78
78
78
78
78
ENDCHAR
STARTCHAR 0131
ENCODING 305
SWIDTH 240 0
DWIDTH 12 0
BBX 4 26 4 0
BITMAP
F0
F0
F0
F0
F0
F0
F0
F0
F0
F0
F0
F0
F0
F0
F0
F0
F0
F0
F0
F0
F0
F0
F0
F0
F0
F0
ENDCHAR
STARTCHAR 0139
ENCODING 313
SWIDTH 520 0
DWIDTH 26 0
BBX 20 48 4 0
BITMAP
07C000
078000
0F0000
0F0000
1E0000
3C0000
3C0000
780000
700000
000000
000000
000000
000000
F00000
F00000
F00000
F00000
F00000
F00000
F00000
F00000
F00000
F00000
F00000
F00000
F00000
F00000
F00000
F00000
F00000
F00000
F00000
F00000
F00000
F00000
F00000
F00000
F00000
F00000
F00000
F00000
F00000
F00000
F00000
FFFFF0
FFFFF0
FFFFF0
FFFFF0
ENDCHAR
STARTCHAR 013A
ENCODING 314
SWIDTH 300 0
DWIDTH 15 0
BBX 10 50 4 0
BITMAP
07C0
0780
0F00
0F00
1E00
3C00
3C00
7800
7000
0000
0000
0000
F000
F000
F000
F000
F000
F000
F000
F000
F000
F000
F000
F000
F000
F000
F000
F000
F000
F000
F000
F000
F000
F000
F000
F000
F000
F000
F000
F000
F000
F000
F000
F000
F000
F800
F800
7FC0
7FC0
1FC0
ENDCHAR
STARTCHAR 013D
ENCODING 317
SWIDTH 520 0
DWIDTH 26 0
BBX 26 46 -2 0
BITMAP
F00F0000
F81E0000
7C3C0000
3E7C0000
1EF80000
0FF00000
07E00000
03C00000
00000000
00000000
00000000
03C00000
03C00000
03C00000
03C00000
03C00000
03C00000
03C00000
03C00000
03C00000
03C00000
03C00000
03C00000
03C00000
03C00000
03C00000
03C00000
03C00000
03C00000
03C00000
03C00000
03C00000
03C00000
03C00000
03C00000
03C00000
03C00000
03C00000
03C00000
03C00000
03C00000
03C00000
03FFFFC0
03FFFFC0
03FFFFC0
03FFFFC0
ENDCHAR
STARTCHAR 013E
ENCODING 318
SWIDTH 340 0
DWIDTH 17 0
BBX 13 39 4 0
BITMAP
01F0
F1F8
F3F8
F3F8
F1F8
F038
F018
F018
F038
F030
F070
F0E0
F080
F000
F000
F000
F000
F000
F000
F000
F000
F000
F000
F000
F000
F000
F000
F000
F000
F000
F000
F000
F000
F000
F800
F800
7FC0
7FC0
1FC0
ENDCHAR
STARTCHAR 0143
ENCODING 323
SWIDTH 700 0
DWIDTH 35 0
BBX 28 48 4 0
BITMAP
00007C00
00007800
0000F000
0001F000
0001E000
0003C000
0003C000
00078000
00070000
00000000
00000000
00000000
00000000
F80000F0
FC0000F0
FC0000F0
FE0000F0
FF0000F0
FF0000F0
FF8000F0
FFC000F0
F7C000F0
F3E000F0
F3F000F0
F1F000F0
F0F800F0
F0FC00F0
F07C00F0
F03E00F0
F03F00F0
F01F00F0
F00F80F0
F00FC0F0
F007C0F0
F003E0F0
F003F0F0
F001F0F0
F000F8F0
F000FCF0
F0007CF0
F0003EF0
F0001FF0
F0001FF0
F0000FF0
F00007F0
F00007F0
F00003F0
F00001F0
ENDCHAR
STARTCHAR 0144
ENCODING 324
SWIDTH 600 0
DWIDTH 30 0
BBX 23 39 4 0
BITMAP
0003E0
0003C0
0007C0
000780
000F00
000F00
001E00
001C00
003C00
000000
000000
000000
003F80
F0FFE0
F3FFF0
F3FFF8
F701FC
FE00FC
FC007C
F8003E
F8003E
F0001E
F0001E
F0001E
F0001E
F0001E
F0001E
F0001E
F0001E
F0001E
F0001E
F0001E
F0001E
F0001E
F0001E
F0001E
F0001E
F0001E
F0001E
ENDCHAR
STARTCHAR 0147
ENCODING 327
SWIDTH 700 0
DWIDTH 35 0
BBX 28 46 4 0
BITMAP
07C03C00
03E07800
01F0F000
00F1E000
007BE000
003FC000
001F8000
000F0000
00000000
00000000
00000000
F80000F0
FC0000F0
FC0000F0
FE0000F0
FF0000F0
FF0000F0
FF8000F0
FFC000F0
F7C000F0
F3E000F0
F3F000F0
F1F000F0
F0F800F0
F0FC00F0
F07C00F0
F03E00F0
F03F00F0
F01F00F0
F00F80F0
F00FC0F0
F007C0F0
F003E0F0
F003F0F0
F001F0F0
F000F8F0
F000FCF0
F0007CF0
F0003EF0
F0001FF0
F0001FF0
F0000FF0
F00007F0
F00007F0
F00003F0
F00001F0
ENDCHAR
STARTCHAR 0148
ENCODING 328
SWIDTH 600 0
DWIDTH 30 0
BBX 23 37 4 0
BITMAP
1F01E0
0F03C0
0787C0
03CF80
01FF00
00FE00
007C00
000000
000000
000000
003F80
F0FFE0
F3FFF0
F3FFF8
F701FC
FE00FC
FC007C
F8003E
F8003E
F0001E
F0001E
F0001E
F0001E
F0001E
F0001E
F0001E
F0001E
F0001E
F0001E
F0001E
F0001E
F0001E
F0001E
F0001E
F0001E
F0001E
F0001E
ENDCHAR
STARTCHAR 014C
ENCODING 332
SWIDTH 720 0
DWIDTH 36 0
BBX 31 42 3 0
BITMAP
00FFFE00
00FFFE00
00000000
00000000
00000000
00000000
000FC000
007FFC00
01FFFF00
03FFFF80
07F87FC0
0FC007E0
1F8003F0
3F0001F0
3E0000F8
7C0000F8
7C00007C
F800007C
F800003C
F800003E
F000003E
F000003E
F000001E
F000001E
F000001E
F000001E
F000003E
F000003E
F000003E
F800003E
F800003C
7800007C
7C00007C
7C0000F8
3E0000F8
3F0001F0
1F8007F0
0FE00FE0
07FFFFC0
03FFFF80
00FFFE00
003FF800
ENDCHAR
STARTCHAR 014D
ENCODING 333
SWIDTH 580 0
DWIDTH 29 0
BBX 24 34 3 0
BITMAP
0FFFE0
0FFFE0
0FFFE0
000000
000000
000000
000000
00FF00
03FFC0
0FFFE0
1FFFF8
3F00F8
3E007C
7C003E
78003E
F8001E
F0001F
F0000F
F0000F
F0000F
F0000F
F0000F
F0000F
F0000F
F0001F
F8001E
78001E
7C003E
7E007C
3F00FC
1FC7F8
0FFFF0
07FFE0
01FF80
ENDCHAR
STARTCHAR 0152
ENCODING 338
SWIDTH 960 0
DWIDTH 48 0
BBX 43 35 2 0
BITMAP
000FFFFFFFE0
007FFFFFFFE0
01FFFFFFFFE0
03FFFFFFFFE0
07F007C00000
0FC007C00000
1F8007C00000
3F0007C00000
3E0007C00000
3C0007C00000
7C0007C00000
7C0007C00000
780007C00000
F80007C00000
F80007C00000
F80007FFFF80
F80007FFFF80
F80007FFFF80
F80007FFFF80
F80007C00000
F80007C00000
F80007C00000
780007C00000
7C0007C00000
7C0007C00000
3E0007C00000
3E0007C00000
3F0007C00000
1F8007C00000
0FC007C00000
07F007C00000
03FFFFFFFFE0
01FFFFFFFFE0
007FFFFFFFE0
001FFFFFFFE0
ENDCHAR
STARTCHAR 0153
ENCODING 339
SWIDTH 980 0
DWIDTH 49 0
BBX 44 27 3 0
BITMAP
00FE0007F000
03FF803FFC00
0FFFE07FFF00
1FFFF0FE3F80
3F01F9F00FC0
3E00F9E003C0
7C007FC003E0
78003FC001E0
F8001F8001E0
F0001F8001F0
F0001F8000F0
F0000F0000F0
F0000FFFFFF0
F0000FFFFFF0
F0000FFFFFF0
F0000F000000
F0001F000000
F0001F800000
F8001F800000
78003F8001E0
7C003FC001E0
7C007DE003C0
3F00F9F00FC0
1FC7F0FC3F80
0FFFE07FFF00
07FFC03FFE00
01FF000FF800
ENDCHAR
STARTCHAR 0154
ENCODING 340
SWIDTH 600 0
DWIDTH 30 0
BBX 24 48 4 0
BITMAP
0003C0
000780
000F80
000F00
001E00
001E00
003C00
003800
007800
000000
000000
000000
000000
FFFF00
FFFFE0
FFFFF0
FFFFF8
F001FC
F0007E
F0003E
F0001E
F0001F
F0001F
F0000F
F0001F
F0001F
F0001E
F0003E
F0007E
F000FC
FFFFF8
FFFFF0
FFFFE0
FFFF00
F01E00
F01F00
F00F80
F00780
F007C0
F003E0
F003E0
F001F0
F000F0
F000F8
F0007C
F0003C
F0003E
F0001F
ENDCHAR
STARTCHAR 0155
ENCODING 341
SWIDTH 340 0
DWIDTH 17 0
BBX 13 39 4 0
BITMAP
00F8
00F0
01E0
03E0
03C0
0780
0780
0F00
0E00
0000
0000
0000
0000
F1F8
F3F8
F7F8
FFF8
FE00
FC00
F800
F000
F000
F000
F000
F000
F000
F000
F000
F000
F000
F000
F000
F000
F000
F000
F000
F000
F000
F000
ENDCHAR
STARTCHAR 0158
ENCODING 344
SWIDTH 600 0
DWIDTH 30 0
BBX 24 46 4 0
BITMAP
3C03E0
1E07C0
0F0F80
079F00
07DE00
03FC00
01F800
00F000
000000
000000
000000
FFFF00
FFFFE0
FFFFF0
FFFFF8
F001FC
F0007E
F0003E
F0001E
F0001F
F0001F
F0000F
F0001F
F0001F
F0001E
F0003E
F0007E
F000FC
FFFFF8
FFFFF0
FFFFE0
FFFF00
F01E00
F01F00
F00F80
F00780
F007C0
F003E0
F003E0
F001F0
F000F0
F000F8
F0007C
F0003C
F0003E
F0001F
ENDCHAR
STARTCHAR 0159
ENCODING 345
SWIDTH 340 0
DWIDTH 17 0
BBX 16 37 1 0
BITMAP
F00F
781E
3C3C
1E78
0FF0
0FF0
07E0
0000
0000
0000
0000
1E3F
1E7F
1EFF
1FFF
1FC0
1F80
1F00
1E00
1E00
1E00
1E00
1E00
1E00
1E00
1E00
1E00
1E00
1E00
1E00
1E00
1E00
1E00
1E00
1E00
1E00
1E00
ENDCHAR
STARTCHAR 015A
ENCODING 346
SWIDTH 580 0
DWIDTH 29 0
BBX 25 48 3 0
BITMAP
0000F800
0000F000
0001E000
0003E000
0003C000
00078000
00078000
000F0000
000E0000
00000000
00000000
00000000
007C0000
03FFC000
0FFFF000
1FFFF800
3F81FC00
3E007C00
7C003E00
78003E00
78001F00
F8001F00
F8001F00
78000000
78000000
7C000000
7E000000
3FC00000
1FFE0000
0FFFC000
03FFF000
007FFC00
0001FE00
00007E00
00001F00
00001F00
00000F00
F0000F80
F8000F80
F8000F00
F8000F00
7C001F00
7E003F00
3F007E00
1FFFFC00
0FFFF800
07FFF000
01FFC000
ENDCHAR
STARTCHAR 015B
ENCODING 347
SWIDTH 480 0
DWIDTH 24 0
BBX 21 39 2 0
BITMAP
0003C0
000780
000F80
000F00
001E00
001E00
003C00
003800
007800
000000
000000
000000
01FC00
0FFF00
1FFFC0
3F8FE0
3C03E0
7C01F0
7801F0
7800F0
780000
7C0000
3E0000
3FC000
1FFE00
0FFF80
01FFE0
000FF0
0001F0
0000F0
F800F8
F800F8
7800F8
7C00F0
7E01F0
3F87E0
1FFFE0
0FFF80
03FE00
ENDCHAR
STARTCHAR 015E
ENCODING 350
SWIDTH 580 0
DWIDTH 29 0
BBX 25 49 3 -13
BITMAP
007C0000
03FFC000
0FFFF000
1FFFF800
3F81FC00
3E007C00
7C003E00
78003E00
78001F00
F8001F00
F8001F00
78000000
78000000
7C000000
7E000000
3FC00000
1FFE0000
0FFFC000
03FFF000
007FFC00
0001FE00
00007E00
00001F00
00001F00
00000F00
F0000F80
F8000F80
F8000F00
F8000F00
7C001F00
7E003F00
3F007E00
1FFFFC00
0FFFF800
07FFF000
01FFC000
00180000
00380000
00380000
003F0000
007FC000
0001C000
0000E000
0000E000
0000C000
0001C000
003FC000
003F0000
00080000
ENDCHAR
STARTCHAR 015F
ENCODING 351
SWIDTH 480 0
DWIDTH 24 0
BBX 21 39 2 -12
BITMAP
01FC00
0FFF00
1FFFC0
3F8FE0
3C03E0
7C01F0
7801F0
7800F0
780000
7C0000
3E0000
3FC000
1FFE00
0FFF80
01FFE0
000FF0
0001F0
0000F0
F800F8
F800F8
7800F8
7C00F0
7E01F0
3F87E0
1FFFE0
0FFF80
03FE00
003000
007000
007000
007F00
00FF80
000380
000180
0001C0
000180
000380
007F00
007E00
ENDCHAR
STARTCHAR 0160
ENCODING 352
SWIDTH 580 0
DWIDTH 29 0
BBX 25 46 3 0
BITMAP
07807800
07C0F000
03E1E000
01F3E000
00F7C000
007F8000
003F0000
001E0000
00000000
00000000
007C0000
03FFC000
0FFFF000
1FFFF800
3F81FC00
3E007C00
7C003E00
78003E00
78001F00
F8001F00
F8001F00
78000000
78000000
7C000000
7E000000
3FC00000
1FFE0000
0FFFC000
03FFF000
007FFC00
0001FE00
00007E00
00001F00
00001F00
00000F00
F0000F80
F8000F80
F8000F00
F8000F00
7C001F00
7E003F00
3F007E00
1FFFFC00
0FFFF800
07FFF000
01FFC000
ENDCHAR
STARTCHAR 0161
ENCODING 353
SWIDTH 480 0
DWIDTH 24 0
BBX 21 37 2 0
BITMAP
1E03E0
0F0780
078F80
03DF00
03FE00
01FC00
00F800
000000
000000
000000
01FC00
0FFF00
1FFFC0
3F8FE0
3C03E0
7C01F0
7801F0
7800F0
780000
7C0000
3E0000
3FC000
1FFE00
0FFF80
01FFE0
000FF0
0001F0
0000F0
F800F8
F800F8
7800F8
7C00F0
7E01F0
3F87E0
1FFFE0
0FFF80
03FE00
ENDCHAR
STARTCHAR 0162
ENCODING 354
SWIDTH 580 0
DWIDTH 29 0
BBX 25 47 2 -12
BITMAP
FFFFFF80
FFFFFF80
FFFFFF80
FFFFFF80
001E0000
001E0000
001E0000
001E0000
001E0000
001E0000
001E0000
001E0000
001E0000
001E0000
001E0000
001E0000
001E0000
001E0000
001E0000
001E0000
001E0000
001E0000
001E0000
001E0000
001E0000
001E0000
001E0000
001E0000
001E0000
001E0000
001E0000
001E0000
001E0000
001E0000
001E0000
00180000
00180000
00380000
003F8000
003FC000
0001C000
0000E000
0000E000
0000E000
0001C000
003FC000
003F8000
ENDCHAR
STARTCHAR 0163
ENCODING 355
SWIDTH 380 0
DWIDTH 19 0
BBX 16 47 2 -12
BITMAP
0F80
0F80
0F80
0F80
0F80
0F80
0F80
0F80
0F80
FFFE
FFFE
FFFE
0F80
0F80
0F80
0F80
0F80
0F80
0F80
0F80
0F80
0F80
0F80
0F80
0F80
0F80
0F80
0F80
0F80
0780
0780
07C0
07FE
03FE
01FE
00E0
00C0
00C0
01FC
01FE
0007
0003
0003
0007
010F
01FE
01FC
ENDCHAR
STARTCHAR 0164
ENCODING 356
SWIDTH 580 0
DWIDTH 29 0
BBX 25 46 2 0
BITMAP
0F807800
07C0F000
03C1E000
01E3C000
00F7C000
007F8000
003F0000
001E0000
00000000
00000000
00000000
FFFFFF80
FFFFFF80
FFFFFF80
FFFFFF80
001E0000
001E0000
001E0000
001E0000
001E0000
001E0000
001E0000
001E0000
001E0000
001E0000
001E0000
001E0000
001E0000
001E0000
001E0000
001E0000
001E0000
001E0000
001E0000
001E0000
001E0000
001E0000
001E0000
001E0000
001E0000
001E0000
001E0000
001E0000
001E0000
001E0000
001E0000
ENDCHAR
STARTCHAR 0165
ENCODING 357
SWIDTH 500 0
DWIDTH 25 0
BBX 22 39 2 0
BITMAP
000078
0000FC
0001FC
0000FC
0F80FC
0F801C
0F800C
0F800C
0F801C
0F8018
0F8038
0F8070
0F8040
FFFE00
FFFE00
FFFE00
0F8000
0F8000
0F8000
0F8000
0F8000
0F8000
0F8000
0F8000
0F8000
0F8000
0F8000
0F8000
0F8000
0F8000
0F8000
0F8000
0F8000
078000
078000
07C000
07FE00
03FE00
01FE00
ENDCHAR
STARTCHAR 0166
ENCODING 358
SWIDTH 580 0
DWIDTH 29 0
BBX 25 35 2 0
BITMAP
FFFFFF80
FFFFFF80
FFFFFF80
FFFFFF80
001E0000
001E0000
001E0000
001E0000
001E0000
001E0000
001E0000
001E0000
001E0000
001E0000
3FFFFE00
3FFFFE00
3FFFFE00
001E0000
001E0000
001E0000
001E0000
001E0000
001E0000
001E0000
001E0000
001E0000
001E0000
001E0000
001E0000
001E0000
001E0000
001E0000
001E0000
001E0000
001E0000
ENDCHAR
STARTCHAR 0167
ENCODING 359
SWIDTH 380 0
DWIDTH 19 0
BBX 15 35 2 0
BITMAP
0780
0780
0780
0780
0780
0780
0780
0780
0780
FFFE
FFFE
FFFE
0780
0780
0780
0780
0F80
0F80
0F80
FFFE
FFFE
0F80
0F80
0F80
0F80
0F80
0F80
0F80
0F80
0780
0780
07C0
07FE
03FE
01FE
ENDCHAR
STARTCHAR 0168
ENCODING 360
SWIDTH 680 0
DWIDTH 34 0
BBX 28 45 3 0
BITMAP
007C1800
00FE3800
01FFF800
01C7F000
01C1F000
00000000
00000000
00000000
00000000
00000000
F80000F0
F80000F0
F80000F0
F80000F0
F80000F0
F80000F0
F80000F0
F80000F0
F80000F0
F80000F0
F80000F0
F80000F0
F80000F0
F80000F0
F80000F0
F80000F0
F80000F0
F80000F0
F80000F0
F80000F0
F80000F0
F80000F0
F80001F0
780001F0
780001E0
7C0001E0
7C0003E0
3C0003E0
3E0007C0
1F000FC0
1FC01F80
0FFFFF00
07FFFE00
03FFFC00
00FFF000
ENDCHAR
STARTCHAR 0169
ENCODING 361
SWIDTH 600 0
DWIDTH 30 0
BBX 23 37 4 0
BITMAP
0101C0
07C1C0
0FF380
0EFF80
1C3F80
1C1E00
000000
000000
000000
000000
000000
F0003E
F0003E
F0003E
F0003E
F0003E
F0003E
F0003E
F0003E
F0003E
F0003E
F0003E
F0003E
F0003E
F0003E
F0003E
F0003E
F0003E
F0003E
F8003E
F8007E
7C00FE
7E01FE
3FCFBE
3FFF3E
0FFE3E
07FC3E
ENDCHAR
STARTCHAR 016A
ENCODING 362
SWIDTH 680 0
DWIDTH 34 0
BBX 28 42 3 0
BITMAP
01FFFC00
01FFFC00
00000000
00000000
00000000
00000000
00000000
F80000F0
F80000F0
F80000F0
F80000F0
F80000F0
F80000F0
F80000F0
F80000F0
F80000F0
F80000F0
F80000F0
F80000F0
F80000F0
F80000F0
F80000F0
F80000F0
F80000F0
F80000F0
F80000F0
F80000F0
F80000F0
F80000F0
F80001F0
780001F0
780001E0
7C0001E0
7C0003E0
3C0003E0
3E0007C0
1F000FC0
1FC01F80
0FFFFF00
07FFFE00
03FFFC00
00FFF000
ENDCHAR
STARTCHAR 016B
ENCODING 363
SWIDTH 600 0
DWIDTH 30 0
BBX 23 34 4 0
BITMAP
1FFFC0
1FFFC0
1FFFC0
000000
000000
000000
000000
000000
F0003E
F0003E
F0003E
F0003E
F0003E
F0003E
F0003E
F0003E
F0003E
F0003E
F0003E
F0003E
F0003E
F0003E
F0003E
F0003E
F0003E
F0003E
F8003E
F8007E
7C00FE
7E01FE
3FCFBE
3FFF3E
0FFE3E
07FC3E
ENDCHAR
STARTCHAR 016E
ENCODING 366
SWIDTH 680 0
DWIDTH 34 0
BBX 28 48 3 0
BITMAP
000F0000
001F8000
0038C000
0030C000
0030E000
0030C000
0039C000
001F8000
00060000
00000000
00000000
00000000
00000000
F80000F0
F80000F0
F80000F0
F80000F0
F80000F0
F80000F0
F80000F0
F80000F0
F80000F0
F80000F0
F80000F0
F80000F0
F80000F0
F80000F0
F80000F0
F80000F0
F80000F0
F80000F0
F80000F0
F80000F0
F80000F0
F80000F0
F80001F0
780001F0
780001E0
7C0001E0
7C0003E0
3C0003E0
3E0007C0
1F000FC0
1FC01F80
0FFFFF00
07FFFE00
03FFFC00
00FFF000
ENDCHAR
STARTCHAR 016F
ENCODING 367
SWIDTH 600 0
DWIDTH 30 0
BBX 23 39 4 0
BITMAP
00F800
01FC00
038E00
030600
030600
038E00
01FC00
00F800
000000
000000
000000
000000
000000
F0003E
F0003E
F0003E
F0003E
F0003E
F0003E
F0003E
F0003E
F0003E
F0003E
F0003E
F0003E
F0003E
F0003E
F0003E
F0003E
F0003E
F0003E
F8003E
F8007E
7C00FE
7E01FE
3FCFBE
3FFF3E
0FFE3E
07FC3E
ENDCHAR
STARTCHAR 0172
ENCODING 370
SWIDTH 680 0
DWIDTH 34 0
BBX 28 43 3 -8
BITMAP
F80000F0
F80000F0
F80000F0
F80000F0
F80000F0
F80000F0
F80000F0
F80000F0
F80000F0
F80000F0
F80000F0
F80000F0
F80000F0
F80000F0
F80000F0
F80000F0
F80000F0
F80000F0
F80000F0
F80000F0
F80000F0
F80000F0
F80001F0
780001F0
780001E0
7C0001E0
7C0003E0
3C0003E0
3E0007C0
1F000FC0
1FC01F80
0FFFFF00
07FFFE00
03FFFC00
00FFF000
000F0000
001E0000
001C0000
003C0000
003C0000
001E0000
001FC000
000FC000
ENDCHAR
STARTCHAR 0173
ENCODING 371
SWIDTH 600 0
DWIDTH 30 0
BBX 24 34 4 -8
BITMAP
F0003E
F0003E
F0003E
F0003E
F0003E
F0003E
F0003E
F0003E
F0003E
F0003E
F0003E
F0003E
F0003E
F0003E
F0003E
F0003E
F0003E
F0003E
F8003E
F8007E
7C00FE
7E01FE
3FCFBE
3FFF3E
0FFE3E
07FC3E
000078
000070
0000E0
0000E0
0000E0
0000FB
00007F
00003F
ENDCHAR
STARTCHAR 0174
ENCODING 372
SWIDTH 980 0
DWIDTH 49 0
BBX 48 46 1 0
BITMAP
000003C00000
000007E00000
00000FF00000
00001EF80000
00003E780000
00007C3C0000
0000F81E0000
0000F00F0000
000000000000
000000000000
000000000000
F00003C0001F
F00007C0001F
F80007E0001E
780007E0001E
78000FE0003E
78000FF0003C
7C000FF0003C
3C001FF0003C
3C001EF8007C
3E001E780078
1E003E780078
1E003C7C0078
1E003C3C00F8
1F007C3C00F0
0F00783C00F0
0F00781E00F0
0F00F81E01E0
0F80F01E01E0
0780F01F01E0
0781F00F03E0
0781E00F03C0
07C1E00F83C0
03C1E00783C0
03C3E00787C0
03C3C007C780
01E3C003C780
01E7C003C780
01E78003EF80
01E78001EF00
00FF8001EF00
00FF0001FF00
00FF0000FE00
00FF0000FE00
007E0000FE00
007E00007E00
ENDCHAR
STARTCHAR 0175
ENCODING 373
SWIDTH 800 0
DWIDTH 40 0
BBX 37 37 2 0
BITMAP
0000F80000
0001FC0000
0003FE0000
0007DE0000
00078F0000
000F078000
001E03C000
0000000000
0000000000
0000000000
0000000000
F000F80078
F000F80078
F800F800F0
7801FC00F0
7801FC00F0
7801FC00F0
3C03FE01E0
3C03DE01E0
3C03DE01E0
3C079E01E0
1E078F03C0
1E078F03C0
1E078F03C0
1E0F078780
0F0F078780
0F0F078780
0F1E03C780
079E03CF00
079E03CF00
07BC01EF00
07BC01EF00
03FC01FE00
03FC01FE00
03F800FE00
01F800FC00
01F800FC00
ENDCHAR
STARTCHAR 0176
ENCODING 374
SWIDTH 600 0
DWIDTH 30 0
BBX 27 46 2 0
BITMAP
001E0000
003F0000
007F8000
007BC000
00F1E000
01E1F000
03C0F800
07807C00
00000000
00000000
00000000
F80003E0
F80007C0
7C0007C0
7C000F80
3E000F80
3E001F00
1F001F00
0F003E00
0F803E00
07807C00
07C07800
03C0F800
03E0F000
01E1F000
01F1E000
00F3E000
00FBC000
007FC000
007F8000
003F8000
003F0000
001F0000
001E0000
001E0000
001E0000
001E0000
001E0000
001E0000
001E0000
001E0000
001E0000
001E0000
001E0000
001E0000
001E0000
ENDCHAR
STARTCHAR 0177
ENCODING 375
SWIDTH 520 0
DWIDTH 26 0
BBX 23 47 2 -10
BITMAP
007C00
00FE00
01FF00
03EF00
03C780
0783C0
0F01E0
000000
000000
000000
000000
F0001E
F8001E
78003E
78003C
7C007C
3C0078
3C0078
1E00F8
1E00F0
1F00F0
0F01E0
0F01E0
0F83E0
0783C0
0783C0
03C780
03C780
03C780
01EF00
01EF00
00FE00
00FE00
00FC00
007C00
007C00
007800
00F800
00F000
00F000
01F000
01E000
03E000
0FC000
FF8000
FF0000
FE0000
ENDCHAR
STARTCHAR 0178
ENCODING 376
SWIDTH 600 0
DWIDTH 30 0
BBX 27 46 2 0
BITMAP
00800000
03E0F000
03E1F800
03E1F800
03E0F800
01C0F000
00000000
00000000
00000000
00000000
00000000
F80003E0
F80007C0
7C0007C0
7C000F80
3E000F80
3E001F00
1F001F00
0F003E00
0F803E00
07807C00
07C07800
03C0F800
03E0F000
01E1F000
01F1E000
00F3E000
00FBC000
007FC000
007F8000
003F8000
003F0000
001F0000
001E0000
001E0000
001E0000
001E0000
001E0000
001E0000
001E0000
001E0000
001E0000
001E0000
001E0000
001E0000
001E0000
ENDCHAR
STARTCHAR 0179
ENCODING 377
SWIDTH 600 0
DWIDTH 30 0
BBX 24 48 3 0
BITMAP
0000F0
0001F0
0001E0
0003C0
0007C0
000780
000F00
000F00
001E00
000000
000000
000000
000000
FFFFFF
FFFFFF
FFFFFF
FFFFFF
00001F
00003E
00007E
00007C
0000F8
0001F0
0003F0
0003E0
0007C0
000F80
000F80
001F00
003E00
007E00
007C00
00F800
01F000
03F000
03E000
07C000
0FC000
0F8000
1F0000
3E0000
7E0000
7C0000
F80000
FFFFFF
FFFFFF
FFFFFF
FFFFFF
ENDCHAR
STARTCHAR 017A
ENCODING 378
SWIDTH 480 0
DWIDTH 24 0
BBX 20 39 3 0
BITMAP
000780
000F80
000F00
001E00
001E00
003C00
003800
007800
007000
000000
000000
000000
000000
FFFFF0
FFFFF0
FFFFF0
0001E0
0003E0
0007C0
000F80
000F00
001E00
003E00
007C00
00F800
00F000
01E000
03E000
07C000
0F8000
0F0000
1E0000
3E0000
7C0000
F80000
FFFFF0
FFFFF0
FFFFF0
FFFFF0
ENDCHAR
STARTCHAR 017B
ENCODING 379
SWIDTH 600 0
DWIDTH 30 0
BBX 24 46 3 0
BITMAP
000800
003C00
003E00
007E00
003E00
001C00
000000
000000
000000
000000
000000
FFFFFF
FFFFFF
FFFFFF
FFFFFF
00001F
00003E
00007E
00007C
0000F8
0001F0
0003F0
0003E0
0007C0
000F80
000F80
001F00
003E00
007E00
007C00
00F800
01F000
03F000
03E000
07C000
0FC000
0F8000
1F0000
3E0000
7E0000
7C0000
F80000
FFFFFF
FFFFFF
FFFFFF
FFFFFF
ENDCHAR
STARTCHAR 017C
ENCODING 380
SWIDTH 480 0
DWIDTH 24 0
BBX 20 37 3 0
BITMAP
00E000
01F000
01F800
01F000
01F000
00E000
000000
000000
000000
000000
000000
FFFFF0
FFFFF0
FFFFF0
0001E0
0003E0
0007C0
000F80
000F00
001E00
003E00
007C00
00F800
00F000
01E000
03E000
07C000
0F8000
0F0000
1E0000
3E0000
7C0000
F80000
FFFFF0
FFFFF0
FFFFF0
FFFFF0
ENDCHAR
STARTCHAR 017D
ENCODING 381
SWIDTH 600 0
DWIDTH 30 0
BBX 24 46 3 0
BITMAP
0F00F8
0781F0
03C3E0
01E3C0
00F780
00FF00
007E00
003C00
000000
000000
000000
FFFFFF
FFFFFF
FFFFFF
FFFFFF
00001F
00003E
00007E
00007C
0000F8
0001F0
0003F0
0003E0
0007C0
000F80
000F80
001F00
003E00
007E00
007C00
00F800
01F000
03F000
03E000
07C000
0FC000
0F8000
1F0000
3E0000
7E0000
7C0000
F80000
FFFFFF
FFFFFF
FFFFFF
FFFFFF
ENDCHAR
STARTCHAR 017E
ENCODING 382
SWIDTH 480 0
DWIDTH 24 0
BBX 20 37 3 0
BITMAP
3C03C0
1E0780
0F0F00
0F9E00
07FC00
03F800
01F000
000000
000000
000000
000000
FFFFF0
FFFFF0
FFFFF0
0001E0
0003E0
0007C0
000F80
000F00
001E00
003E00
007C00
00F800
00F000
01E000
03E000
07C000
0F8000
0F0000
1E0000
3E0000
7C0000
F80000
FFFFF0
FFFFF0
FFFFF0
FFFFF0
ENDCHAR
STARTCHAR 01A0
ENCODING 416
SWIDTH 720 0
DWIDTH 36 0
BBX 31 40 3 0
BITMAP
00000078
00000078
00000078
00000070
000FC0F0
007FFFF0
01FFFFE0
03FFFF80
07F87FC0
0FC007E0
1F8003F0
3F0001F0
3E0000F8
7C0000F8
7C00007C
F800007C
F800003C
F800003E
F000003E
F000003E
F000001E
F000001E
F000001E
F000001E
F000003E
F000003E
F000003E
F800003E
F800003C
7800007C
7C00007C
7C0000F8
3E0000F8
3F0001F0
1F8007F0
0FE00FE0
07FFFFC0
03FFFF80
00FFFE00
003FF800
ENDCHAR
STARTCHAR 01A1
ENCODING 417
SWIDTH 600 0
DWIDTH 30 0
BBX 24 31 3 0
BITMAP
000007
000007
000007
000007
00FF1F
03FFFE
0FFFFC
1FFFF8
3F00F8
3E007C
7C003E
78003E
F8001E
F0001F
F0000F
F0000F
F0000F
F0000F
F0000F
F0000F
F0000F
F0001F
F8001E
78001E
7C003E
7E007C
3F00FC
1FC7F8
0FFFF0
07FFE0
01FF80
ENDCHAR
STARTCHAR 01AF
ENCODING 431
SWIDTH 680 0
DWIDTH 34 0
BBX 33 40 3 0
BITMAP
0000000380
0000000380
0000000380
0000000380
0000000780
F80000FF00
F80000FE00
F80000F000
F80000F000
F80000F000
F80000F000
F80000F000
F80000F000
F80000F000
F80000F000
F80000F000
F80000F000
F80000F000
F80000F000
F80000F000
F80000F000
F80000F000
F80000F000
F80000F000
F80000F000
F80000F000
F80000F000
F80001F000
780001F000
780001E000
7C0001E000
7C0003E000
3C0003E000
3E0007C000
1F000FC000
1FC01F8000
0FFFFF0000
07FFFE0000
03FFFC0000
00FFF00000
ENDCHAR
STARTCHAR 01B0
ENCODING 432
SWIDTH 600 0
DWIDTH 30 0
BBX 28 31 4 0
BITMAP
00000070
00000070
00000070
000000F0
000001F0
F0003FE0
F0003F80
F0003E00
F0003E00
F0003E00
F0003E00
F0003E00
F0003E00
F0003E00
F0003E00
F0003E00
F0003E00
F0003E00
F0003E00
F0003E00
F0003E00
F0003E00
F0003E00
F8003E00
F8007E00
7C00FE00
7E01FE00
3FCFBE00
3FFF3E00
0FFE3E00
07FC3E00
ENDCHAR
STARTCHAR 02C6
ENCODING 710
SWIDTH 400 0
DWIDTH 20 0
BBX 16 7 2 30
BITMAP
03E0
07E0
0FF0
1F78
3E3C
7C1E
F80F
ENDCHAR
STARTCHAR 02C7
ENCODING 711
SWIDTH 380 0
DWIDTH 19 0
BBX 16 7 2 30
BITMAP
F00F
781E
3C3C
1E78
0FF0
0FE0
07E0
ENDCHAR
STARTCHAR 02D8
ENCODING 728
SWIDTH 380 0
DWIDTH 19 0
BBX 16 6 2 30
BITMAP
E007
F00F
7C3E
3FFC
1FF8
01C0
ENDCHAR
STARTCHAR 02D9
ENCODING 729
SWIDTH 160 0
DWIDTH 8 0
BBX 5 6 2 31
BITMAP
70
F8
F8
F8
F8
70
ENDCHAR
STARTCHAR 02DA
ENCODING 730
SWIDTH 220 0
DWIDTH 11 0
BBX 8 8 2 31
BITMAP
7C
FE
C3
C3
C3
C3
FE
7E
ENDCHAR
STARTCHAR 02DB
ENCODING 731
SWIDTH 200 0
DWIDTH 10 0
BBX 7 9 2 -9
BITMAP
30
78
F0
E0
E0
E0
F0
FE
7E
ENDCHAR
STARTCHAR 02DC
ENCODING 732
SWIDTH 380 0
DWIDTH 19 0
BBX 15 6 2 31
BITMAP
080E
3F0E
7F8E
77FC
E1FC
E078
ENDCHAR
STARTCHAR 0300
ENCODING 768
SWIDTH 0 0
DWIDTH 0 0
BBX 9 9 -11 31
BITMAP
F000
7800
7800
3C00
1E00
1E00
0F00
0700
0780
ENDCHAR
STARTCHAR 0301
ENCODING 769
SWIDTH 0 0
DWIDTH 0 0
BBX 8 9 -9 31
BITMAP
0F
1F
1E
3C
3C
78
70
F0
E0
ENDCHAR
STARTCHAR 0302
ENCODING 770
SWIDTH 0 0
DWIDTH 0 0
BBX 16 7 -17 30
BITMAP
07C0
0FE0
0FF0
1EF8
3C7C
783C
F01F
ENDCHAR
STARTCHAR 0303
ENCODING 771
SWIDTH 0 0
DWIDTH 0 0
BBX 15 6 -16 31
BITMAP
080E
3E0E
7F9C
77FC
E1FC
E0F0
ENDCHAR
STARTCHAR 0304
ENCODING 772
SWIDTH 0 0
DWIDTH 0 0
BBX 15 2 -18 32
BITMAP
FFFE
FFFE
ENDCHAR
STARTCHAR 0306
ENCODING 774
SWIDTH 0 0
DWIDTH 0 0
BBX 17 6 -18 30
BITMAP
F00780
700F00
7C1E00
3FFC00
0FF800
008000
ENDCHAR
STARTCHAR 0307
ENCODING 775
SWIDTH 0 0
DWIDTH 0 0
BBX 6 6 -9 31
BITMAP
70
F8
FC
FC
F8
30
ENDCHAR
STARTCHAR 0308
ENCODING 776
SWIDTH 0 0
DWIDTH 0 0
BBX 16 6 -19 31
BITMAP
301C
783E
FC3F
FC3F
783E
300C
ENDCHAR
STARTCHAR 0309
ENCODING 777
SWIDTH 0 0
DWIDTH 0 0
BBX 10 9 -12 31
BITMAP
3F80
7FC0
F3C0
E1C0
01C0
01C0
0380
0700
0E00
ENDCHAR
STARTCHAR 030A
ENCODING 778
SWIDTH 0 0
DWIDTH 0 0
BBX 8 8 -11 31
BITMAP
3E
7F
C3
C3
C3
C3
FF
7E
ENDCHAR
STARTCHAR 030C
ENCODING 780
SWIDTH 0 0
DWIDTH 0 0
BBX 16 7 -18 30
BITMAP
F01F
783E
7C3C
3E78
1FF0
0FE0
07C0
ENDCHAR
STARTCHAR 031B
ENCODING 795
SWIDTH 0 0
DWIDTH 0 0
BBX 9 7 -10 27
BITMAP
0780
0780
0700
0700
FF00
FE00
F000
ENDCHAR
STARTCHAR 0323
ENCODING 803
SWIDTH 0 0
DWIDTH 0 0
BBX 5 5 -6 -11
BITMAP
F8
F8
F8
F8
70
ENDCHAR
STARTCHAR 0327
ENCODING 807
SWIDTH 0 0
DWIDTH 0 0
BBX 9 12 -11 -12
BITMAP
3000
7000
6000
7F00
FF80
0380
0180
0180
0180
0380
7F00
7E00
ENDCHAR
STARTCHAR 0328
ENCODING 808
SWIDTH 0 0
DWIDTH 0 0
BBX 7 9 -9 -9
BITMAP
30
78
F0
E0
E0
E0
F0
FE
7E
ENDCHAR
STARTCHAR 1E80
ENCODING 7808
SWIDTH 980 0
DWIDTH 49 0
BBX 48 48 1 0
BITMAP
0000F8000000
000078000000
00007C000000
00003C000000
00001E000000
00001E000000
00000F000000
000007000000
000007800000
000000000000
000000000000
000000000000
000000000000
F00003C0001F
F00007C0001F
F80007E0001E
780007E0001E
78000FE0003E
78000FF0003C
7C000FF0003C
3C001FF0003C
3C001EF8007C
3E001E780078
1E003E780078
1E003C7C0078
1E003C3C00F8
1F007C3C00F0
0F00783C00F0
0F00781E00F0
0F00F81E01E0
0F80F01E01E0
0780F01F01E0
0781F00F03E0
0781E00F03C0
07C1E00F83C0
03C1E00783C0
03C3E00787C0
03C3C007C780
01E3C003C780
01E7C003C780
01E78003EF80
01E78001EF00
00FF8001EF00
00FF0001FF00
00FF0000FE00
00FF0000FE00
007E0000FE00
007E00007E00
ENDCHAR
STARTCHAR 1E81
ENCODING 7809
SWIDTH 800 0
DWIDTH 40 0
BBX 37 39 2 0
BITMAP
001E000000
001F000000
000F000000
0007800000
0007C00000
0003C00000
0001E00000
0000E00000
0000F00000
0000000000
0000000000
0000000000
0000000000
F000F80078
F000F80078
F800F800F0
7801FC00F0
7801FC00F0
7801FC00F0
3C03FE01E0
3C03DE01E0
3C03DE01E0
3C079E01E0
1E078F03C0
1E078F03C0
1E078F03C0
1E0F078780
0F0F078780
0F0F078780
0F1E03C780
079E03CF00
079E03CF00
07BC01EF00
07BC01EF00
03FC01FE00
03FC01FE00
03F800FE00
01F800FC00
01F800FC00
ENDCHAR
STARTCHAR 1E82
ENCODING 7810
SWIDTH 980 0
DWIDTH 49 0
BBX 48 48 1 0
BITMAP
0000001F0000
0000001E0000
0000003C0000
0000007C0000
000000780000
000000F00000
000000F00000
000001E00000
000001C00000
000000000000
000000000000
000000000000
000000000000
F00003C0001F
F00007C0001F
F80007E0001E
780007E0001E
78000FE0003E
78000FF0003C
7C000FF0003C
3C001FF0003C
3C001EF8007C
3E001E780078
1E003E780078
1E003C7C0078
1E003C3C00F8
1F007C3C00F0
0F00783C00F0
0F00781E00F0
0F00F81E01E0
0F80F01E01E0
0780F01F01E0
0781F00F03E0
0781E00F03C0
07C1E00F83C0
03C1E00783C0
03C3E00787C0
03C3C007C780
01E3C003C780
01E7C003C780
01E78003EF80
01E78001EF00
00FF8001EF00
00FF0001FF00
00FF0000FE00
00FF0000FE00
007E0000FE00
007E00007E00
ENDCHAR
STARTCHAR 1E83
ENCODING 7811
SWIDTH 800 0
DWIDTH 40 0
BBX 37 39 2 0
BITMAP
000003C000
0000078000
00000F8000
00000F0000
00001E0000
00001E0000
00003C0000
0000380000
0000780000
0000000000
0000000000
0000000000
0000000000
F000F80078
F000F80078
F800F800F0
7801FC00F0
7801FC00F0
7801FC00F0
3C03FE01E0
3C03DE01E0
3C03DE01E0
3C079E01E0
1E078F03C0
1E078F03C0
1E078F03C0
1E0F078780
0F0F078780
0F0F078780
0F1E03C780
079E03CF00
079E03CF00
07BC01EF00
07BC01EF00
03FC01FE00
03FC01FE00
03F800FE00
01F800FC00
01F800FC00
ENDCHAR
STARTCHAR 1E84
ENCODING 7812
SWIDTH 980 0
DWIDTH 49 0
BBX 48 45 1 1
BITMAP
0000781E0000
0000FC3F0000
0000FC3F0000
0000FC3E0000
0000781E0000
000000000000
000000000000
000000000000
000000000000
000000000000
F00003C0001F
F00007C0001F
F80007E0001E
780007E0001E
78000FE0003E
78000FF0003C
7C000FF0003C
3C001FF0003C
3C001EF8007C
3E001E780078
1E003E780078
1E003C7C0078
1E003C3C00F8
1F007C3C00F0
0F00783C00F0
0F00781E00F0
0F00F81E01E0
0F80F01E01E0
0780F01F01E0
0781F00F03E0
0781E00F03C0
07C1E00F83C0
03C1E00783C0
03C3E00787C0
03C3C007C780
01E3C003C780
01E7C003C780
01E78003EF80
01E78001EF00
00FF8001EF00
00FF0001FF00
00FF0000FE00
00FF0000FE00
007E0000FE00
007E00007E00
ENDCHAR
STARTCHAR 1E85
ENCODING 7813
SWIDTH 800 0
DWIDTH 40 0
BBX 37 37 2 0
BITMAP
000E038000
001F07C000
001F07C000
001F07C000
001F07C000
000E038000
0000000000
0000000000
0000000000
0000000000
0000000000
F000F80078
F000F80078
F800F800F0
7801FC00F0
7801FC00F0
7801FC00F0
3C03FE01E0
3C03DE01E0
3C03DE01E0
3C079E01E0
1E078F03C0
1E078F03C0
1E078F03C0
1E0F078780
0F0F078780
0F0F078780
0F1E03C780
079E03CF00
079E03CF00
07BC01EF00
07BC01EF00
03FC01FE00
03FC01FE00
03F800FE00
01F800FC00
01F800FC00
ENDCHAR
STARTCHAR 1EA0
ENCODING 7840
SWIDTH 680 0
DWIDTH 34 0
BBX 30 46 2 -11
BITMAP
00078000
000FC000
000FC000
000FC000
001FE000
001FE000
003FF000
003CF000
003CF000
00787800
00787800
00787800
00F03C00
00F03C00
01F03E00
01E01E00
01E01E00
03E01F00
03C00F00
03C00F00
07800780
07FFFF80
0FFFFFC0
0FFFFFC0
0FFFFFC0
1F0003E0
1E0001E0
1E0001E0
3E0000F0
3C0000F0
7C0000F8
78000078
78000078
F800007C
F000003C
00000000
00000000
00000000
00000000
00000000
00000000
00078000
000FC000
000FC000
000FC000
00078000
ENDCHAR
STARTCHAR 1EA1
ENCODING 7841
SWIDTH 620 0
DWIDTH 31 0
BBX 25 38 2 -11
BITMAP
00FE0000
03FF8780
07FFC780
0FFFE780
1F80F780
3F003780
3E001F80
7C001F80
7C000F80
78000F80
78000F80
F8000780
F8000780
F8000780
F8000780
F8000780
78000F80
78000F80
7C000F80
7C001F80
3E001F80
3E003F80
1F807780
1FE3E780
0FFFC780
07FF8780
01FF0780
00000000
00000000
00000000
00000000
00000000
00000000
001F0000
001F0000
001F0000
001F0000
000E0000
ENDCHAR
STARTCHAR 1EA2
ENCODING 7842
SWIDTH 680 0
DWIDTH 34 0
BBX 30 48 2 0
BITMAP
00078000
001FE000
003FF000
00387000
00007000
00007000
0000F000
0001E000
0003C000
00000000
00000000
00000000
00000000
00078000
000FC000
000FC000
000FC000
001FE000
001FE000
003FF000
003CF000
003CF000
00787800
00787800
00787800
00F03C00
00F03C00
01F03E00
01E01E00
01E01E00
03E01F00
03C00F00
03C00F00
07800780
07FFFF80
0FFFFFC0
0FFFFFC0
0FFFFFC0
1F0003E0
1E0001E0
1E0001E0
3E0000F0
3C0000F0
7C0000F8
78000078
78000078
F800007C
F000003C
ENDCHAR
STARTCHAR 1EA3
ENCODING 7843
SWIDTH 620 0
DWIDTH 31 0
BBX 25 39 2 0
BITMAP
003F0000
007FC000
00FBC000
00E1E000
0001E000
0001C000
0003C000
00078000
000F0000
00000000
00000000
00000000
00FE0000
03FF8780
07FFC780
0FFFE780
1F80F780
3F003780
3E001F80
7C001F80
7C000F80
78000F80
78000F80
F8000780
F8000780
F8000780
F8000780
F8000780
78000F80
78000F80
7C000F80
7C001F80
3E001F80
3E003F80
1F807780
1FE3E780
0FFFC780
07FF8780
01FF0780
ENDCHAR
STARTCHAR 1EA4
ENCODING 7844
SWIDTH 680 0
DWIDTH 34 0
BBX 31 54 2 0
BITMAP
0000003E
0000007C
00000078
000000F0
000000F0
000001E0
000001C0
000003C0
00078380
000FC400
001FE000
003FF000
007CF800
00F87800
00F03C00
01E01E00
00000000
00000000
00000000
00078000
000FC000
000FC000
000FC000
001FE000
001FE000
003FF000
003CF000
003CF000
00787800
00787800
00787800
00F03C00
00F03C00
01F03E00
01E01E00
01E01E00
03E01F00
03C00F00
03C00F00
07800780
07FFFF80
0FFFFFC0
0FFFFFC0
0FFFFFC0
1F0003E0
1E0001E0
1E0001E0
3E0000F0
3C0000F0
7C0000F8
78000078
78000078
F800007C
F000003C
ENDCHAR
STARTCHAR 1EA5
ENCODING 7845
SWIDTH 620 0
DWIDTH 31 0
BBX 29 45 2 0
BITMAP
000000F8
000000F0
000001E0
000003E0
000003C0
00000780
00000780
00000F00
001F0E00
003F8000
007F8000
00FBC000
01F1E000
01E0F000
03C07800
04000000
00000000
00000000
00FE0000
03FF8780
07FFC780
0FFFE780
1F80F780
3F003780
3E001F80
7C001F80
7C000F80
78000F80
78000F80
F8000780
F8000780
F8000780
F8000780
F8000780
78000F80
78000F80
7C000F80
7C001F80
3E001F80
3E003F80
1F807780
1FE3E780
0FFFC780
07FF8780
01FF0780
ENDCHAR
STARTCHAR 1EA6
ENCODING 7846
SWIDTH 680 0
DWIDTH 34 0
BBX 30 54 2 0
BITMAP
0001F000
0000F000
0000F800
00007800
00003C00
00003C00
00001E00
00000F00
00078F00
000FC000
001FE000
003FF000
007CF800
00F87800
00F03C00
01E01E00
00000000
00000000
00000000
00078000
000FC000
000FC000
000FC000
001FE000
001FE000
003FF000
003CF000
003CF000
00787800
00787800
00787800
00F03C00
00F03C00
01F03E00
01E01E00
01E01E00
03E01F00
03C00F00
03C00F00
07800780
07FFFF80
0FFFFFC0
0FFFFFC0
0FFFFFC0
1F0003E0
1E0001E0
1E0001E0
3E0000F0
3C0000F0
7C0000F8
78000078
78000078
F800007C
F000003C
ENDCHAR
STARTCHAR 1EA7
ENCODING 7847
SWIDTH 620 0
DWIDTH 31 0
BBX 25 45 2 0
BITMAP
0003C000
0003E000
0001E000
0000F000
0000F000
00007800
00003C00
00003C00
001F1E00
003F8000
007F8000
00FBC000
01F1E000
01E0F000
03C07800
04000000
00000000
00000000
00FE0000
03FF8780
07FFC780
0FFFE780
1F80F780
3F003780
3E001F80
7C001F80
7C000F80
78000F80
78000F80
F8000780
F8000780
F8000780
F8000780
F8000780
78000F80
78000F80
7C000F80
7C001F80
3E001F80
3E003F80
1F807780
1FE3E780
0FFFC780
07FF8780
01FF0780
ENDCHAR
STARTCHAR 1EA8
ENCODING 7848
SWIDTH 680 0
DWIDTH 34 0
BBX 30 54 2 0
BITMAP
00000FC0
00001FE0
00003FF0
00007870
00000070
00000070
000000E0
000003C0
00078780
000FC000
001FE000
003FF000
007CF800
00F87800
00F03C00
01E01E00
00000000
00000000
00000000
00078000
000FC000
000FC000
000FC000
001FE000
001FE000
003FF000
003CF000
003CF000
00787800
00787800
00787800
00F03C00
00F03C00
01F03E00
01E01E00
01E01E00
03E01F00
03C00F00
03C00F00
07800780
07FFFF80
0FFFFFC0
0FFFFFC0
0FFFFFC0
1F0003E0
1E0001E0
1E0001E0
3E0000F0
3C0000F0
7C0000F8
78000078
78000078
F800007C
F000003C
ENDCHAR
STARTCHAR 1EA9
ENCODING 7849
SWIDTH 620 0
DWIDTH 31 0
BBX 26 45 2 0
BITMAP
00003F80
00007FC0
0000F3C0
0000E1C0
000001C0
000001C0
00000380
00000F00
001F1E00
003F8000
007F8000
00FBC000
01F1E000
01E0F000
03C07800
04000000
00000000
00000000
00FE0000
03FF8780
07FFC780
0FFFE780
1F80F780
3F003780
3E001F80
7C001F80
7C000F80
78000F80
78000F80
F8000780
F8000780
F8000780
F8000780
F8000780
78000F80
78000F80
7C000F80
7C001F80
3E001F80
3E003F80
1F807780
1FE3E780
0FFFC780
07FF8780
01FF0780
ENDCHAR
STARTCHAR 1EAA
ENCODING 7850
SWIDTH 680 0
DWIDTH 34 0
BBX 30 53 2 0
BITMAP
003C0C00
007F1C00
00FFFC00
00E3F800
00E1F800
00E00000
00000000
00078000
000FC000
001FE000
003FF000
007CF800
00787800
00F03C00
01E01E00
00000000
00000000
00000000
00078000
000FC000
000FC000
000FC000
001FE000
001FE000
003FF000
003CF000
003CF000
00787800
00787800
00787800
00F03C00
00F03C00
01F03E00
01E01E00
01E01E00
03E01F00
03C00F00
03C00F00
07800780
07FFFF80
0FFFFFC0
0FFFFFC0
0FFFFFC0
1F0003E0
1E0001E0
1E0001E0
3E0000F0
3C0000F0
7C0000F8
78000078
78000078
F800007C
F000003C
ENDCHAR
STARTCHAR 1EAB
ENCODING 7851
SWIDTH 620 0
DWIDTH 31 0
BBX 25 44 2 0
BITMAP
00F83800
01FE3000
01FFF000
038FF000
0383E000
00000000
00000000
001F0000
003F8000
007F8000
00FBC000
01F1E000
01E0F000
03C07800
04000000
00000000
00000000
00FE0000
03FF8780
07FFC780
0FFFE780
1F80F780
3F003780
3E001F80
7C001F80
7C000F80
78000F80
78000F80
F8000780
F8000780
F8000780
F8000780
F8000780
78000F80
78000F80
7C000F80
7C001F80
3E001F80
3E003F80
1F807780
1FE3E780
0FFFC780
07FF8780
01FF0780
ENDCHAR
STARTCHAR 1EAC
ENCODING 7852
SWIDTH 680 0
DWIDTH 34 0
BBX 30 57 2 -11
BITMAP
00078000
000FC000
001FE000
003FF000
007CF800
00F87800
00F03C00
01E01E00
00000000
00000000
00000000
00078000
000FC000
000FC000
000FC000
001FE000
001FE000
003FF000
003CF000
003CF000
00787800
00787800
00787800
00F03C00
00F03C00
01F03E00
01E01E00
01E01E00
03E01F00
03C00F00
03C00F00
07800780
07FFFF80
0FFFFFC0
0FFFFFC0
0FFFFFC0
1F0003E0
1E0001E0
1E0001E0
3E0000F0
3C0000F0
7C0000F8
78000078
78000078
F800007C
F000003C
00000000
00000000
00000000
00000000
00000000
00000000
00078000
000FC000
000FC000
000FC000
00078000
ENDCHAR
STARTCHAR 1EAD
ENCODING 7853
SWIDTH 620 0
DWIDTH 31 0
BBX 25 48 2 -11
BITMAP
001F0000
003F8000
007F8000
00FBC000
01F1E000
01E0F000
03C07800
04000000
00000000
00000000
00FE0000
03FF8780
07FFC780
0FFFE780
1F80F780
3F003780
3E001F80
7C001F80
7C000F80
78000F80
78000F80
F8000780
F8000780
F8000780
F8000780
F8000780
78000F80
78000F80
7C000F80
7C001F80
3E001F80
3E003F80
1F807780
1FE3E780
0FFFC780
07FF8780
01FF0780
00000000
00000000
00000000
00000000
00000000
00000000
001F0000
001F0000
001F0000
001F0000
000E0000
ENDCHAR
STARTCHAR 1EAE
ENCODING 7854
SWIDTH 680 0
DWIDTH 34 0
BBX 30 55 2 0
BITMAP
00003E00
00003C00
00007800
00007800
0000F000
0000E000
0001E000
0003C000
00038000
00000000
00000000
01E01E00
00F03C00
007FF800
003FF000
000FC000
00000000
00000000
00000000
00000000
00078000
000FC000
000FC000
000FC000
001FE000
001FE000
003FF000
003CF000
003CF000
00787800
00787800
00787800
00F03C00
00F03C00
01F03E00
01E01E00
01E01E00
03E01F00
03C00F00
03C00F00
07800780
07FFFF80
0FFFFFC0
0FFFFFC0
0FFFFFC0
1F0003E0
1E0001E0
1E0001E0
3E0000F0
3C0000F0
7C0000F8
78000078
78000078
F800007C
F000003C
ENDCHAR
STARTCHAR 1EAF
ENCODING 7855
SWIDTH 620 0
DWIDTH 31 0
BBX 25 46 2 0
BITMAP
0000F800
0000F000
0001F000
0001E000
0003C000
0003C000
00078000
00070000
000F0000
00000000
07803C00
03807800
03E0F000
01FFE000
007FC000
00040000
00000000
00000000
00000000
00FE0000
03FF8780
07FFC780
0FFFE780
1F80F780
3F003780
3E001F80
7C001F80
7C000F80
78000F80
78000F80
F8000780
F8000780
F8000780
F8000780
F8000780
78000F80
78000F80
7C000F80
7C001F80
3E001F80
3E003F80
1F807780
1FE3E780
0FFFC780
07FF8780
01FF0780
ENDCHAR
STARTCHAR 1EB0
ENCODING 7856
SWIDTH 680 0
DWIDTH 34 0
BBX 30 55 2 0
BITMAP
01F00000
00F00000
00780000
007C0000
003C0000
001E0000
001E0000
000F0000
00070000
00000000
00000000
01E01E00
00F03C00
007FF800
003FF000
000FC000
00000000
00000000
00000000
00000000
00078000
000FC000
000FC000
000FC000
001FE000
001FE000
003FF000
003CF000
003CF000
00787800
00787800
00787800
00F03C00
00F03C00
01F03E00
01E01E00
01E01E00
03E01F00
03C00F00
03C00F00
07800780
07FFFF80
0FFFFFC0
0FFFFFC0
0FFFFFC0
1F0003E0
1E0001E0
1E0001E0
3E0000F0
3C0000F0
7C0000F8
78000078
78000078
F800007C
F000003C
ENDCHAR
STARTCHAR 1EB1
ENCODING 7857
SWIDTH 620 0
DWIDTH 31 0
BBX 25 46 2 0
BITMAP
03C00000
01E00000
01F00000
00F00000
00780000
00780000
003C0000
001C0000
001E0000
00000000
07803C00
03C07800
03E0F000
01FFE000
007FC000
00040000
00000000
00000000
00000000
00FE0000
03FF8780
07FFC780
0FFFE780
1F80F780
3F003780
3E001F80
7C001F80
7C000F80
78000F80
78000F80
F8000780
F8000780
F8000780
F8000780
F8000780
78000F80
78000F80
7C000F80
7C001F80
3E001F80
3E003F80
1F807780
1FE3E780
0FFFC780
07FF8780
01FF0780
ENDCHAR
STARTCHAR 1EB2
ENCODING 7858
SWIDTH 680 0
DWIDTH 34 0
BBX 30 55 2 0
BITMAP
0007C000
001FE000
003FF000
00387000
00007000
00007000
0000F000
0001E000
00038000
00000000
00000000
01E01E00
00F03C00
007FF800
003FF000
000FC000
00000000
00000000
00000000
00000000
00078000
000FC000
000FC000
000FC000
001FE000
001FE000
003FF000
003CF000
003CF000
00787800
00787800
00787800
00F03C00
00F03C00
01F03E00
01E01E00
01E01E00
03E01F00
03C00F00
03C00F00
07800780
07FFFF80
0FFFFFC0
0FFFFFC0
0FFFFFC0
1F0003E0
1E0001E0
1E0001E0
3E0000F0
3C0000F0
7C0000F8
78000078
78000078
F800007C
F000003C
ENDCHAR
STARTCHAR 1EB3
ENCODING 7859
SWIDTH 620 0
DWIDTH 31 0
BBX 25 46 2 0
BITMAP
003F8000
007FC000
00FBC000
00E1E000
0001E000
0001C000
0003C000
00078000
000E0000
00000000
07803C00
03807800
03E0F000
01FFE000
007FC000
00040000
00000000
00000000
00000000
00FE0000
03FF8780
07FFC780
0FFFE780
1F80F780
3F003780
3E001F80
7C001F80
7C000F80
78000F80
78000F80
F8000780
F8000780
F8000780
F8000780
F8000780
78000F80
78000F80
7C000F80
7C001F80
3E001F80
3E003F80
1F807780
1FE3E780
0FFFC780
07FF8780
01FF0780
ENDCHAR
STARTCHAR 1EB4
ENCODING 7860
SWIDTH 680 0
DWIDTH 34 0
BBX 30 52 2 0
BITMAP
007E1C00
007F1C00
00FFFC00
00E3F800
00C1F000
00000000
00000000
00000000
01E01E00
00F03C00
00FFF800
003FF000
000FC000
00000000
00000000
00000000
00000000
00078000
000FC000
000FC000
000FC000
001FE000
001FE000
003FF000
003CF000
003CF000
00787800
00787800
00787800
00F03C00
00F03C00
01F03E00
01E01E00
01E01E00
03E01F00
03C00F00
03C00F00
07800780
07FFFF80
0FFFFFC0
0FFFFFC0
0FFFFFC0
1F0003E0
1E0001E0
1E0001E0
3E0000F0
3C0000F0
7C0000F8
78000078
78000078
F800007C
F000003C
ENDCHAR
STARTCHAR 1EB5
ENCODING 7861
SWIDTH 620 0
DWIDTH 31 0
BBX 25 44 2 0
BITMAP
00303000
01F83000
01FE7000
03DFF000
0387E000
0383C000
00000000
00000000
07803C00
07807800
03E0F000
01FFE000
007FC000
000C0000
00000000
00000000
00000000
00FE0000
03FF8780
07FFC780
0FFFE780
1F80F780
3F003780
3E001F80
7C001F80
7C000F80
78000F80
78000F80
F8000780
F8000780
F8000780
F8000780
F8000780
78000F80
78000F80
7C000F80
7C001F80
3E001F80
3E003F80
1F807780
1FE3E780
0FFFC780
07FF8780
01FF0780
ENDCHAR
STARTCHAR 1EB6
ENCODING 7862
SWIDTH 680 0
DWIDTH 34 0
BBX 30 55 2 -11
BITMAP
01E01E00
00F03C00
007FF800
003FF000
000FC000
00000000
00000000
00000000
00000000
00078000
000FC000
000FC000
000FC000
001FE000
001FE000
003FF000
003CF000
003CF000
00787800
00787800
00787800
00F03C00
00F03C00
01F03E00
01E01E00
01E01E00
03E01F00
03C00F00
03C00F00
07800780
07FFFF80
0FFFFFC0
0FFFFFC0
0FFFFFC0
1F0003E0
1E0001E0
1E0001E0
3E0000F0
3C0000F0
7C0000F8
78000078
78000078
F800007C
F000003C
00000000
00000000
00000000
00000000
00000000
00000000
00078000
000FC000
000FC000
000FC000
00078000
ENDCHAR
STARTCHAR 1EB7
ENCODING 7863
SWIDTH 620 0
DWIDTH 31 0
BBX 25 47 2 -11
BITMAP
07803C00
07807800
03E0F000
01FFE000
007FC000
000C0000
00000000
00000000
00000000
00FE0000
03FF8780
07FFC780
0FFFE780
1F80F780
3F003780
3E001F80
7C001F80
7C000F80
78000F80
78000F80
F8000780
F8000780
F8000780
F8000780
F8000780
78000F80
78000F80
7C000F80
7C001F80
3E001F80
3E003F80
1F807780
1FE3E780
0FFFC780
07FF8780
01FF0780
00000000
00000000
00000000
00000000
00000000
00000000
001F0000
001F0000
001F0000
001F0000
000E0000
ENDCHAR
STARTCHAR 1EB8
ENCODING 7864
SWIDTH 560 0
DWIDTH 28 0
BBX 21 46 4 -11
BITMAP
FFFFF8
FFFFF8
FFFFF8
FFFFF8
F00000
F00000
F00000
F00000
F00000
F00000
F00000
F00000
F00000
F00000
F00000
FFFFE0
FFFFE0
FFFFE0
FFFFE0
F00000
F00000
F00000
F00000
F00000
F00000
F00000
F00000
F00000
F00000
F00000
F00000
FFFFF8
FFFFF8
FFFFF8
FFFFF8
000000
000000
000000
000000
000000
000000
00F800
00F800
00F800
00F800
007000
ENDCHAR
STARTCHAR 1EB9
ENCODING 7865
SWIDTH 580 0
DWIDTH 29 0
BBX 24 38 3 -11
BITMAP
00FF00
03FFC0
0FFFE0
1FC7F0
3F00F8
3C007C
7C003C
78003E
F8001E
F0001E
F0001E
F0001E
FFFFFF
FFFFFF
FFFFFF
F00000
F00000
F00000
F00000
78001E
7C003E
7C007C
3F00FC
1FC3F8
0FFFF0
07FFE0
01FF80
000000
000000
000000
000000
000000
000000
003C00
007E00
007E00
007E00
003C00
ENDCHAR
STARTCHAR 1EBA
ENCODING 7866
SWIDTH 560 0
DWIDTH 28 0
BBX 21 48 4 0
BITMAP
00F800
01FE00
03FE00
078F00
000700
000700
000E00
001C00
007800
000000
000000
000000
000000
FFFFF8
FFFFF8
FFFFF8
FFFFF8
F00000
F00000
F00000
F00000
F00000
F00000
F00000
F00000
F00000
F00000
F00000
FFFFE0
FFFFE0
FFFFE0
FFFFE0
F00000
F00000
F00000
F00000
F00000
F00000
F00000
F00000
F00000
F00000
F00000
F00000
FFFFF8
FFFFF8
FFFFF8
FFFFF8
ENDCHAR
STARTCHAR 1EBB
ENCODING 7867
SWIDTH 580 0
DWIDTH 29 0
BBX 24 39 3 0
BITMAP
007E00
00FF00
01FF80
01C380
000380
000380
000700
000E00
003C00
000000
000000
000000
00FF00
03FFC0
0FFFE0
1FC7F0
3F00F8
3C007C
7C003C
78003E
F8001E
F0001E
F0001E
F0001E
FFFFFF
FFFFFF
FFFFFF
F00000
F00000
F00000
F00000
78001E
7C003E
7C007C
3F00FC
1FC3F8
0FFFF0
07FFE0
01FF80
ENDCHAR
STARTCHAR 1EBC
ENCODING 7868
SWIDTH 560 0
DWIDTH 28 0
BBX 21 45 4 0
BITMAP
07C1C0
0FE1C0
0FFF80
1C7F80
1C1F00
000000
000000
000000
000000
000000
FFFFF8
FFFFF8
FFFFF8
FFFFF8
F00000
F00000
F00000
F00000
F00000
F00000
F00000
F00000
F00000
F00000
F00000
FFFFE0
FFFFE0
FFFFE0
FFFFE0
F00000
F00000
F00000
F00000
F00000
F00000
F00000
F00000
F00000
F00000
F00000
F00000
FFFFF8
FFFFF8
FFFFF8
FFFFF8
ENDCHAR
STARTCHAR 1EBD
ENCODING 7869
SWIDTH 580 0
DWIDTH 29 0
BBX 24 37 3 0
BITMAP
0000E0
03F0E0
07F8E0
07FFE0
071FC0
060780
000000
000000
000000
000000
00FF00
03FFC0
0FFFE0
1FC7F0
3F00F8
3C007C
7C003C
78003E
F8001E
F0001E
F0001E
F0001E
FFFFFF
FFFFFF
FFFFFF
F00000
F00000
F00000
F00000
78001E
7C003E
7C007C
3F00FC
1FC3F8
0FFFF0
07FFE0
01FF80
ENDCHAR
STARTCHAR 1EBE
ENCODING 7870
SWIDTH 560 0
DWIDTH 28 0
BBX 26 54 4 0
BITMAP
000007C0
00000780
00000F80
00000F00
00001E00
00001E00
00003C00
00003800
00707800
00F80000
01FC0000
03DE0000
078F0000
0F078000
1E03C000
3E03E000
00000000
00000000
00000000
FFFFF800
FFFFF800
FFFFF800
FFFFF800
F0000000
F0000000
F0000000
F0000000
F0000000
F0000000
F0000000
F0000000
F0000000
F0000000
F0000000
FFFFE000
FFFFE000
FFFFE000
FFFFE000
F0000000
F0000000
F0000000
F0000000
F0000000
F0000000
F0000000
F0000000
F0000000
F0000000
F0000000
F0000000
FFFFF800
FFFFF800
FFFFF800
FFFFF800
ENDCHAR
STARTCHAR 1EBF
ENCODING 7871
SWIDTH 580 0
DWIDTH 29 0
BBX 27 45 3 0
BITMAP
000001E0
000003E0
000003C0
00000780
00000F80
00000F00
00001E00
00001E00
003C3C00
007E0000
00FF0000
01E78000
03C7C000
0783E000
0F81F000
00000000
00000000
00000000
00FF0000
03FFC000
0FFFE000
1FC7F000
3F00F800
3C007C00
7C003C00
78003E00
F8001E00
F0001E00
F0001E00
F0001E00
FFFFFF00
FFFFFF00
FFFFFF00
F0000000
F0000000
F0000000
F0000000
78001E00
7C003E00
7C007C00
3F00FC00
1FC3F800
0FFFF000
07FFE000
01FF8000
ENDCHAR
STARTCHAR 1EC0
ENCODING 7872
SWIDTH 560 0
DWIDTH 28 0
BBX 21 54 4 0
BITMAP
001E00
001F00
000F00
000780
000780
0003C0
0001C0
0001E0
00F0F0
00F800
01FC00
03DE00
078F00
0F0780
1E03C0
3C03E0
000000
000000
000000
FFFFF8
FFFFF8
FFFFF8
FFFFF8
F00000
F00000
F00000
F00000
F00000
F00000
F00000
F00000
F00000
F00000
F00000
FFFFE0
FFFFE0
FFFFE0
FFFFE0
F00000
F00000
F00000
F00000
F00000
F00000
F00000
F00000
F00000
F00000
F00000
F00000
FFFFF8
FFFFF8
FFFFF8
FFFFF8
ENDCHAR
STARTCHAR 1EC1
ENCODING 7873
SWIDTH 580 0
DWIDTH 29 0
BBX 24 45 3 0
BITMAP
000F80
000780
0003C0
0003C0
0001E0
0000F0
0000F0
000078
003C38
007E00
00FF00
01E780
03C7C0
0783E0
0F81F0
000000
000000
000000
00FF00
03FFC0
0FFFE0
1FC7F0
3F00F8
3C007C
7C003C
78003E
F8001E
F0001E
F0001E
F0001E
FFFFFF
FFFFFF
FFFFFF
F00000
F00000
F00000
F00000
78001E
7C003E
7C007C
3F00FC
1FC3F8
0FFFF0
07FFE0
01FF80
ENDCHAR
STARTCHAR 1EC2
ENCODING 7874
SWIDTH 560 0
DWIDTH 28 0
BBX 24 54 4 0
BITMAP
0001F8
0003FC
0007FE
00070E
00000F
00000E
00001E
00003C
007078
00F800
01FC00
03DE00
078F00
0F0780
1E03C0
3E03E0
000000
000000
000000
FFFFF8
FFFFF8
FFFFF8
FFFFF8
F00000
F00000
F00000
F00000
F00000
F00000
F00000
F00000
F00000
F00000
F00000
FFFFE0
FFFFE0
FFFFE0
FFFFE0
F00000
F00000
F00000
F00000
F00000
F00000
F00000
F00000
F00000
F00000
F00000
F00000
FFFFF8
FFFFF8
FFFFF8
FFFFF8
ENDCHAR
STARTCHAR 1EC3
ENCODING 7875
SWIDTH 580 0
DWIDTH 29 0
BBX 25 45 3 0
BITMAP
0000FE00
0001FF00
0001E780
0003C380
00000380
00000780
00000F00
00001E00
003C3C00
007E0000
00FF0000
01E78000
03C7C000
0783E000
0F81F000
00000000
00000000
00000000
00FF0000
03FFC000
0FFFE000
1FC7F000
3F00F800
3C007C00
7C003C00
78003E00
F8001E00
F0001E00
F0001E00
F0001E00
FFFFFF00
FFFFFF00
FFFFFF00
F0000000
F0000000
F0000000
F0000000
78001E00
7C003E00
7C007C00
3F00FC00
1FC3F800
0FFFF000
07FFE000
01FF8000
ENDCHAR
STARTCHAR 1EC4
ENCODING 7876
SWIDTH 560 0
DWIDTH 28 0
BBX 21 53 4 0
BITMAP
03C1C0
0FE1C0
0FFB80
0E7F80
1C1F00
1C0400
000000
007800
00F800
01FC00
03DE00
078F00
0F0780
1E03C0
3E03E0
000000
000000
000000
FFFFF8
FFFFF8
FFFFF8
FFFFF8
F00000
F00000
F00000
F00000
F00000
F00000
F00000
F00000
F00000
F00000
F00000
FFFFE0
FFFFE0
FFFFE0
FFFFE0
F00000
F00000
F00000
F00000
F00000
F00000
F00000
F00000
F00000
F00000
F00000
F00000
FFFFF8
FFFFF8
FFFFF8
FFFFF8
ENDCHAR
STARTCHAR 1EC5
ENCODING 7877
SWIDTH 580 0
DWIDTH 29 0
BBX 24 44 3 0
BITMAP
03F0E0
03F8E0
07FFE0
071FC0
060780
000000
000000
003C00
007E00
00FF00
01E780
03C7C0
0783E0
0F81F0
000000
000000
000000
00FF00
03FFC0
0FFFE0
1FC7F0
3F00F8
3C007C
7C003C
78003E
F8001E
F0001E
F0001E
F0001E
FFFFFF
FFFFFF
FFFFFF
F00000
F00000
F00000
F00000
78001E
7C003E
7C007C
3F00FC
1FC3F8
0FFFF0
07FFE0
01FF80
ENDCHAR
STARTCHAR 1EC6
ENCODING 7878
SWIDTH 560 0
DWIDTH 28 0
BBX 21 57 4 -11
BITMAP
007000
00F800
01FC00
03DE00
078F00
0F0780
1E03C0
3E03E0
000000
000000
000000
FFFFF8
FFFFF8
FFFFF8
FFFFF8
F00000
F00000
F00000
F00000
F00000
F00000
F00000
F00000
F00000
F00000
F00000
FFFFE0
FFFFE0
FFFFE0
FFFFE0
F00000
F00000
F00000
F00000
F00000
F00000
F00000
F00000
F00000
F00000
F00000
F00000
FFFFF8
FFFFF8
FFFFF8
FFFFF8
000000
000000
000000
000000
000000
000000
00F800
00F800
00F800
00F800
007000
ENDCHAR
STARTCHAR 1EC7
ENCODING 7879
SWIDTH 580 0
DWIDTH 29 0
BBX 24 48 3 -11
BITMAP
003C00
007E00
00FF00
01E780
03C7C0
0783E0
0F81F0
000000
000000
000000
00FF00
03FFC0
0FFFE0
1FC7F0
3F00F8
3C007C
7C003C
78003E
F8001E
F0001E
F0001E
F0001E
FFFFFF
FFFFFF
FFFFFF
F00000
F00000
F00000
F00000
78001E
7C003E
7C007C
3F00FC
1FC3F8
0FFFF0
07FFE0
01FF80
000000
000000
000000
000000
000000
000000
003C00
007E00
007E00
007E00
003C00
ENDCHAR
STARTCHAR 1EC8
ENCODING 7880
SWIDTH 240 0
DWIDTH 12 0
BBX 10 48 1 0
BITMAP
1E00
7F80
FFC0
E1C0
01C0
01C0
03C0
0780
0F00
0000
0000
0000
0000
1E00
1E00
1E00
1E00
1E00
1E00
1E00
1E00
1E00
1E00
1E00
1E00
1E00
1E00
1E00
1E00
1E00
1E00
1E00
1E00
1E00
1E00
1E00
1E00
1E00
1E00
1E00
1E00
1E00
1E00
1E00
1E00
1E00
1E00
1E00
ENDCHAR
STARTCHAR 1EC9
ENCODING 7881
SWIDTH 240 0
DWIDTH 12 0
BBX 11 39 1 0
BITMAP
3F00
7FC0
FBC0
E1C0
01E0
01C0
03C0
0780
0E00
0000
0000
0000
0000
1E00
1E00
1E00
1E00
1E00
1E00
1E00
1E00
1E00
1E00
1E00
1E00
1E00
1E00
1E00
1E00
1E00
1E00
1E00
1E00
1E00
1E00
1E00
1E00
1E00
1E00
ENDCHAR
STARTCHAR 1ECA
ENCODING 7882
SWIDTH 240 0
DWIDTH 12 0
BBX 6 46 3 -11
BITMAP
78
78
78
78
78
78
78
78
78
78
78
78
78
78
78
78
78
78
78
78
78
78
78
78
78
78
78
78
78
78
78
78
78
78
78
00
00
00
00
00
00
78
FC
FC
7C
78
ENDCHAR
STARTCHAR 1ECB
ENCODING 7883
SWIDTH 240 0
DWIDTH 12 0
BBX 6 48 3 -11
BITMAP
38
7C
FC
FC
7C
30
00
00
00
00
00
78
78
78
78
78
78
78
78
78
78
78
78
78
78
78
78
78
78
78
78
78
78
78
78
78
78
00
00
00
00
00
00
78
7C
FC
7C
78
ENDCHAR
STARTCHAR 1ECC
ENCODING 7884
SWIDTH 720 0
DWIDTH 36 0
BBX 31 47 3 -11
BITMAP
000FC000
007FFC00
01FFFF00
03FFFF80
07F87FC0
0FC007E0
1F8003F0
3F0001F0
3E0000F8
7C0000F8
7C00007C
F800007C
F800003C
F800003E
F000003E
F000003E
F000001E
F000001E
F000001E
F000001E
F000003E
F000003E
F000003E
F800003E
F800003C
7800007C
7C00007C
7C0000F8
3E0000F8
3F0001F0
1F8007F0
0FE00FE0
07FFFFC0
03FFFF80
00FFFE00
003FF800
00000000
00000000
00000000
00000000
00000000
00000000
0007C000
0007C000
0007C000
0007C000
00038000
ENDCHAR
STARTCHAR 1ECD
ENCODING 7885
SWIDTH 580 0
DWIDTH 29 0
BBX 24 38 3 -11
BITMAP
00FF00
03FFC0
0FFFE0
1FFFF8
3F00F8
3E007C
7C003E
78003E
F8001E
F0001F
F0000F
F0000F
F0000F
F0000F
F0000F
F0000F
F0000F
F0001F
F8001E
78001E
7C003E
7E007C
3F00FC
1FC7F8
0FFFF0
07FFE0
01FF80
000000
000000
000000
000000
000000
000000
003C00
007E00
007E00
007E00
003C00
ENDCHAR
STARTCHAR 1ECE
ENCODING 7886
SWIDTH 720 0
DWIDTH 36 0
BBX 31 48 3 0
BITMAP
0007C000
000FE000
001FF000
003C7800
00003800
00007800
00007000
0000E000
0003C000
00000000
00000000
00000000
000FC000
007FFC00
01FFFF00
03FFFF80
07F87FC0
0FC007E0
1F8003F0
3F0001F0
3E0000F8
7C0000F8
7C00007C
F800007C
F800003C
F800003E
F000003E
F000003E
F000001E
F000001E
F000001E
F000001E
F000003E
F000003E
F000003E
F800003E
F800003C
7800007C
7C00007C
7C0000F8
3E0000F8
3F0001F0
1F8007F0
0FE00FE0
07FFFFC0
03FFFF80
00FFFE00
003FF800
ENDCHAR
STARTCHAR 1ECF
ENCODING 7887
SWIDTH 580 0
DWIDTH 29 0
BBX 24 39 3 0
BITMAP
007E00
00FF00
01FF80
01C380
000380
000380
000700
000E00
003C00
000000
000000
000000
00FF00
03FFC0
0FFFE0
1FFFF8
3F00F8
3E007C
7C003E
78003E
F8001E
F0001F
F0000F
F0000F
F0000F
F0000F
F0000F
F0000F
F0000F
F0001F
F8001E
78001E
7C003E
7E007C
3F00FC
1FC7F8
0FFFF0
07FFE0
01FF80
ENDCHAR
STARTCHAR 1ED0
ENCODING 7888
SWIDTH 720 0
DWIDTH 36 0
BBX 31 54 3 0
BITMAP
0000003E
0000003C
0000007C
00000078
000000F0
000000F0
000001E0
000001C0
000783C0
0007C000
000FE000
001EF000
003C7800
00783C00
00F03E00
01E01F00
00000000
00000000
000FC000
007FFC00
01FFFF00
03FFFF80
07F87FC0
0FC007E0
1F8003F0
3F0001F0
3E0000F8
7C0000F8
7C00007C
F800007C
F800003C
F800003E
F000003E
F000003E
F000001E
F000001E
F000001E
F000001E
F000003E
F000003E
F000003E
F800003E
F800003C
7800007C
7C00007C
7C0000F8
3E0000F8
3F0001F0
1F8007F0
0FE00FE0
07FFFFC0
03FFFF80
00FFFE00
003FF800
ENDCHAR
STARTCHAR 1ED1
ENCODING 7889
SWIDTH 580 0
DWIDTH 29 0
BBX 27 45 3 0
BITMAP
000001E0
000003E0
000003C0
00000780
00000F80
00000F00
00001E00
00001E00
003C3C00
007E0000
00FF0000
01E78000
03C7C000
0783E000
0F81F000
00000000
00000000
00000000
00FF0000
03FFC000
0FFFE000
1FFFF800
3F00F800
3E007C00
7C003E00
78003E00
F8001E00
F0001F00
F0000F00
F0000F00
F0000F00
F0000F00
F0000F00
F0000F00
F0000F00
F0001F00
F8001E00
78001E00
7C003E00
7E007C00
3F00FC00
1FC7F800
0FFFF000
07FFE000
01FF8000
ENDCHAR
STARTCHAR 1ED2
ENCODING 7890
SWIDTH 720 0
DWIDTH 36 0
BBX 31 54 3 0
BITMAP
0001F000
0000F800
00007800
00003C00
00003C00
00001E00
00000E00
00000F00
00078700
000FC080
000FE000
001EF000
003C7800
00783C00
00F03E00
01E01F00
00000000
00000000
000FC000
007FFC00
01FFFF00
03FFFF80
07F87FC0
0FC007E0
1F8003F0
3F0001F0
3E0000F8
7C0000F8
7C00007C
F800007C
F800003C
F800003E
F000003E
F000003E
F000001E
F000001E
F000001E
F000001E
F000003E
F000003E
F000003E
F800003E
F800003C
7800007C
7C00007C
7C0000F8
3E0000F8
3F0001F0
1F8007F0
0FE00FE0
07FFFFC0
03FFFF80
00FFFE00
003FF800
ENDCHAR
STARTCHAR 1ED3
ENCODING 7891
SWIDTH 580 0
DWIDTH 29 0
BBX 24 45 3 0
BITMAP
000F80
000780
0003C0
0003C0
0001E0
0000F0
0000F0
000078
003C38
007E00
00FF00
01E780
03C7C0
0783E0
0F01F0
000000
000000
000000
00FF00
03FFC0
0FFFE0
1FFFF8
3F00F8
3E007C
7C003E
78003E
F8001E
F0001F
F0000F
F0000F
F0000F
F0000F
F0000F
F0000F
F0000F
F0001F
F8001E
78001E
7C003E
7E007C
3F00FC
1FC7F8
0FFFF0
07FFE0
01FF80
ENDCHAR
STARTCHAR 1ED4
ENCODING 7892
SWIDTH 720 0
DWIDTH 36 0
BBX 31 54 3 0
BITMAP
00000FC0
00001FE0
00003FF0
00003870
00000070
00000070
000000F0
000001E0
00078380
0007C000
000FE000
001EF000
003C7800
00783C00
00F03E00
01E01F00
00000000
00000000
000FC000
007FFC00
01FFFF00
03FFFF80
07F87FC0
0FC007E0
1F8003F0
3F0001F0
3E0000F8
7C0000F8
7C00007C
F800007C
F800003C
F800003E
F000003E
F000003E
F000001E
F000001E
F000001E
F000001E
F000003E
F000003E
F000003E
F800003E
F800003C
7800007C
7C00007C
7C0000F8
3E0000F8
3F0001F0
1F8007F0
0FE00FE0
07FFFFC0
03FFFF80
00FFFE00
003FF800
ENDCHAR
STARTCHAR 1ED5
ENCODING 7893
SWIDTH 580 0
DWIDTH 29 0
BBX 25 45 3 0
BITMAP
0000FE00
0001FF00
0001E780
0003C380
00000380
00000780
00000F00
00001E00
003C3C00
007E0000
00FF0000
01E78000
03C7C000
0783E000
0F81F000
00000000
00000000
00000000
00FF0000
03FFC000
0FFFE000
1FFFF800
3F00F800
3E007C00
7C003E00
78003E00
F8001E00
F0001F00
F0000F00
F0000F00
F0000F00
F0000F00
F0000F00
F0000F00
F0000F00
F0001F00
F8001E00
78001E00
7C003E00
7E007C00
3F00FC00
1FC7F800
0FFFF000
07FFE000
01FF8000
ENDCHAR
STARTCHAR 1ED6
ENCODING 7894
SWIDTH 720 0
DWIDTH 36 0
BBX 31 53 3 0
BITMAP
003E0E00
007F0E00
007FDC00
00E3FC00
00E0F800
00E02000
00000000
00078000
0007C000
000FE000
001EF000
003C7800
00783C00
00F03E00
01E01F00
00000000
00000000
000FC000
007FFC00
01FFFF00
03FFFF80
07F87FC0
0FC007E0
1F8003F0
3F0001F0
3E0000F8
7C0000F8
7C00007C
F800007C
F800003C
F800003E
F000003E
F000003E
F000001E
F000001E
F000001E
F000001E
F000003E
F000003E
F000003E
F800003E
F800003C
7800007C
7C00007C
7C0000F8
3E0000F8
3F0001F0
1F8007F0
0FE00FE0
07FFFFC0
03FFFF80
00FFFE00
003FF800
ENDCHAR
STARTCHAR 1ED7
ENCODING 7895
SWIDTH 580 0
DWIDTH 29 0
BBX 24 44 3 0
BITMAP
03F0E0
03F8E0
07FFE0
071FC0
060780
000000
000000
003C00
007E00
00FF00
01E780
03C7C0
0783E0
0F81F0
000000
000000
000000
00FF00
03FFC0
0FFFE0
1FFFF8
3F00F8
3E007C
7C003E
78003E
F8001E
F0001F
F0000F
F0000F
F0000F
F0000F
F0000F
F0000F
F0000F
F0001F
F8001E
78001E
7C003E
7E007C
3F00FC
1FC7F8
0FFFF0
07FFE0
01FF80
ENDCHAR
STARTCHAR 1ED8
ENCODING 7896
SWIDTH 720 0
DWIDTH 36 0
BBX 31 57 3 -11
BITMAP
00078000
0007C000
000FE000
001EF000
003C7800
00783C00
00F03E00
01E01F00
00000000
00000000
000FC000
007FFC00
01FFFF00
03FFFF80
07F87FC0
0FC007E0
1F8003F0
3F0001F0
3E0000F8
7C0000F8
7C00007C
F800007C
F800003C
F800003E
F000003E
F000003E
F000001E
F000001E
F000001E
F000001E
F000003E
F000003E
F000003E
F800003E
F800003C
7800007C
7C00007C
7C0000F8
3E0000F8
3F0001F0
1F8007F0
0FE00FE0
07FFFFC0
03FFFF80
00FFFE00
003FF800
00000000
00000000
00000000
00000000
00000000
00000000
0007C000
0007C000
0007C000
0007C000
00038000
ENDCHAR
STARTCHAR 1ED9
ENCODING 7897
SWIDTH 580 0
DWIDTH 29 0
BBX 24 48 3 -11
BITMAP
003C00
007E00
00FF00
01E780
03C7C0
0783E0
0F81F0
000000
000000
000000
00FF00
03FFC0
0FFFE0
1FFFF8
3F00F8
3E007C
7C003E
78003E
F8001E
F0001F
F0000F
F0000F
F0000F
F0000F
F0000F
F0000F
F0000F
F0001F
F8001E
78001E
7C003E
7E007C
3F00FC
1FC7F8
0FFFF0
07FFE0
01FF80
000000
000000
000000
000000
000000
000000
003C00
007E00
007E00
007E00
003C00
ENDCHAR
STARTCHAR 1EDA
ENCODING 7898
SWIDTH 720 0
DWIDTH 36 0
BBX 31 48 3 0
BITMAP
00001E00
00003E00
00003C00
00007800
0000F800
0000F000
0001E000
0001E000
0003C078
00000078
00000078
00000070
000FC0F0
007FFFF0
01FFFFE0
03FFFF80
07F87FC0
0FC007E0
1F8003F0
3F0001F0
3E0000F8
7C0000F8
7C00007C
F800007C
F800003C
F800003E
F000003E
F000003E
F000001E
F000001E
F000001E
F000001E
F000003E
F000003E
F000003E
F800003E
F800003C
7800007C
7C00007C
7C0000F8
3E0000F8
3F0001F0
1F8007F0
0FE00FE0
07FFFFC0
03FFFF80
00FFFE00
003FF800
ENDCHAR
STARTCHAR 1EDB
ENCODING 7899
SWIDTH 600 0
DWIDTH 30 0
BBX 24 39 3 0
BITMAP
0001F0
0003E0
0003C0
0007C0
000780
000F00
000F00
001E00
001C07
000007
000007
000007
00FF1F
03FFFE
0FFFFC
1FFFF8
3F00F8
3E007C
7C003E
78003E
F8001E
F0001F
F0000F
F0000F
F0000F
F0000F
F0000F
F0000F
F0000F
F0001F
F8001E
78001E
7C003E
7E007C
3F00FC
1FC7F8
0FFFF0
07FFE0
01FF80
ENDCHAR
STARTCHAR 1EDC
ENCODING 7900
SWIDTH 720 0
DWIDTH 36 0
BBX 31 48 3 0
BITMAP
01F00000
00F80000
00780000
003C0000
003C0000
001E0000
000E0000
000F0000
00070078
00008078
00000078
00000070
000FC0F0
007FFFF0
01FFFFE0
03FFFF80
07F87FC0
0FC007E0
1F8003F0
3F0001F0
3E0000F8
7C0000F8
7C00007C
F800007C
F800003C
F800003E
F000003E
F000003E
F000001E
F000001E
F000001E
F000001E
F000003E
F000003E
F000003E
F800003E
F800003C
7800007C
7C00007C
7C0000F8
3E0000F8
3F0001F0
1F8007F0
0FE00FE0
07FFFFC0
03FFFF80
00FFFE00
003FF800
ENDCHAR
STARTCHAR 1EDD
ENCODING 7901
SWIDTH 600 0
DWIDTH 30 0
BBX 24 39 3 0
BITMAP
0F8000
078000
03C000
03C000
01E000
00F000
00F000
007800
003807
000007
000007
000007
00FF1F
03FFFE
0FFFFC
1FFFF8
3F00F8
3E007C
7C003E
78003E
F8001E
F0001F
F0000F
F0000F
F0000F
F0000F
F0000F
F0000F
F0000F
F0001F
F8001E
78001E
7C003E
7E007C
3F00FC
1FC7F8
0FFFF0
07FFE0
01FF80
ENDCHAR
STARTCHAR 1EDE
ENCODING 7902
SWIDTH 720 0
DWIDTH 36 0
BBX 31 48 3 0
BITMAP
0007C000
000FE000
001FF000
003C7800
00003800
00007800
00007000
0000E000
0003C078
00000078
00000078
00000070
000FC0F0
007FFFF0
01FFFFE0
03FFFF80
07F87FC0
0FC007E0
1F8003F0
3F0001F0
3E0000F8
7C0000F8
7C00007C
F800007C
F800003C
F800003E
F000003E
F000003E
F000001E
F000001E
F000001E
F000001E
F000003E
F000003E
F000003E
F800003E
F800003C
7800007C
7C00007C
7C0000F8
3E0000F8
3F0001F0
1F8007F0
0FE00FE0
07FFFFC0
03FFFF80
00FFFE00
003FF800
ENDCHAR
STARTCHAR 1EDF
ENCODING 7903
SWIDTH 600 0
DWIDTH 30 0
BBX 24 39 3 0
BITMAP
007E00
00FF00
01FF80
01C380
000380
000380
000700
000E00
003C07
000007
000007
000007
00FF1F
03FFFE
0FFFFC
1FFFF8
3F00F8
3E007C
7C003E
78003E
F8001E
F0001F
F0000F
F0000F
F0000F
F0000F
F0000F
F0000F
F0000F
F0001F
F8001E
78001E
7C003E
7E007C
3F00FC
1FC7F8
0FFFF0
07FFE0
01FF80
ENDCHAR
STARTCHAR 1EE0
ENCODING 7904
SWIDTH 720 0
DWIDTH 36 0
BBX 31 45 3 0
BITMAP
003E0E00
007F0C00
007FFC00
00E3FC00
00E0F800
00000078
00000078
00000078
00000070
000FC0F0
007FFFF0
01FFFFE0
03FFFF80
07F87FC0
0FC007E0
1F8003F0
3F0001F0
3E0000F8
7C0000F8
7C00007C
F800007C
F800003C
F800003E
F000003E
F000003E
F000001E
F000001E
F000001E
F000001E
F000003E
F000003E
F000003E
F800003E
F800003C
7800007C
7C00007C
7C0000F8
3E0000F8
3F0001F0
1F8007F0
0FE00FE0
07FFFFC0
03FFFF80
00FFFE00
003FF800
ENDCHAR
STARTCHAR 1EE1
ENCODING 7905
SWIDTH 600 0
DWIDTH 30 0
BBX 24 37 3 0
BITMAP
0000E0
03F0E0
07F8E0
07FFE0
071FC0
060780
000007
000007
000007
000007
00FF1F
03FFFE
0FFFFC
1FFFF8
3F00F8
3E007C
7C003E
78003E
F8001E
F0001F
F0000F
F0000F
F0000F
F0000F
F0000F
F0000F
F0000F
F0001F
F8001E
78001E
7C003E
7E007C
3F00FC
1FC7F8
0FFFF0
07FFE0
01FF80
ENDCHAR
STARTCHAR 1EE2
ENCODING 7906
SWIDTH 720 0
DWIDTH 36 0
BBX 31 51 3 -11
BITMAP
00000078
00000078
00000078
00000070
000FC0F0
007FFFF0
01FFFFE0
03FFFF80
07F87FC0
0FC007E0
1F8003F0
3F0001F0
3E0000F8
7C0000F8
7C00007C
F800007C
F800003C
F800003E
F000003E
F000003E
F000001E
F000001E
F000001E
F000001E
F000003E
F000003E
F000003E
F800003E
F800003C
7800007C
7C00007C
7C0000F8
3E0000F8
3F0001F0
1F8007F0
0FE00FE0
07FFFFC0
03FFFF80
00FFFE00
003FF800
00000000
00000000
00000000
00000000
00000000
00000000
0007C000
0007C000
0007C000
0007C000
00038000
ENDCHAR
STARTCHAR 1EE3
ENCODING 7907
SWIDTH 600 0
DWIDTH 30 0
BBX 24 42 3 -11
BITMAP
000007
000007
000007
000007
00FF1F
03FFFE
0FFFFC
1FFFF8
3F00F8
3E007C
7C003E
78003E
F8001E
F0001F
F0000F
F0000F
F0000F
F0000F
F0000F
F0000F
F0000F
F0001F
F8001E
78001E
7C003E
7E007C
3F00FC
1FC7F8
0FFFF0
07FFE0
01FF80
000000
000000
000000
000000
000000
000000
003C00
007E00
007E00
007E00
003C00
ENDCHAR
STARTCHAR 1EE4
ENCODING 7908
SWIDTH 680 0
DWIDTH 34 0
BBX 28 46 3 -11
BITMAP
F80000F0
F80000F0
F80000F0
F80000F0
F80000F0
F80000F0
F80000F0
F80000F0
F80000F0
F80000F0
F80000F0
F80000F0
F80000F0
F80000F0
F80000F0
F80000F0
F80000F0
F80000F0
F80000F0
F80000F0
F80000F0
F80000F0
F80001F0
780001F0
780001E0
7C0001E0
7C0003E0
3C0003E0
3E0007C0
1F000FC0
1FC01F80
0FFFFF00
07FFFE00
03FFFC00
00FFF000
00000000
00000000
00000000
00000000
00000000
00000000
000F0000
000F8000
001F8000
000F8000
000F0000
ENDCHAR
STARTCHAR 1EE5
ENCODING 7909
SWIDTH 600 0
DWIDTH 30 0
BBX 23 37 4 -11
BITMAP
F0003E
F0003E
F0003E
F0003E
F0003E
F0003E
F0003E
F0003E
F0003E
F0003E
F0003E
F0003E
F0003E
F0003E
F0003E
F0003E
F0003E
F0003E
F8003E
F8007E
7C00FE
7E01FE
3FCFBE
3FFF3E
0FFE3E
07FC3E
000000
000000
000000
000000
000000
000000
00F800
00F800
00F800
00F800
007000
ENDCHAR
STARTCHAR 1EE6
ENCODING 7910
SWIDTH 680 0
DWIDTH 34 0
BBX 28 48 3 0
BITMAP
000F0000
003FC000
007FE000
0078E000
0000E000
0000E000
0000E000
0003C000
00078000
00000000
00000000
00000000
00000000
F80000F0
F80000F0
F80000F0
F80000F0
F80000F0
F80000F0
F80000F0
F80000F0
F80000F0
F80000F0
F80000F0
F80000F0
F80000F0
F80000F0
F80000F0
F80000F0
F80000F0
F80000F0
F80000F0
F80000F0
F80000F0
F80000F0
F80001F0
780001F0
780001E0
7C0001E0
7C0003E0
3C0003E0
3E0007C0
1F000FC0
1FC01F80
0FFFFF00
07FFFE00
03FFFC00
00FFF000
ENDCHAR
STARTCHAR 1EE7
ENCODING 7911
SWIDTH 600 0
DWIDTH 30 0
BBX 23 39 4 0
BITMAP
01FC00
03FE00
03DE00
078F00
000700
000F00
001E00
003C00
007800
000000
000000
000000
000000
F0003E
F0003E
F0003E
F0003E
F0003E
F0003E
F0003E
F0003E
F0003E
F0003E
F0003E
F0003E
F0003E
F0003E
F0003E
F0003E
F0003E
F0003E
F8003E
F8007E
7C00FE
7E01FE
3FCFBE
3FFF3E
0FFE3E
07FC3E
ENDCHAR
STARTCHAR 1EE8
ENCODING 7912
SWIDTH 680 0
DWIDTH 34 0
BBX 33 48 3 0
BITMAP
00007C0000
0000780000
0000F80000
0000F00000
0001E00000
0001E00000
0003C00000
0003800000
0007800380
0000000380
0000000380
0000000380
0000000780
F80000FF00
F80000FE00
F80000F000
F80000F000
F80000F000
F80000F000
F80000F000
F80000F000
F80000F000
F80000F000
F80000F000
F80000F000
F80000F000
F80000F000
F80000F000
F80000F000
F80000F000
F80000F000
F80000F000
F80000F000
F80000F000
F80000F000
F80001F000
780001F000
780001E000
7C0001E000
7C0003E000
3C0003E000
3E0007C000
1F000FC000
1FC01F8000
0FFFFF0000
07FFFE0000
03FFFC0000
00FFF00000
ENDCHAR
STARTCHAR 1EE9
ENCODING 7913
SWIDTH 600 0
DWIDTH 30 0
BBX 28 39 4 0
BITMAP
0003C000
00078000
000F8000
000F0000
001E0000
001E0000
003C0000
00380000
00780070
00000070
00000070
000000F0
000001F0
F0003FE0
F0003F80
F0003E00
F0003E00
F0003E00
F0003E00
F0003E00
F0003E00
F0003E00
F0003E00
F0003E00
F0003E00
F0003E00
F0003E00
F0003E00
F0003E00
F0003E00
F0003E00
F8003E00
F8007E00
7C00FE00
7E01FE00
3FCFBE00
3FFF3E00
0FFE3E00
07FC3E00
ENDCHAR
STARTCHAR 1EEA
ENCODING 7914
SWIDTH 680 0
DWIDTH 34 0
BBX 33 48 3 0
BITMAP
03E0000000
01E0000000
00F0000000
00F0000000
0078000000
003C000000
003C000000
001E000000
000E000380
0000000380
0000000380
0000000380
0000000780
F80000FF00
F80000FE00
F80000F000
F80000F000
F80000F000
F80000F000
F80000F000
F80000F000
F80000F000
F80000F000
F80000F000
F80000F000
F80000F000
F80000F000
F80000F000
F80000F000
F80000F000
F80000F000
F80000F000
F80000F000
F80000F000
F80000F000
F80001F000
780001F000
780001E000
7C0001E000
7C0003E000
3C0003E000
3E0007C000
1F000FC000
1FC01F8000
0FFFFF0000
07FFFE0000
03FFFC0000
00FFF00000
ENDCHAR
STARTCHAR 1EEB
ENCODING 7915
SWIDTH 600 0
DWIDTH 30 0
BBX 28 39 4 0
BITMAP
1E000000
1F000000
0F000000
07800000
07C00000
03C00000
01E00000
01E00000
00F00070
00000070
00000070
000000F0
000001F0
F0003FE0
F0003F80
F0003E00
F0003E00
F0003E00
F0003E00
F0003E00
F0003E00
F0003E00
F0003E00
F0003E00
F0003E00
F0003E00
F0003E00
F0003E00
F0003E00
F0003E00
F0003E00
F8003E00
F8007E00
7C00FE00
7E01FE00
3FCFBE00
3FFF3E00
0FFE3E00
07FC3E00
ENDCHAR
STARTCHAR 1EEC
ENCODING 7916
SWIDTH 680 0
DWIDTH 34 0
BBX 33 48 3 0
BITMAP
000F000000
003FC00000
007FE00000
0078E00000
0000E00000
0000E00000
0000E00000
0003C00000
0007800380
0000000380
0000000380
0000000380
0000000780
F80000FF00
F80000FE00
F80000F000
F80000F000
F80000F000
F80000F000
F80000F000
F80000F000
F80000F000
F80000F000
F80000F000
F80000F000
F80000F000
F80000F000
F80000F000
F80000F000
F80000F000
F80000F000
F80000F000
F80000F000
F80000F000
F80000F000
F80001F000
780001F000
780001E000
7C0001E000
7C0003E000
3C0003E000
3E0007C000
1F000FC000
1FC01F8000
0FFFFF0000
07FFFE0000
03FFFC0000
00FFF00000
ENDCHAR
STARTCHAR 1EED
ENCODING 7917
SWIDTH 600 0
DWIDTH 30 0
BBX 28 39 4 0
BITMAP
01FC0000
03FE0000
03DE0000
078F0000
00070000
000F0000
001E0000
003C0000
00780070
00000070
00000070
000000F0
000001F0
F0003FE0
F0003F80
F0003E00
F0003E00
F0003E00
F0003E00
F0003E00
F0003E00
F0003E00
F0003E00
F0003E00
F0003E00
F0003E00
F0003E00
F0003E00
F0003E00
F0003E00
F0003E00
F8003E00
F8007E00
7C00FE00
7E01FE00
3FCFBE00
3FFF3E00
0FFE3E00
07FC3E00
ENDCHAR
STARTCHAR 1EEE
ENCODING 7918
SWIDTH 680 0
DWIDTH 34 0
BBX 33 45 3 0
BITMAP
007C180000
00FE380000
01FFF80000
01C7F00000
01C1F00000
0000000380
0000000380
0000000380
0000000380
0000000780
F80000FF00
F80000FE00
F80000F000
F80000F000
F80000F000
F80000F000
F80000F000
F80000F000
F80000F000
F80000F000
F80000F000
F80000F000
F80000F000
F80000F000
F80000F000
F80000F000
F80000F000
F80000F000
F80000F000
F80000F000
F80000F000
F80000F000
F80001F000
780001F000
780001E000
7C0001E000
7C0003E000
3C0003E000
3E0007C000
1F000FC000
1FC01F8000
0FFFFF0000
07FFFE0000
03FFFC0000
00FFF00000
ENDCHAR
STARTCHAR 1EEF
ENCODING 7919
SWIDTH 600 0
DWIDTH 30 0
BBX 28 37 4 0
BITMAP
0080C000
07E0C000
07F9C000
0F7FC000
0E1F8000
0E0F0000
00000070
00000070
00000070
000000F0
000001F0
F0003FE0
F0003F80
F0003E00
F0003E00
F0003E00
F0003E00
F0003E00
F0003E00
F0003E00
F0003E00
F0003E00
F0003E00
F0003E00
F0003E00
F0003E00
F0003E00
F0003E00
F0003E00
F8003E00
F8007E00
7C00FE00
7E01FE00
3FCFBE00
3FFF3E00
0FFE3E00
07FC3E00
ENDCHAR
STARTCHAR 1EF0
ENCODING 7920
SWIDTH 680 0
DWIDTH 34 0
BBX 33 51 3 -11
BITMAP
0000000380
0000000380
0000000380
0000000380
0000000780
F80000FF00
F80000FE00
F80000F000
F80000F000
F80000F000
F80000F000
F80000F000
F80000F000
F80000F000
F80000F000
F80000F000
F80000F000
F80000F000
F80000F000
F80000F000
F80000F000
F80000F000
F80000F000
F80000F000
F80000F000
F80000F000
F80000F000
F80001F000
780001F000
780001E000
7C0001E000
7C0003E000
3C0003E000
3E0007C000
1F000FC000
1FC01F8000
0FFFFF0000
07FFFE0000
03FFFC0000
00FFF00000
0000000000
0000000000
0000000000
0000000000
0000000000
0000000000
000F000000
000F800000
001F800000
000F800000
000F000000
ENDCHAR
STARTCHAR 1EF1
ENCODING 7921
SWIDTH 600 0
DWIDTH 30 0
BBX 28 42 4 -11
BITMAP
00000070
00000070
00000070
000000F0
000001F0
F0003FE0
F0003F80
F0003E00
F0003E00
F0003E00
F0003E00
F0003E00
F0003E00
F0003E00
F0003E00
F0003E00
F0003E00
F0003E00
F0003E00
F0003E00
F0003E00
F0003E00
F0003E00
F8003E00
F8007E00
7C00FE00
7E01FE00
3FCFBE00
3FFF3E00
0FFE3E00
07FC3E00
00000000
00000000
00000000
00000000
00000000
00000000
00F80000
00F80000
00F80000
00F80000
00700000
ENDCHAR
STARTCHAR 1EF2
ENCODING 7922
SWIDTH 600 0
DWIDTH 30 0
BBX 27 48 2 0
BITMAP
07C00000
03C00000
01E00000
01F00000
00F00000
00780000
00780000
003C0000
001C0000
00000000
00000000
00000000
00000000
F80003E0
F80007C0
7C0007C0
7C000F80
3E000F80
3E001F00
1F001F00
0F003E00
0F803E00
07807C00
07C07800
03C0F800
03E0F000
01E1F000
01F1E000
00F3E000
00FBC000
007FC000
007F8000
003F8000
003F0000
001F0000
001E0000
001E0000
001E0000
001E0000
001E0000
001E0000
001E0000
001E0000
001E0000
001E0000
001E0000
001E0000
001E0000
ENDCHAR
STARTCHAR 1EF3
ENCODING 7923
SWIDTH 520 0
DWIDTH 26 0
BBX 23 49 2 -10
BITMAP
0F0000
0F8000
078000
03C000
03E000
01E000
00F000
00F000
007800
000000
000000
000000
000000
F0001E
F8001E
78003E
78003C
7C007C
3C0078
3C0078
1E00F8
1E00F0
1F00F0
0F01E0
0F01E0
0F83E0
0783C0
0783C0
03C780
03C780
03C780
01EF00
01EF00
00FE00
00FE00
00FC00
007C00
007C00
007800
00F800
00F000
00F000
01F000
01E000
03E000
0FC000
FF8000
FF0000
FE0000
ENDCHAR
STARTCHAR 1EF4
ENCODING 7924
SWIDTH 600 0
DWIDTH 30 0
BBX 27 46 2 -11
BITMAP
F80003E0
F80007C0
7C0007C0
7C000F80
3E000F80
3E001F00
1F001F00
0F003E00
0F803E00
07807C00
07C07800
03C0F800
03E0F000
01E1F000
01F1E000
00F3E000
00FBC000
007FC000
007F8000
003F8000
003F0000
001F0000
001E0000
001E0000
001E0000
001E0000
001E0000
001E0000
001E0000
001E0000
001E0000
001E0000
001E0000
001E0000
001E0000
00000000
00000000
00000000
00000000
00000000
00000000
001E0000
001F0000
003F0000
001F0000
001E0000
ENDCHAR
STARTCHAR 1EF5
ENCODING 7925
SWIDTH 520 0
DWIDTH 26 0
BBX 23 37 2 -11
BITMAP
F0001E
F8001E
78003E
78003C
7C007C
3C0078
3C0078
1E00F8
1E00F0
1F00F0
0F01E0
0F01E0
0F83E0
0783C0
0783C0
03C780
03C780
03C780
01EF00
01EF00
00FE00
00FE00
00FC00
007C00
007C00
007800
00F800
00F000
00F000
01F000
01E000
03E000
0FC078
FF80F8
FF00FC
FE00F8
000078
ENDCHAR
STARTCHAR 1EF6
ENCODING 7926
SWIDTH 600 0
DWIDTH 30 0
BBX 27 48 2 0
BITMAP
001F0000
007F8000
007FC000
00F1C000
0001E000
0001C000
0001C000
00078000
000F0000
00000000
00000000
00000000
00000000
F80003E0
F80007C0
7C0007C0
7C000F80
3E000F80
3E001F00
1F001F00
0F003E00
0F803E00
07807C00
07C07800
03C0F800
03E0F000
01E1F000
01F1E000
00F3E000
00FBC000
007FC000
007F8000
003F8000
003F0000
001F0000
001E0000
001E0000
001E0000
001E0000
001E0000
001E0000
001E0000
001E0000
001E0000
001E0000
001E0000
001E0000
001E0000
ENDCHAR
STARTCHAR 1EF7
ENCODING 7927
SWIDTH 520 0
DWIDTH 26 0
BBX 23 49 2 -10
BITMAP
00FE00
01FF00
01EF00
03C780
000380
000780
000F00
001E00
003C00
000000
000000
000000
000000
F0001E
F8001E
78003E
78003C
7C007C
3C0078
3C0078
1E00F8
1E00F0
1F00F0
0F01E0
0F01E0
0F83E0
0783C0
0783C0
03C780
03C780
03C780
01EF00
01EF00
00FE00
00FE00
00FC00
007C00
007C00
007800
00F800
00F000
00F000
01F000
01E000
03E000
0FC000
FF8000
FF0000
FE0000
ENDCHAR
STARTCHAR 1EF8
ENCODING 7928
SWIDTH 600 0
DWIDTH 30 0
BBX 27 45 2 0
BITMAP
00F83000
01FC7000
03FFF000
038FF000
0383E000
00000000
00000000
00000000
00000000
00000000
F80003E0
F80007C0
7C0007C0
7C000F80
3E000F80
3E001F00
1F001F00
0F003E00
0F803E00
07807C00
07C07800
03C0F800
03E0F000
01E1F000
01F1E000
00F3E000
00FBC000
007FC000
007F8000
003F8000
003F0000
001F0000
001E0000
001E0000
001E0000
001E0000
001E0000
001E0000
001E0000
001E0000
001E0000
001E0000
001E0000
001E0000
001E0000
ENDCHAR
STARTCHAR 1EF9
ENCODING 7929
SWIDTH 520 0
DWIDTH 26 0
BBX 23 47 2 -10
BITMAP
0080E0
03E0E0
07F9C0
077FC0
0E1FC0
0E0F00
000000
000000
000000
000000
000000
F0001E
F8001E
78003E
78003C
7C007C
3C0078
3C0078
1E00F8
1E00F0
1F00F0
0F01E0
0F01E0
0F83E0
0783C0
0783C0
03C780
03C780
03C780
01EF00
01EF00
00FE00
00FE00
00FC00
007C00
007C00
007800
00F800
00F000
00F000
01F000
01E000
03E000
0FC000
FF8000
FF0000
FE0000
ENDCHAR
STARTCHAR 2013
ENCODING 8211
SWIDTH 640 0
DWIDTH 32 0
BBX 21 3 6 14
BITMAP
FFFFF8
FFFFF8
FFFFF8
ENDCHAR
STARTCHAR 2014
ENCODING 8212
SWIDTH 760 0
DWIDTH 38 0
BBX 27 3 6 14
BITMAP
FFFFFFE0
FFFFFFE0
FFFFFFE0
ENDCHAR
STARTCHAR 2018
ENCODING 8216
SWIDTH 280 0
DWIDTH 14 0
BBX 7 13 4 25
BITMAP
0C
1C
30
60
60
E0
E0
F0
FC
FE
FE
7C
38
ENDCHAR
STARTCHAR 2019
ENCODING 8217
SWIDTH 260 0
DWIDTH 13 0
BBX 7 13 4 23
BITMAP
38
7C
FE
FE
7E
1E
0E
0E
0E
0C
18
70
60
ENDCHAR
STARTCHAR 201A
ENCODING 8218
SWIDTH 280 0
DWIDTH 14 0
BBX 6 13 4 -8
BITMAP
78
FC
FC
FC
FC
1C
0C
0C
0C
1C
38
70
40
ENDCHAR
STARTCHAR 201C
ENCODING 8220
SWIDTH 500 0
DWIDTH 25 0
BBX 18 13 4 25
BITMAP
0C0180
1C0380
300600
600C00
600C00
E01C00
E01C00
E01F00
FC1FC0
FE1FC0
FE1FC0
7C0F80
380700
ENDCHAR
STARTCHAR 201D
ENCODING 8221
SWIDTH 520 0
DWIDTH 26 0
BBX 18 12 4 24
BITMAP
7C0F80
FC1F80
FE1FC0
FE1FC0
7E0FC0
0E01C0
0E01C0
0C0180
0C0180
180380
780700
600C00
ENDCHAR
STARTCHAR 201E
ENCODING 8222
SWIDTH 500 0
DWIDTH 25 0
BBX 17 13 4 -8
BITMAP
780F00
FC1F80
FC1F80
FC1F80
FC1F80
1C0380
0C0180
0C0180
0C0180
180380
380700
700E00
400800
ENDCHAR
STARTCHAR 2020
ENCODING 8224
SWIDTH 560 0
DWIDTH 28 0
BBX 19 47 5 -12
BITMAP
00E000
00E000
00E000
00E000
00E000
00E000
00E000
00E000
00E000
FFFFE0
FFFFE0
FFFFE0
FFFFE0
00E000
00E000
00E000
00E000
00E000
00E000
00E000
00E000
00E000
00E000
00E000
00E000
00E000
00E000
00E000
00E000
00E000
00E000
00E000
00E000
00E000
00E000
00E000
00E000
00E000
00E000
00E000
00E000
00E000
00E000
00E000
00E000
00E000
00E000
ENDCHAR
STARTCHAR 2021
ENCODING 8225
SWIDTH 560 0
DWIDTH 28 0
BBX 19 47 5 -12
BITMAP
00E000
00E000
00E000
00E000
00E000
00E000
00E000
00E000
00E000
FFFFE0
FFFFE0
FFFFE0
FFFFE0
00E000
00E000
00E000
00E000
00E000
00E000
00E000
00E000
00E000
00E000
00E000
00E000
00E000
00E000
00E000
00E000
00E000
00E000
00E000
00E000
00E000
FFFFE0
FFFFE0
FFFFE0
FFFFE0
00E000
00E000
00E000
00E000
00E000
00E000
00E000
00E000
00E000
ENDCHAR
STARTCHAR 2022
ENCODING 8226
SWIDTH 380 0
DWIDTH 19 0
BBX 9 10 4 14
BITMAP
1800
7F00
FF80
FF80
FF80
FF80
FF80
FF80
7F00
3E00
ENDCHAR
STARTCHAR 2026
ENCODING 8230
SWIDTH 800 0
DWIDTH 40 0
BBX 31 5 4 0
BITMAP
7807C03C
FC07C07E
FC07C07E
FC07C07E
7807803C
ENDCHAR
STARTCHAR 2030
ENCODING 8240
SWIDTH 1180 0
DWIDTH 59 0
BBX 56 37 2 -1
BITMAP
02000000000000
3FC00038000000
7FE00078000000
70F000F0000000
F07000F0000000
E03801E0000000
E03801E0000000
E03803C0000000
E03803C0000000
E0380780000000
E0780780000000
F0700F00000000
7FF00F00000000
3FE01E00000000
0F801E00000000
00003C00000000
00003C00000000
00007800000000
00007800000000
0000F000000000
0000F000000000
0001E000000000
0001E00FC001F0
0003C01FE007FC
0003803FF00FFC
00078078781E0E
00070070381C0E
000F00F03C1C07
000E00F01C1C07
001E00F01C3C07
001C00F03C1C07
003C0070381C0F
00380070381E0E
00780078780F1E
0070003FF00FFC
00F0001FE007F8
00000003000040
ENDCHAR
STARTCHAR 2039
ENCODING 8249
SWIDTH 360 0
DWIDTH 18 0
BBX 14 21 2 5
BITMAP
007C
00F8
01F0
03E0
07C0
0F80
1F00
3E00
3C00
7800
F800
7C00
3E00
1F00
0F80
07C0
03E0
01E0
00F0
0078
003C
ENDCHAR
STARTCHAR 203A
ENCODING 8250
SWIDTH 360 0
DWIDTH 18 0
BBX 14 21 2 5
BITMAP
F800
3C00
1E00
0F00
0F80
07C0
03E0
01F0
00F8
007C
007C
0078
00F0
01E0
03C0
0780
0F00
1E00
3C00
7C00
F800
ENDCHAR
STARTCHAR 2044
ENCODING 8260
SWIDTH 460 0
DWIDTH 23 0
BBX 25 35 -1 0
BITMAP
00000780
00000F00
00000F00
00001E00
00003C00
00003C00
00007800
00007800
0000F000
0001E000
0001E000
0003C000
0003C000
00078000
000F0000
000F0000
001E0000
001E0000
003C0000
00780000
00780000
00F00000
00F00000
01E00000
03C00000
03C00000
07800000
07800000
0F000000
1E000000
1E000000
3C000000
3C000000
78000000
F0000000
ENDCHAR
STARTCHAR 2070
ENCODING 8304
SWIDTH 320 0
DWIDTH 16 0
BBX 14 19 1 19
BITMAP
07C0
1FF0
3CF0
3838
703C
701C
701C
F01C
F01C
F01C
F01C
F01C
701C
701C
703C
3838
3C78
1FF0
0FE0
ENDCHAR
STARTCHAR 2074
ENCODING 8308
SWIDTH 320 0
DWIDTH 16 0
BBX 14 19 1 19
BITMAP
00F0
01F0
03F0
0370
0770
0E70
0C70
1C70
3870
3070
7070
E070
FFFC
FFFC
0070
0070
0070
0070
0070
ENDCHAR
STARTCHAR 2075
ENCODING 8309
SWIDTH 300 0
DWIDTH 15 0
BBX 12 19 2 19
BITMAP
FFE0
FFE0
FFE0
C000
C000
C000
CF80
DFC0
F1E0
E070
0070
0070
0070
0070
E070
E0F0
7FE0
3FC0
0F00
ENDCHAR
STARTCHAR 2076
ENCODING 8310
SWIDTH 300 0
DWIDTH 15 0
BBX 13 19 1 19
BITMAP
0380
0700
0700
0E00
1C00
1C00
3800
37E0
7FF0
7870
F038
E018
E018
E018
6038
7038
7CF0
3FE0
0F80
ENDCHAR
STARTCHAR 2077
ENCODING 8311
SWIDTH 280 0
DWIDTH 14 0
BBX 12 19 1 19
BITMAP
FFF0
FFF0
FFF0
0070
0070
0060
00E0
00C0
01C0
01C0
0380
0380
0700
0700
0E00
0E00
0C00
1C00
1C00
ENDCHAR
STARTCHAR 2078
ENCODING 8312
SWIDTH 320 0
DWIDTH 16 0
BBX 14 19 1 19
BITMAP
0FC0
1FF0
3C78
7038
7038
7018
7038
3838
3FF0
1FE0
3878
7038
E01C
E01C
E01C
703C
7878
3FF0
1FE0
ENDCHAR
STARTCHAR 2079
ENCODING 8313
SWIDTH 300 0
DWIDTH 15 0
BBX 13 19 1 19
BITMAP
0FC0
3FE0
3CF0
7038
6038
E018
E018
6038
7038
7878
3FF8
1FF0
0070
00E0
01C0
01C0
0380
0700
0700
ENDCHAR
STARTCHAR 2080
ENCODING 8320
SWIDTH 320 0
DWIDTH 16 0
BBX 14 20 1 -13
BITMAP
0780
1FE0
3FF0
3878
7838
701C
701C
F01C
F01C
E01C
E01C
F01C
F01C
701C
703C
7838
3878
1FF0
0FE0
0100
ENDCHAR
STARTCHAR 2081
ENCODING 8321
SWIDTH 240 0
DWIDTH 12 0
BBX 11 19 1 -13
BITMAP
0E00
3E00
7E00
FE00
EE00
CE00
8E00
0E00
0E00
0E00
0E00
0E00
0E00
0E00
0E00
0E00
FFE0
FFE0
FFE0
ENDCHAR
STARTCHAR 2082
ENCODING 8322
SWIDTH 300 0
DWIDTH 15 0
BBX 13 19 1 -13
BITMAP
1FC0
3FE0
7870
7070
6038
E038
0030
0070
00F0
01E0
03C0
0780
0F00
1E00
3C00
7800
FFF8
FFF8
FFF8
ENDCHAR
STARTCHAR 2083
ENCODING 8323
SWIDTH 300 0
DWIDTH 15 0
BBX 13 20 1 -13
BITMAP
0780
1FE0
3FF0
7078
7038
0038
0038
0038
01F0
07E0
07F0
0078
0038
0018
E018
7038
7878
3FF0
1FE0
0300
ENDCHAR
STARTCHAR 2084
ENCODING 8324
SWIDTH 320 0
DWIDTH 16 0
BBX 14 19 1 -13
BITMAP
00F0
01F0
03F0
0370
0770
0E70
0C70
1C70
3870
3070
7070
E070
FFFC
FFFC
0070
0070
0070
0070
0070
ENDCHAR
STARTCHAR 2085
ENCODING 8325
SWIDTH 300 0
DWIDTH 15 0
BBX 13 19 1 -13
BITMAP
7FF0
7FF0
7000
6000
6000
6000
67C0
6FF0
7870
7038
0038
0038
0038
E038
7038
7878
3FF0
1FE0
0600
ENDCHAR
STARTCHAR 2086
ENCODING 8326
SWIDTH 300 0
DWIDTH 15 0
BBX 13 19 1 -13
BITMAP
0380
0700
0600
0E00
1C00
1800
3900
7FE0
7FF0
7078
E038
E018
E018
E018
7038
7078
3FF0
1FE0
0600
ENDCHAR
STARTCHAR 2087
ENCODING 8327
SWIDTH 280 0
DWIDTH 14 0
BBX 12 19 1 -13
BITMAP
FFF0
FFF0
0030
0070
0070
00E0
00E0
00C0
01C0
0180
0380
0380
0700
0700
0E00
0E00
1C00
1C00
1C00
ENDCHAR
STARTCHAR 2088
ENCODING 8328
SWIDTH 320 0
DWIDTH 16 0
BBX 14 20 1 -13
BITMAP
0780
1FE0
3FF0
7838
7038
7018
7038
7038
3CF0
1FE0
3FF0
7038
701C
E01C
E01C
F01C
7838
3FF8
1FF0
0300
ENDCHAR
STARTCHAR 2089
ENCODING 8329
SWIDTH 300 0
DWIDTH 15 0
BBX 13 19 1 -13
BITMAP
1FE0
3FF0
7878
7038
6038
E018
E018
6038
7038
3CF8
3FF0
0F70
00E0
00E0
01C0
0380
0380
0700
0E00
ENDCHAR
STARTCHAR 20AB
ENCODING 8363
SWIDTH 580 0
DWIDTH 29 0
BBX 27 41 2 0
BITMAP
00000F00
00000F00
00000F00
00000F00
000FFFE0
000FFFE0
000FFFE0
00000F00
00000F00
01FC0F00
07FF0F00
0FFF8F00
1FFFCF00
3F01EF00
7E007F00
7C003F00
F8003F00
F8001F00
F0001F00
F0001F00
F0000F00
F0000F00
F0001F00
F0001F00
F8001F00
F8003F00
7C003F00
7E007F00
3F00FF00
1FFFEF00
1FFFCF00
07FF0F00
01FC0F00
00000000
00000000
00000000
00000000
00000000
1FFFFF00
1FFFFF00
1FFFFF00
ENDCHAR
STARTCHAR 20AC
ENCODING 8364
SWIDTH 700 0
DWIDTH 35 0
BBX 32 35 1 0
BITMAP
0000F800
000FFF00
001FFFC0
007FFFE0
00FF07F0
00F801F8
01F0007C
03E0003C
03E0003E
07C0001E
07C0001F
0780000F
07800000
FFFFE000
FFFFE000
0F800000
0F800000
0F800000
0F800000
0F800000
FFFFE000
FFFFE000
0F800000
07800000
0780001F
07C0001E
03C0001E
03E0003E
01F0007C
01F800F8
00FC01F8
007FFFF0
003FFFE0
001FFF80
0007FE00
ENDCHAR
STARTCHAR 2122
ENCODING 8482
SWIDTH 380 0
DWIDTH 19 0
BBX 17 8 1 27
BITMAP
FEE380
FEE780
18F780
18FF80
18DD80
18DD80
18C180
18C180
ENDCHAR
STARTCHAR 215B
ENCODING 8539
SWIDTH 880 0
DWIDTH 44 0
BBX 41 35 2 0
BITMAP
1E0000078000
3E00000F0000
7E00001E0000
FE00001E0000
EE00003C0000
CE00003C0000
8E0000780000
0E0000F00000
0E0000F00000
0E0001E00000
0E0001E00000
0E0003C00000
0E0007800000
0E0007800000
0E000F000000
FFC00F000000
FFC01E000000
FFC03C00F000
00003C03FE00
00007807FF00
000078070700
0000F0070700
0001E0070700
0001E0070700
0003C0078F00
0003C003FE00
00078003FE00
000F00070700
000F000E0780
001E000E0380
001E000E0380
003C000F0780
007800078F00
00780007FF00
00F00001FC00
ENDCHAR
STARTCHAR 215C
ENCODING 8540
SWIDTH 840 0
DWIDTH 42 0
BBX 39 35 2 0
BITMAP
1FC0000F00
3FE0001E00
79F0003E00
7070003C00
E070007800
0070007800
007000F000
01E001F000
07C001E000
07E003C000
00F003C000
0070078000
00780F8000
E0780F0000
F0701E0000
7FF01E0000
3FE03C0000
1FC07C03E0
0000780FF8
0000F01FFC
0000F01C1C
0001E01C1C
0001E01C1C
0003C01C1C
0007801E3C
0007800FF8
000F000FF8
000F001C1C
001E00381E
003C00380E
003C00380E
0078003C1E
0078001E3C
00F0001FFC
01E00007F0
ENDCHAR
STARTCHAR 215D
ENCODING 8541
SWIDTH 880 0
DWIDTH 44 0
BBX 41 35 2 0
BITMAP
7FF0000F0000
7FF0000F0000
FFF0001E0000
E000003C0000
E000003C0000
E00000780000
EFC000780000
FFE000F00000
F0F001E00000
E07001E00000
007003C00000
007003C00000
E07007800000
F0700F000000
79F00F000000
7FE01E000000
3FC01E000000
00003C00F800
00007803FE00
00007807FE00
0000F0070700
0000F0070700
0001E0070700
0001C0070700
0003C0078F00
00078003FE00
00078003FE00
000F00070700
000E000E0700
001E000E0380
003C000E0380
003C000F0780
007800078F00
00780007FF00
00F00003FC00
ENDCHAR
STARTCHAR 215E
ENCODING 8542
SWIDTH 900 0
DWIDTH 45 0
BBX 41 35 2 0
BITMAP
FFF0000F0000
FFF0000F0000
FFF0001E0000
00F0003C0000
00E0003C0000
00E000780000
01C000780000
01C000F00000
038001E00000
038001E00000
070003C00000
070003C00000
0F0007800000
0E000F000000
1E000F000000
1C001E000000
3C001E000000
38003C007800
00007801FE00
00007803FF00
0000F0078700
0000F0070380
0001E0070380
0003C0070700
0003C0038700
00078001FE00
00078003FE00
000F00078700
001E00070380
001E000E0380
003C000E0380
003C000F0380
007800078F80
00F00003FF00
00F00001FE00
ENDCHAR
STARTCHAR 2212
ENCODING 8722
SWIDTH 600 0
DWIDTH 30 0
BBX 20 4 5 14
BITMAP
FFFFF0
FFFFF0
FFFFF0
FFFFF0
ENDCHAR
STARTCHAR 2215
ENCODING 8725
SWIDTH 500 0
DWIDTH 25 0
BBX 21 35 3 0
BITMAP
000078
0000F0
0000F0
0001E0
0001E0
0003C0
0003C0
0007C0
000780
000F80
000F00
001F00
001E00
003E00
003C00
007C00
007800
00F800
00F000
01F000
01E000
03E000
03C000
07C000
078000
0F8000
0F0000
1F0000
1E0000
3E0000
3C0000
7C0000
780000
F80000
F00000
ENDCHAR
STARTCHAR 2248
ENCODING 8776
SWIDTH 560 0
DWIDTH 28 0
BBX 18 16 5 8
BITMAP
1E01C0
3F81C0
7FF7C0
F1FF80
E07F00
E00800
000000
000000
000000
000000
000000
3F01C0
7FC1C0
FFFFC0
E0FF80
E03F00
ENDCHAR
STARTCHAR 2260
ENCODING 8800
SWIDTH 720 0
DWIDTH 36 0
BBX 24 30 6 1
BITMAP
00001E
00003C
00003C
000078
0000F0
0000F0
0001E0
0001E0
FFFFFF
FFFFFF
FFFFFF
FFFFFF
000F00
001E00
001E00
003C00
007800
007800
00F000
FFFFFF
FFFFFF
FFFFFF
FFFFFF
078000
078000
0F0000
0F0000
1E0000
3C0000
3C0000
ENDCHAR
STARTCHAR 2264
ENCODING 8804
SWIDTH 600 0
DWIDTH 30 0
BBX 21 30 5 0
BITMAP
000030
0000F0
0001F0
0007F0
001FC0
007F80
01FE00
07F800
1FE000
3F8000
7E0000
7E0000
7F8000
1FE000
07F000
01FC00
007F00
001FC0
000FF0
0003F0
0000F0
000030
000000
000000
000000
000000
000000
FFFFF8
FFFFF8
FFFFF8
ENDCHAR
STARTCHAR 2265
ENCODING 8805
SWIDTH 620 0
DWIDTH 31 0
BBX 21 30 5 0
BITMAP
600000
780000
7E0000
7F8000
1FC000
07F000
01FC00
007F00
001FC0
0007F0
0003F0
0001F0
0007F0
001FC0
007F00
01FC00
07F000
1FE000
7F8000
7E0000
780000
600000
000000
000000
000000
000000
000000
FFFFF8
FFFFF8
FFFFF8
ENDCHAR
ENDFONT
